<svg xmlns="http://www.w3.org/2000/svg" width="41" height="41" viewBox="0 0 41 41"><defs><style>.a,.b{fill:none;stroke:#c1b9ae;}.a{stroke-miterlimit:10;}.b{stroke-linejoin:bevel;stroke-width:0.75px;}</style></defs><title>button_earth</title><circle class="a" cx="20.5" cy="20.5" r="20"/><path class="b" d="M15.8,28.3a12.74,12.74,0,0,1,4-9.1,12.11,12.11,0,0,1,9-3.4,11.75,11.75,0,0,1,8.6,3.9,11.82,11.82,0,0,1,3.4,9.1,12.25,12.25,0,0,1-4,8.7,12.57,12.57,0,0,1-9.2,3.4A12,12,0,0,1,19,36.8,12.47,12.47,0,0,1,15.8,28.3Z" transform="translate(-7.8 -7.8)"/><path class="b" d="M37.1,23.7c.1-.1,0-.5-.1-.5s-.3-.1-.5,0h-.2c-.1-.1-.2-.1-.4-.1s-.3-.1-.4-.2a.37.37,0,0,0-.3-.1c-.2,0-.3,0-.2.2v.1c0,.1,0,.1-.1.1h-.2c-.1-.1-.2-.2-.3-.2s-.1-.1-.2-.1c-.1-.2-.3-.2-.5-.3s-.2-.1-.3-.2a.76.76,0,0,0-.2-.4c-.1-.1-.1-.1-.2-.1s-.2,0-.4,0a1.73,1.73,0,0,0-1,.1,1.17,1.17,0,0,1-1,0h-.1a.78.78,0,0,1-.4.4c-.1,0-.1.1-.1.2s-.1.2-.1.4-.1.3-.3.3a.82.82,0,0,0-.5.5,1,1,0,0,1-.4.5c-.1.2-.1.2,0,.4v.1a2.77,2.77,0,0,1-.1.9c0,.1-.1.2,0,.3v.1c-.1.1,0,.2.1.3s.3.1.3.3a1.69,1.69,0,0,0,.7,1c.1.1.3.3.5.1a.61.61,0,0,1,.8,0h.2c.2-.2.5-.2.8-.3.1,0,.2-.1.3,0s.3.1.4.3h.1c.2-.1.3,0,.3.1a.64.64,0,0,1,0,.6.66.66,0,0,0,.1.6,2.93,2.93,0,0,1,.4.8.1.1,0,0,0,.1.1c.2.1.2.3.2.5s-.1.4-.1.6a.88.88,0,0,0-.1.7,2,2,0,0,1,.3,1.1,1.8,1.8,0,0,0,.4.9.37.37,0,0,1,.1.3v.2a.31.31,0,0,0,.2.1,1.45,1.45,0,0,1,.7-.2c.3,0,.4-.3.6-.5s.1-.2.2-.3a1,1,0,0,0,.4-.5.37.37,0,0,1,.1-.3c.1-.1.1-.3.4-.3h0c0-.2.1-.3-.1-.5s0-.1,0-.2a.1.1,0,0,0,.1-.1c.1-.1.2-.3.4-.4s.2-.3.3-.4v-.2c0-.2.1-.5-.1-.7a.37.37,0,0,1,0-.6c.2-.3.5-.5.6-.9,0-.1.2-.1.2-.2s.1-.3.2-.5a3.54,3.54,0,0,0,.3-1.1c-.2.2-.5.1-.7.3h-.1a.37.37,0,0,1-.1-.3c0-.1.1-.1,0-.2l-.2-.2c.1,0,0-.1,0-.1a.85.85,0,0,0-.3-.5c-.1-.1-.1-.2-.1-.4V25a.76.76,0,0,1-.2-.4c-.2-.3-.2-.6-.4-.9v-.2H37A.35.35,0,0,0,37.1,23.7Z" transform="translate(-7.8 -7.8)"/><path class="b" d="M22,35.1h0c.1,0,.2.1.3.1s0-.2,0-.3h0a.1.1,0,0,1,.1-.1c.1.1.2,0,.4.1s.1,0,.2-.1a.35.35,0,0,1,.1-.2c-.1-.1-.1-.3-.2-.4s-.1-.1,0-.1H23a.35.35,0,0,0,.2.1.37.37,0,0,0,.5-.2c0-.1.1-.2.1-.4s0-.2.1-.1,0,.1.1,0a1.07,1.07,0,0,0,.2-.6c0-.1-.1-.3.1-.3l.1-.1c.1-.1.1-.1.2-.1a.1.1,0,0,0,.1-.1c0-.1.1-.1.2-.1s.4,0,.4-.2a.6.6,0,0,0,.1-.4,2.13,2.13,0,0,0,0-.8c0-.1,0-.3.1-.3s.1-.1.2-.1l.3-.6c.1-.1.1-.2,0-.4s-.4-.3-.5-.4a.76.76,0,0,0-.5-.2h-.5c-.1.1-.2,0-.2-.1s0-.1-.1-.1a.1.1,0,0,1-.1-.1c-.1-.1-.2,0-.3.1s-.1.1-.2.1h0c-.1,0-.2,0-.1-.1s.1,0,.1,0h.1l.1-.1c0-.1-.1,0-.1-.1s-.1.1-.2.1-.1.1-.1,0a.14.14,0,0,1,0-.2c.1-.1.2-.2.1-.4a.86.86,0,0,0-.7-.6.37.37,0,0,1-.3-.1c-.1-.1-.2-.3-.4-.3v-.1a.1.1,0,0,0-.1-.1.22.22,0,0,1-.2-.2h-.1c-.1,0,0,0,0,.1a.1.1,0,0,1-.1.1h-.3c-.1,0-.2,0-.2-.1s-.1-.1-.2,0-.1.1-.1.2a.1.1,0,0,1-.2,0,.6.6,0,0,1,.1-.4,1.38,1.38,0,0,1-.4.3l-.1.1c-.1.1-.1.4-.2.5v.1c.1.1,0,.2,0,.4a.85.85,0,0,1-.2.6.45.45,0,0,0,0,.5v.2c-.1.3-.1.4.1.6.1,0,.1.1.1.2s.1.3.2.5a1.06,1.06,0,0,0,.6.7,1,1,0,0,1,.4.8v.4a.9.9,0,0,1,.1.5v.5a1.39,1.39,0,0,1,0,.9c0,.1-.1.2,0,.3s.1.2.1.4V35c.2.1.2.2.1.3v.1c.1.1,0,.3,0,.4s0,.1,0,.2a.6.6,0,0,1,.1.4c.1.2.1.4.3.5,0,0,.1.2.2,0s.1-.1,0-.2v-.1c.1-.1.1-.2.2-.3v-.1l-.1-.1c-.1-.1-.1-.1,0-.2a.44.44,0,0,0,.1-.5C22,35.3,22,35.2,22,35.1Z" transform="translate(-7.8 -7.8)"/><path class="b" d="M33.1,17.8c-.2,0-.1.3-.3.3v.2c.1.1.1.2.1.4a.14.14,0,0,1-.2,0c-.1.1-.3-.1-.2.1,0,0-.1.1-.1,0s-.1,0-.1,0a.1.1,0,0,0-.1.1L32,19c0,.2-.2.2-.3.3a.14.14,0,0,1-.2,0c-.1,0-.1.1-.2.1h-.2c-.1,0-.1,0-.1.1s0,.1.1.1.2.1.3.2.2.2.1.4v.1c0,.1-.1.3-.2.3a2,2,0,0,1-.8-.1.37.37,0,0,0-.3.1c-.1,0,0,.1,0,.2a.45.45,0,0,1,0,.5.14.14,0,0,0,0,.2s.1,0,0,.1.1.2.2.2h.1c.2.2.4.1.6.1s.1,0,.2-.1.1-.2.2-.2.1-.1.1-.2a.6.6,0,0,1,.1-.4c.2-.1.3-.2.3-.4s.1-.1.2-.1a.45.45,0,0,0,.5,0c.2-.1.3-.1.5.1l.3.3c.3.2.6.3.5.7h0s0-.2.1-.2h0c0-.1-.1-.2,0-.2s.1,0,.2.1h.1c-.1-.1-.2-.2-.3-.2s-.1-.1-.1-.2.1-.1.2-.1.4.1.4.3a.37.37,0,0,0,.1.3l.3.6c.2.2.1-.1.2-.1a.1.1,0,0,0,0-.2s-.1-.1,0-.1,0-.1,0-.2,0-.3.1-.3.3,0,.4,0V21c-.1-.1-.3-.2,0-.3h0c-.1-.1,0-.2.1-.3s.2-.3.4-.1h.1a.1.1,0,0,1,.1.1c.1,0,.1-.1.2-.1h.7a.1.1,0,0,1-.1.1c.1,0,.1,0,.1.1s-.2,0-.2.1h0a2.18,2.18,0,0,1,.5.4c.1,0,.1.1.1.2s0,.1-.1.1a.9.9,0,0,1-.5-.1,1.45,1.45,0,0,0-.7-.2c-.1,0-.3.1-.5,0,0,.1.1.1.1.2h-.1c-.1-.1-.2,0-.4,0,0,.2.1.3.1.5s0,.3.3.3c.1,0,.2.1.3,0h0a.75.75,0,0,0,.5.1h.1s.1,0,0,.1-.1.1,0,.2.1.2,0,.2a.64.64,0,0,0,0,.6.6.6,0,0,0,.1.4l.3.6a.1.1,0,0,0,.1.1c.1.1.2.2.2.3a.6.6,0,0,0,.1.4.86.86,0,0,1,.3.6,1.42,1.42,0,0,1,.2.6.1.1,0,0,0,.1.1.35.35,0,0,1,.4-.4.1.1,0,0,0,.1-.1c0-.1.1-.1.2-.1a.43.43,0,0,0,.4-.4v-.1c.1-.2.1-.2,0-.4s-.2-.2-.2-.3v-.1l-.1.1a.37.37,0,0,1-.3.1.22.22,0,0,1-.2-.2v-.1c-.3-.2-.3-.5-.4-.8,0-.1,0-.1.1-.1a.22.22,0,0,1,.2.2.52.52,0,0,0,.2.4c.1.1.2.2.3.1s.2-.1.2.1a.1.1,0,0,0,.1.1c.1,0,.3.1.4.1v-.1a9.38,9.38,0,0,0-.6-1.5,7.46,7.46,0,0,0-.7-1.2.1.1,0,0,0-.1-.1c-.1,0,0,.1,0,.1a.6.6,0,0,1,.1.4.1.1,0,0,1-.1.1.73.73,0,0,1-.6-.9v-.1c-.3-.2-.3-.6-.5-.9v-.1c.1-.2,0-.3-.1-.4-.4-.3-.7-.7-1.1-1a17.1,17.1,0,0,0-1.4-1.1s-.1-.1-.1,0v.2a.1.1,0,0,1,.1.1c.1.1.1.1,0,.2a.14.14,0,0,1-.2,0c-.1-.1-.1-.1-.2,0s-.1.1,0,.1-.1.4-.2.4h-.1a.19.19,0,0,0-.3,0,.47.47,0,0,1-.6-.1h-.1c-.1,0-.1,0-.1-.1s0-.2-.1-.2-.1-.1-.1-.2C33.2,18.1,33.2,17.9,33.1,17.8Z" transform="translate(-7.8 -7.8)"/><path class="b" d="M21.8,17.8l-.9.6-.1.1a.44.44,0,0,1-.1.5c-.1.1-.2.2-.2.3l-.1.1c.1.1,0,.3,0,.4a.22.22,0,0,1-.2.2c-.1,0-.2-.2-.2-.3a.37.37,0,0,1,.1-.3.55.55,0,0,0-.5.2c-.1.2-.3.3-.4.5a3.92,3.92,0,0,0-.8,1,10.85,10.85,0,0,0-1.5,2.8c-.1.2-.2.3-.1.5s.1.6.3.8a.37.37,0,0,1,.1.3c0,.2,0,.4.2.5s.2.1.3.2.1.1.2,0,.2-.1.2,0,.1.1.2.2.2.2.4.1a.1.1,0,0,1,.1.1v.1c.1.1.1.1.1.2s.2.2.3.4.2.1.2,0a.14.14,0,0,1,.2,0h.1a.1.1,0,0,0-.1-.1.35.35,0,0,0-.2.1c-.1,0-.1.1-.2,0a.75.75,0,0,1-.1-.8c0-.1,0-.3-.2-.2h-.3c-.1,0-.1,0-.1-.1s.2-.5.2-.7,0-.1-.1-.1-.2,0-.2.2-.2.4-.5.4a.1.1,0,0,1-.1-.1,2.23,2.23,0,0,1,0-1.4c0-.1.1-.1.2-.2s.3-.2.4-.1.1.1.1,0,0-.1,0-.1V24c.1,0,.1-.2.3-.1H19c.2-.1.2.1.2.2s0,.4.2.5c.1-.2.1-.2,0-.5a.76.76,0,0,1,.3-.9c.1-.1.2-.2.2-.3a1.27,1.27,0,0,0,.1-.6c.2.1.2-.1.3-.2s.1-.4.4-.5h.1v-.1c0-.2,0-.3.2-.4s.4-.3.6-.4.1-.2.1-.3v-.1a.1.1,0,0,1,0-.2c.1,0,.1,0,.2-.2-.2.1-.3.1-.4.2s-.2.3-.4.4c0,0-.1.1-.1,0v-.1c.2-.3.4-.4.6-.7.1-.1.1-.1.2-.1h.4c.1,0,.2,0,.3-.2s.2-.2.3-.2A.22.22,0,0,0,23,19v-.2a.9.9,0,0,0-.5.1h-.2v-.1a1.38,1.38,0,0,1,.4-.3h-.1c-.1.1-.2,0-.2-.1s-.2-.1-.2-.2v-.1c.2,0,0-.1,0-.2-.3,0,0-.1-.1-.2v-.1c-.1,0-.1-.1-.1-.2a1.38,1.38,0,0,1-.3.4c-.1.1-.2,0-.3,0v-.1C21.7,18.1,21.7,18,21.8,17.8Z" transform="translate(-7.8 -7.8)"/><path class="b" d="M33.5,39.6h-.4c-.1,0-.2,0-.2.1s-.2.1-.4.1-.2-.1-.3,0h-.1a.1.1,0,0,0-.1-.1h-.1a.19.19,0,0,0-.3,0c-.2,0-.3.1-.5.1s-.5.1-.7.3-.3.2-.5.1h-.1c-.2.2-.5.2-.8.3-.1,0-.1.1-.2.1h-.5a.37.37,0,0,0-.3.1A11.55,11.55,0,0,0,33.5,39.6Z" transform="translate(-7.8 -7.8)"/><path class="b" d="M32.4,17.2c.1,0,.1-.1.2,0a.14.14,0,0,1,0,.2.14.14,0,0,0,0,.2c.1.1.2.1.4,0s.3-.2.3,0a1.38,1.38,0,0,0,.3.4c.1.1.1.2-.1.3a.1.1,0,0,0,0,.2c.1.1.2,0,.3,0s.2-.1.2-.2v-.2a.35.35,0,0,1,.1-.2c.2-.1.1-.1,0-.2s-.1-.1-.1-.2a.1.1,0,0,0-.1-.1,3,3,0,0,0-1-.4c-.1,0-.2-.2-.4,0s-.1.1-.1.2Z" transform="translate(-7.8 -7.8)"/><path class="b" d="M36.9,20.5c0,.1.2.1.1.2h-.2c-.1,0-.3.1-.3-.2h0c-.1,0-.1,0-.1-.1h-.1c-.1,0-.1.2-.2.2a.37.37,0,0,1-.1.3h0a.37.37,0,0,0,.5.2.44.44,0,0,1,.5.1c.2.1.4.3.7.2,0,0,.1.1.1,0v-.1a2.18,2.18,0,0,1-.5-.4.1.1,0,0,1-.1-.1c0-.1.1,0,.2,0C37.2,20.4,37.1,20.5,36.9,20.5Z" transform="translate(-7.8 -7.8)"/><path class="b" d="M23.3,39.6h0a14.67,14.67,0,0,0,1.4.6.1.1,0,0,0,.1-.1c.1-.1,0-.1,0-.1-.2-.1-.3-.1-.4-.3s0-.1-.1-.2-.3-.2-.5-.3-.2-.2-.3-.2-.1-.1-.1-.2.1-.3.4-.4h-.4c-.2,0-.3.2-.2.4s.1.3.3.4l.2.2v.1C23.5,39.5,23.4,39.6,23.3,39.6Z" transform="translate(-7.8 -7.8)"/><path class="b" d="M31,17.6c0-.1.1-.1.1-.2H31a.19.19,0,0,0-.1.3c.1.1.2.2.1.4.2,0,.2,0,.3.1s0,.2-.1.3h0c0,.1,0,.3.2.2h.1c-.1.1-.1.1-.2.1a1.24,1.24,0,0,0-.3.2c0,.1.1,0,.1,0a.6.6,0,0,0,.4-.1c.1,0,.2,0,.2.1,0-.1.1-.1,0-.2s.1-.1.1-.2a.27.27,0,0,1-.3-.3.1.1,0,0,0-.1-.1c-.2-.1-.2-.3-.4-.4v-.1c0-.1.1-.1.1-.2C31.2,17.6,31.1,17.7,31,17.6Z" transform="translate(-7.8 -7.8)"/><path class="b" d="M37.8,20.3a.19.19,0,0,0,0,.3c.1.1.1.2.2.4s.1.3.3.4.1.1.1.2-.1.2,0,.3.3.4.5.4.1,0,.1-.1a.37.37,0,0,0-.1-.3.76.76,0,0,1-.2-.5v-.1A9,9,0,0,1,37.8,20.3Z" transform="translate(-7.8 -7.8)"/><path class="b" d="M24.5,17h.2c.1,0,.2-.1.2.1s.1,0,.1,0,.3-.2.3-.4.2-.3.1-.4c-.4.1-.7.2-1,.3a.1.1,0,0,0,0,.2c.1,0,.1,0,.1.1S24.6,17,24.5,17Z" transform="translate(-7.8 -7.8)"/><path class="b" d="M19.9,19.2c.2,0,.3,0,.2.2v.2a.35.35,0,0,0,.1.2.31.31,0,0,0,.2-.1c0-.1.1-.2,0-.3s0-.2.1-.3l.2-.2c.1-.1.2-.3.1-.4A5.5,5.5,0,0,1,19.9,19.2Z" transform="translate(-7.8 -7.8)"/><path class="b" d="M30.2,18.4a.22.22,0,0,0,.2.2c.1.1.2,0,.3,0s.2-.1.1-.3v-.1c.1-.1,0-.2-.1-.2s-.2,0-.2.1a.1.1,0,0,1-.1.1C30.2,18.2,30.2,18.3,30.2,18.4Z" transform="translate(-7.8 -7.8)"/><path class="b" d="M39.2,24.7h0c.2-.1.2-.2.3-.3a.1.1,0,0,0,.1-.1c0-.1-.1,0-.1,0a.19.19,0,0,1-.3,0c-.1-.2-.3-.3-.3-.5a.1.1,0,0,0-.1-.1s-.1-.1-.1,0v.1c0,.1.1.2.2.4s0,.2.2.1a.1.1,0,0,1,.1.1v.2C39,24.6,39.1,24.7,39.2,24.7Z" transform="translate(-7.8 -7.8)"/><path class="b" d="M22.9,39.2a.6.6,0,0,0,.4.1c-.2-.1-.3-.3-.5-.4.1.2.2.2.3.4C23.1,39.2,23,39.2,22.9,39.2Z" transform="translate(-7.8 -7.8)"/><path class="b" d="M21.6,21.1c.2-.1.3-.2.5-.3s.1-.1,0-.1-.1-.1-.2,0h-.1v.1C21.7,20.8,21.6,20.9,21.6,21.1Z" transform="translate(-7.8 -7.8)"/><path class="b" d="M33.8,21.7c0,.1.1.1.1.2a.1.1,0,0,0,.1.1c.1,0,0-.1,0-.1v-.1c0-.1,0-.1-.1-.1S33.8,21.6,33.8,21.7Z" transform="translate(-7.8 -7.8)"/><path class="b" d="M22.5,37.4c-.2-.1-.3-.3-.4-.4A.37.37,0,0,0,22.5,37.4Z" transform="translate(-7.8 -7.8)"/><path class="b" d="M20.1,25.4c-.1,0-.2.1-.4.1a.1.1,0,0,1-.1-.1c0-.2-.1-.2-.2-.2s-.1,0-.2-.1-.1-.1-.2,0-.1.1-.1,0v-.2c.1-.1.2-.2.3-.2a.76.76,0,0,1,.5.2c.1.1.2.1.3.2a.37.37,0,0,1,.1.3Z" transform="translate(-7.8 -7.8)"/><path class="b" d="M20,25.3c-.3-.1-.5-.3-.8-.4a.1.1,0,0,0,.1.1c.1,0,.2.1.3.2s.1.1,0,.2C19.8,25.4,19.9,25.4,20,25.3Z" transform="translate(-7.8 -7.8)"/><path class="b" d="M20.1,25.4a.85.85,0,0,1,.7,0,.35.35,0,0,1,.1.2c0,.1-.1,0-.1,0h-.1c-.1,0-.1.2-.2.1s-.1-.1-.2-.1-.1,0-.1-.1.1-.1.2-.1Z" transform="translate(-7.8 -7.8)"/><path class="b" d="M20.7,25.5c-.1-.1-.2-.1-.3-.2s-.1,0-.2.1c.1.1,0,.2.1.2h.1C20.5,25.5,20.6,25.6,20.7,25.5Z" transform="translate(-7.8 -7.8)"/></svg>