<svg xmlns="http://www.w3.org/2000/svg" width="41" height="41" viewBox="0 0 41 41">
	<defs>
		<style>
			.a{fill:none;stroke:#c1b9ae;stroke-miterlimit:10;}
			.b{fill:#c1b9ae;}
		</style>
	</defs>
	<circle class="a" cx="20.5" cy="20.5" r="20"/>
	<path class="b" d="M21.5,20.8h2.9a.1.1,0,0,0,.1-.1l.1-.1v-.4a.1.1,0,0,0-.1-.1l-.1-.1H21.1a.91.91,0,0,0-.7.3l-.1.1a.91.91,0,0,0-.3.7v3.3a.1.1,0,0,0,.1.1l.1.1h.4a.1.1,0,0,0,.1-.1l.1-.1V21.5l4.6,4.6.1.1h.4a.1.1,0,0,0,.1-.1l.1-.1v-.4a.1.1,0,0,0-.1-.1h0Z" transform="translate(-7.8 -7.8)"/>
	<path class="b" d="M30.8,31.4h0L35.5,36H32.6a.1.1,0,0,0-.1.1l-.1.1v.4a.1.1,0,0,0,.1.1.37.37,0,0,0,.3.1h3.1a1.45,1.45,0,0,0,.7-.2l.1-.1a.91.91,0,0,0,.3-.7V32.5a.1.1,0,0,0-.1-.1l-.1-.1h-.4a.1.1,0,0,0-.1.1l-.1.1v2.9l-4.6-4.6h0a.5.5,0,0,0-.6,0l-.1.1v.4C30.7,31.3,30.8,31.4,30.8,31.4Z" transform="translate(-7.8 -7.8)"/>
	<path class="b" d="M24.4,36.5v-.2a.1.1,0,0,0-.1-.1l-.1.1.1-.1-.1-.1H21.3l4.6-4.6c.1-.1.1-.2.2-.3h0V31a.1.1,0,0,0-.1-.1l-.1-.1h-.4a.1.1,0,0,0-.1.1h0l-4.7,4.6V32.6a.1.1,0,0,0-.1-.1l-.1-.1h-.4a.1.1,0,0,0-.1.1l-.1.1v3.3a1.45,1.45,0,0,0,.2.7l.1.1a.91.91,0,0,0,.7.3h3.3a.1.1,0,0,0,.1-.1l-.1-.1.1.1" transform="translate(-7.8 -7.8)"/>
	<path class="b" d="M36.2,24.2h0l.1.1h.4a.1.1,0,0,0,.1-.1l-.1-.1.1.1.1-.1h0V20.9a.91.91,0,0,0-.3-.7l-.1-.1a.91.91,0,0,0-.7-.3H32.5a.1.1,0,0,0-.1.1l-.1.1v.4a.1.1,0,0,0,.1.1l.1.1h2.9l-4.6,4.6h0a.5.5,0,0,0,0,.6l.1.1h.4a.1.1,0,0,0,.1-.1h0L36,21.1V24C36.1,24.2,36.1,24.2,36.2,24.2Z" transform="translate(-7.8 -7.8)"/>
</svg>