<svg xmlns="http://www.w3.org/2000/svg" width="127.73" height="178.8" viewBox="0 0 127.73 178.8"><defs><style>.a{fill:#fff;}.a,.b{stroke:#fff;stroke-miterlimit:10;}.b{fill:none;}</style></defs><title>finger</title><path class="a" d="M105.93,87.9a10.5,10.5,0,0,1,10.5-10.5,10.76,10.76,0,0,1,10.8,10.5v50.4a40,40,0,0,1-40,40H50.43L2.53,104a12.65,12.65,0,0,1,21.2-13.8l15.4,23.4-.3-86.7a12.7,12.7,0,0,1,25.4,0l-.3,52.2a10.5,10.5,0,0,1,21,0v3.3a10.5,10.5,0,0,1,21,0v5.5Z"/><path class="b" d="M33.33,45.4a26.06,26.06,0,0,1-7.7-18.6,26.3,26.3,0,0,1,52.6,0,26.06,26.06,0,0,1-7.7,18.6"/></svg>