<svg xmlns="http://www.w3.org/2000/svg" xmlns:xlink="http://www.w3.org/1999/xlink" width="1644.72" height="1152.27" viewBox="0 0 1644.72 1152.27"><defs><style>.a{fill:url(#a);}.b{mask:url(#b);}.c,.d{fill:none;stroke-miterlimit:10;stroke-width:0.75px;}.c{stroke:#f3e600;}.d{stroke:#6bc1b5;}.e{fill:#fff;}</style><radialGradient id="a" cx="650" cy="584.41" r="180.5" gradientTransform="translate(-2146.62 -1310.68) scale(4.55 3.19)" gradientUnits="userSpaceOnUse"><stop offset="0.82" stop-color="#f2f2f2"/><stop offset="1"/></radialGradient><mask id="b" x="-165.96" y="-240.07" width="1853.57" height="1370.33" maskUnits="userSpaceOnUse"><rect class="a" x="-8.53" y="-21.73" width="1644" height="1152"/></mask></defs><title>intro</title><g class="b"><path class="c" d="M253.46,1085.74C266,1063.45,476.87,738.39,510.15,686c23.49-37,35-42.39,86.88-42.39"/><path class="c" d="M253.46,1073.4C266,1051.1,494.62,726.05,527.9,673.66c23.49-37,35-42.39,86.88-42.39"/><path class="c" d="M253.46,1073.4C266,1051.1,486.12,726.05,519.41,673.66c23.49-37,34.94-42.39,86.87-42.39"/><path class="d" d="M253.46,1073.4C266,1051.1,480.61,726.05,513.9,673.66c23.48-37,34.94-42.39,86.87-42.39"/><path class="d" d="M253.46,1073.4C266,1051.1,472.53,726.05,505.81,673.66c23.49-37,34.95-42.39,86.88-42.39"/><path class="c" d="M225.47,1085.74c12.77-22.29,263.08-359.69,297.07-412.08,24-37,35.69-42.39,88.73-42.39"/><path class="d" d="M225.47,1085.74c12.77-22.29,227.9-347.35,261.89-399.74,24-37,35.69-42.39,88.73-42.39"/><path class="d" d="M253.46,1073.4c12.13-22.3,207.61-347.35,239.87-399.74,22.76-37,33.87-42.39,84.2-42.39"/><path class="c" d="M225.47,1085.74c12.12-22.29,193.6-347.35,225.86-399.74,22.76-37,33.87-42.39,84.2-42.39"/><path class="d" d="M1250.94,157.56c13.46-23,24.28-42.54,23-85.3s-3.06-295.71-3.06-295.71"/><path class="d" d="M1221.23,189.21c13.46-23,27.8-49.33,26.47-92.09s7.22-283.52,7.22-283.52"/><path class="c" d="M1202.6,205.69c13.46-23,26.31-47.48,25-90.25-.73-23.64-2.09-23.64,8.71-294.22"/><path class="d" d="M1216.16,184.62c13.46-23,24.28-42.54,22.94-85.31-.73-23.64-2.31-23.67,11.6-294.7"/><path class="d" d="M1212.71,189.21c13.46-23,24.28-42.54,23-85.31-.74-23.64-2.11-23.64,8.73-290.3"/><path class="d" d="M1216.16,179.15c13.46-23,24.28-42.54,22.94-85.31-.73-23.64-2.33-23.67,11.6-289.23"/><path class="d" d="M1227.69,162c13.46-23,24.28-42.54,22.94-85.3s.11-280.25.11-280.25"/><path class="d" d="M1236.28,145.39c13.46-23,24.28-42.54,23-85.3s.11-280.25.11-280.25"/><path class="d" d="M1227.52,157.56c13.46-23,24.45-49,23.11-91.74s5.16-286,5.16-286"/><path class="d" d="M1236.28,145.39c13.46-23,24.28-42.54,23-85.3s3.24-285.26,3.24-285.26"/><path class="c" d="M1239.41,138.42c13.46-23,24.28-42.54,22.95-85.3s4-284.4,4-284.4"/><path class="c" d="M1240.7,140.48c13.46-23,31.39-48.75,30.06-91.51s-4.37-289-4.37-289"/><path class="c" d="M1556.4-56.7C1349.94,44.43,1353.36,43,1326.34,58.41c-30.14,17.18-61.65,37.8-81.89,73.88-12.52,22.29-60.77,95.85-94.06,148.24-23.49,37-34.94,42.39-86.88,42.39"/><path class="d" d="M1552.65-56.5S1352.73,41.43,1322.59,58.61,1261,96.4,1240.7,132.48c-12.51,22.3-60.77,95.86-94,148.25-23.49,37-35,42.39-86.88,42.39"/><path class="d" d="M1547.14-44.36S1347.22,53.57,1317.08,70.75s-61.64,37.8-81.89,73.88c-12.51,22.3-60.77,95.85-94,148.24-23.49,37-35,42.4-86.88,42.4"/><path class="d" d="M1552.65-44.36S1352.73,53.57,1322.59,70.75s-61.64,37.8-81.89,73.88c-12.51,22.3-60.77,95.85-94,148.24-23.49,37-35,42.4-86.88,42.4"/><path class="c" d="M1560.74-44.36S1360.82,53.57,1330.68,70.75s-61.65,37.8-81.89,73.88c-12.51,22.3-60.77,95.85-94.06,148.24-23.49,37-34.94,42.4-86.87,42.4"/><path class="c" d="M1552.65-44.36s-204.17,97.93-235,115.11-63,37.8-83.64,73.88c-12.78,22.3-62.06,95.85-96,148.24-24,37-35.7,42.4-88.73,42.4"/><path class="c" d="M1557.74-33.36S1364,64.57,1334.75,81.75s-59.75,37.8-79.37,73.88c-12.13,22.3-58.9,95.85-91.16,148.24-22.77,37-33.87,42.4-84.21,42.4"/><rect class="d" x="420.13" y="335.74" width="916.55" height="142.35" rx="62.14"/><rect class="c" x="466.93" y="335.74" width="916.55" height="142.35" rx="62.14"/><rect class="c" x="549.12" y="335.74" width="946.93" height="142.35" rx="62.14"/><rect class="c" x="459.19" y="335.74" width="916.55" height="142.35" rx="62.14"/><rect class="d" x="435.81" y="335.74" width="916.55" height="142.35" rx="62.14"/><rect class="d" x="420.13" y="335.74" width="916.55" height="142.35" rx="62.14"/><rect class="c" x="400.63" y="335.74" width="916.55" height="142.35" rx="62.14"/><rect class="c" x="389.29" y="335.74" width="916.55" height="142.35" rx="62.14"/><rect class="d" x="435.81" y="335.74" width="916.55" height="142.35" rx="62.14"/><rect class="d" x="427.67" y="335.74" width="916.55" height="142.35" rx="62.14"/><rect class="d" x="420.13" y="335.74" width="916.55" height="142.35" rx="62.14"/><rect class="d" x="435.81" y="335.74" width="916.55" height="142.35" rx="62.14"/><rect class="c" x="459.19" y="335.74" width="916.55" height="142.35" rx="62.14"/><rect class="d" x="466.93" y="335.74" width="916.55" height="142.35" rx="62.14"/><rect class="d" x="449.17" y="335.74" width="916.55" height="142.35" rx="62.14"/><rect class="d" x="427.67" y="335.74" width="916.55" height="142.35" rx="62.14"/><rect class="c" x="405.43" y="335.74" width="916.55" height="142.35" rx="62.14"/><rect class="c" x="389.29" y="335.74" width="916.55" height="142.35" rx="62.14"/><rect class="c" x="378.93" y="335.74" width="916.55" height="142.35" rx="62.14"/><rect class="c" x="378.93" y="346.24" width="916.55" height="142.35" rx="62.14"/><rect class="d" x="389.29" y="323.21" width="916.55" height="142.35" rx="62.14"/><rect class="c" x="328.08" y="494.06" width="916.55" height="142.35" rx="62.14"/><rect class="c" x="350.79" y="494.06" width="916.55" height="142.35" rx="62.14"/><rect class="c" x="370.28" y="500.93" width="916.55" height="142.35" rx="62.14"/><rect class="c" x="350.79" y="494.06" width="916.55" height="142.35" rx="62.14"/><rect class="c" x="328.08" y="488.59" width="916.55" height="142.35" rx="62.14"/><rect class="c" x="341.58" y="488.59" width="916.55" height="142.35" rx="62.14"/><rect class="c" x="328.08" y="488.59" width="916.55" height="142.35" rx="62.14"/><rect class="c" x="341.58" y="488.59" width="916.55" height="142.35" rx="62.14"/><rect class="c" x="370.28" y="488.59" width="916.55" height="142.35" rx="62.14"/><rect class="c" x="378.93" y="488.59" width="916.55" height="142.35" rx="62.14"/><rect class="c" x="350.79" y="494.06" width="916.55" height="142.35" rx="62.14"/><rect class="c" x="328.08" y="500.93" width="916.55" height="142.35" rx="62.14"/><rect class="c" x="316.18" y="500.93" width="916.55" height="142.35" rx="62.14"/><rect class="c" x="335.68" y="500.93" width="916.55" height="142.35" rx="62.14"/><rect class="c" x="361.17" y="500.93" width="916.55" height="142.35" rx="62.14"/><rect class="c" x="378.93" y="500.93" width="916.55" height="142.35" rx="62.14"/><rect class="c" x="361.17" y="500.93" width="916.55" height="142.35" rx="62.14"/><rect class="d" x="341.58" y="500.93" width="916.55" height="142.35" rx="62.14"/><rect class="d" x="241.28" y="500.93" width="943.77" height="142.35" rx="62.14"/><rect class="c" x="335.68" y="500.93" width="916.55" height="142.35" rx="62.14"/><rect class="c" x="361.17" y="500.93" width="916.55" height="142.35" rx="62.14"/><rect class="c" x="378.93" y="500.93" width="916.55" height="142.35" rx="62.14"/><path class="c" d="M986.09,494.06h268.49c73.49,0,125.79,28.47,181.25,83.16l231.43,209.83"/><path class="d" d="M993.66,488.59h268.48c73.5,0,125.8,28.47,181.26,83.16l231.42,209.83"/><path class="c" d="M981.39,500.93h268.49c73.49,0,125.79,28.47,181.25,83.16l231.43,209.84"/><path class="d" d="M991.46,494.06H1260c73.5,0,125.79,28.47,181.26,83.16l221.35,209.83"/><path class="d" d="M1005.46,494.06H1274c73.5,0,125.79,28.47,181.26,83.16l207.35,209.83"/><path class="d" d="M1013.68,494.06h268.48c73.5,0,125.8,28.47,181.26,83.16l199.14,209.83"/><path class="c" d="M1021.68,494.06h268.48c73.5,0,125.8,28.47,181.26,83.16l191.14,209.83"/><path class="c" d="M1018.27,488.59h268.48c73.5,0,125.8,28.47,181.26,83.16L1687.33,782"/><path class="d" d="M1025.13,489.91h268.49c73.49,0,125.79,28.47,181.25,83.16L1687.33,782"/><path class="c" d="M1031.63,489.91h268.49c73.49,0,125.79,28.47,181.25,83.16l181.19,209.84"/><path class="c" d="M1038.13,488.59h268.49c73.49,0,125.79,28.47,181.25,83.16L1687.33,782"/><path class="c" d="M616,465.56H347.46c-73.49,0-125.79-28.47-181.25-83.17L-95.31,172.56"/><path class="d" d="M608.63,478.09H340.14c-73.5,0-125.79-28.47-181.25-83.16L-95.31,185.1"/><path class="d" d="M616,478.09H347.46c-73.49,0-125.79-28.47-181.25-83.16L-95.31,185.1"/><path class="d" d="M603.05,478.09H334.56c-73.49,0-125.79-28.47-181.25-83.16L-95.31,185.1"/><path class="c" d="M577.77,478.09H309.29c-73.5,0-125.8-28.47-181.26-83.16L-95.31,185.1"/><path class="d" d="M585.86,478.09H317.37c-73.49,0-125.79-28.47-181.25-83.16L-95.31,185.1"/><path class="d" d="M565.73,478.09H297.25c-73.5,0-125.8-28.47-181.26-83.16L-117.72,164.48"/><path class="d" d="M593.6,478.09H325.11c-73.5,0-125.79-28.47-181.25-83.16L-95.31,185.1"/><path class="d" d="M596.8,478.09H328.31c-73.49,0-125.79-28.47-181.25-83.16L-95.31,185.1"/><path class="c" d="M605.05,478.09H336.56c-73.49,0-125.79-28.47-181.25-83.16L-95.31,185.1"/><path class="c" d="M600.26,478.09H331.78c-73.5,0-125.79-28.47-181.26-83.16L-95.31,185.1"/><path class="d" d="M591.37,478.09H322.88c-73.49,0-125.79-28.47-181.25-83.16L-95.31,185.1"/><path class="c" d="M585.86,478.09H317.37c-73.49,0-125.79-28.47-181.25-83.16L-95.31,185.1"/><path class="d" d="M639.82,478.09H371.33c-73.49,0-125.79-28.47-181.25-83.16L-95.31,185.1"/><path class="d" d="M639.82,478.09H371.33c-73.49,0-125.79-28.47-181.25-83.16l-317-237.3"/><path class="d" d="M-165.87,857.71s398.84-97.92,459-115.1,123-37.8,163.37-73.88c25-22.3,121.24-95.85,187.64-148.25,46.86-37,69.72-42.39,173.32-42.39"/></g><path class="e" d="M655.87,527.37a22,22,0,0,1,10.2,2.1,19.33,19.33,0,0,1,6.6,5.3,20,20,0,0,1,3.6,7.3,31.88,31.88,0,0,1,1,8,34.77,34.77,0,0,1-.4,5.5,19.31,19.31,0,0,1-1.5,5.2,16.09,16.09,0,0,1-3,4.5,17.36,17.36,0,0,1-5,3.6,28.44,28.44,0,0,1-7.6,2.3,55.86,55.86,0,0,1-10.6.7h-23.4c-.3,0-.5,0-.5.1a1.21,1.21,0,0,0-.1.5l.1,37.8a.53.53,0,0,1-.6.6h-.9a.53.53,0,0,1-.6-.6l.1-82.4a.47.47,0,0,1,.5-.5Zm-3.1,42.3a36,36,0,0,0,8.6-.9,22.83,22.83,0,0,0,6.1-2.4,13.57,13.57,0,0,0,4-3.4,19.08,19.08,0,0,0,2.4-4.1,18.48,18.48,0,0,0,1.1-4.5,34,34,0,0,0,.3-4.5,33.36,33.36,0,0,0-.3-4.3,18.35,18.35,0,0,0-1.2-4.6,25.83,25.83,0,0,0-2.2-4.4,15.68,15.68,0,0,0-3.5-3.8,15.32,15.32,0,0,0-5.1-2.6,20.28,20.28,0,0,0-6.8-1h-30.5c-.2,0-.4,0-.4.1a1.21,1.21,0,0,0-.1.5l.1,39.3c0,.3,0,.5.1.6s.2.1.6.1h26.8Z"/><path class="e" d="M743.77,610.17c.2.4,0,.6-.3.6h-.9a.85.85,0,0,1-.6-.2,2.19,2.19,0,0,1-.3-.5L730,581.37a3.22,3.22,0,0,0-.4-.7c-.1-.1-.4-.1-.8-.1h-38.3a2.24,2.24,0,0,0-1,.1,2.49,2.49,0,0,0-.5.7l-11.7,28.7c-.2.4-.4.6-.8.6h-1c-.3,0-.5-.1-.5-.2a1.09,1.09,0,0,1,.1-.5l33.6-82.4c.1-.3.3-.5.5-.5h1c.2,0,.4.2.5.5Zm-33.5-78.8c-.2-.3-.3-.5-.6-.5s-.4.2-.6.5l-18.8,46.7c-.2.4-.3.7-.2.8s.3.1.8.1H728c.5,0,.8,0,.8-.1s0-.3-.2-.8Z"/><path class="e" d="M804.37,528.67a.47.47,0,0,1-.5.5h-26.2c-.3,0-.5,0-.5.1a1.21,1.21,0,0,0-.1.5l.1,80.5a.53.53,0,0,1-.6.6h-.9a.53.53,0,0,1-.6-.6l.1-80.4c0-.3,0-.5-.1-.6s-.2-.1-.5-.1h-26.2c-.4,0-.6-.2-.6-.5v-.8c0-.3.2-.5.6-.5H804a.47.47,0,0,1,.5.5v.8Z"/><path class="e" d="M869.77,528.67a.47.47,0,0,1-.5.5h-26.2c-.3,0-.5,0-.5.1a1.21,1.21,0,0,0-.1.5l.1,80.5a.53.53,0,0,1-.6.6h-.9a.53.53,0,0,1-.6-.6l.1-80.4c0-.3,0-.5-.1-.6s-.2-.1-.5-.1h-26.2c-.4,0-.6-.2-.6-.5v-.8c0-.3.2-.5.6-.5h55.6a.47.47,0,0,1,.5.5v.8Z"/><path class="e" d="M929,610.17a.53.53,0,0,1-.6.6h-48a.53.53,0,0,1-.6-.6l.1-82.4a.47.47,0,0,1,.5-.5h46.5c.4,0,.6.2.6.5v.8c0,.3-.2.5-.6.5h-44.3c-.4,0-.7,0-.7.1s-.1.3-.1.7l.1,33.2c0,.5,0,.7.1.8s.3.1.8.1h40.5c.4,0,.6.1.6.4v.8c0,.3-.2.5-.6.5h-40.7c-.3,0-.6,0-.6.1s-.1.2-.1.6l.2,41.2c0,.4,0,.7.1.7s.3.1.8.1h45.4a.53.53,0,0,1,.6.6v1.2Z"/><path class="e" d="M1003.27,610.17c.3.4.1.6-.5.6h-1.2c-.3,0-.5,0-.6-.1s-.3-.2-.5-.5l-32-38a1.75,1.75,0,0,0-1.4-.7h-23.4c-.4,0-.7,0-.8.1s-.1.3-.1.7l.1,37.8a.53.53,0,0,1-.6.6h-.9a.53.53,0,0,1-.6-.6l.1-82.4a.47.47,0,0,1,.5-.5h31.4a20.94,20.94,0,0,1,8.9,1.9,21.64,21.64,0,0,1,7.2,5,23.31,23.31,0,0,1,4.9,7.4,22.47,22.47,0,0,1,1.8,8.9,20,20,0,0,1-1.7,8.2,21.05,21.05,0,0,1-4.9,6.6,23.21,23.21,0,0,1-7.5,4.4,26.7,26.7,0,0,1-9.5,1.6c-.4,0-.7,0-.9.2s-.2.3-.1.4Zm-31.8-40.6a25,25,0,0,0,8.8-1.5,21.42,21.42,0,0,0,7-4.2,17.93,17.93,0,0,0,4.5-6.1,16.44,16.44,0,0,0,1.6-7.2,19.34,19.34,0,0,0-1.6-7.7,19.63,19.63,0,0,0-4.5-6.9,21.42,21.42,0,0,0-7.1-4.9,21.8,21.8,0,0,0-9.3-1.9h-27.7c-.3,0-.5,0-.5.1a2.18,2.18,0,0,0-.1.6l.1,38.8c0,.5,0,.7.1.8s.3.1.8.1Z"/><path class="e" d="M1072.57,610.17c0,.4-.3.6-.8.6h-1.2a1.48,1.48,0,0,1-.7-.1,3.08,3.08,0,0,1-.6-.6l-52.9-80.4c-.1-.1-.2-.2-.3-.1s-.2.1-.2.3l.1,80.2a.53.53,0,0,1-.6.6h-.9a.53.53,0,0,1-.6-.6l.1-82.4a.47.47,0,0,1,.5-.5h1.9c.3,0,.5,0,.6.1s.2.2.3.4l52.5,78.9a.37.37,0,0,0,.3.1.52.52,0,0,0,.2-.4l.1-78.6a.47.47,0,0,1,.5-.5h1a.47.47,0,0,1,.5.5Z"/><path class="e" d="M1143.07,587.07a23.39,23.39,0,0,1-2.4,10,24.23,24.23,0,0,1-6.2,7.7,27.47,27.47,0,0,1-9.1,4.9,33.34,33.34,0,0,1-11,1.7,38,38,0,0,1-9.5-1.1,27.32,27.32,0,0,1-15.9-10.8,36,36,0,0,1-5.1-10.6c-.2-.6-.3-1-.1-1a1.27,1.27,0,0,1,.6-.1h.8a1.45,1.45,0,0,1,.7.2,2.56,2.56,0,0,1,.4.9,31.6,31.6,0,0,0,9.4,14.2,27.15,27.15,0,0,0,8.1,4.8,24.55,24.55,0,0,0,10.3,1.5,36.21,36.21,0,0,0,10.6-1.8,28.14,28.14,0,0,0,8.4-4.5,19,19,0,0,0,5.5-6.8,21,21,0,0,0,2.1-8.7,19.08,19.08,0,0,0-1-6.6,16.2,16.2,0,0,0-2.8-5,17,17,0,0,0-4.1-3.5,31.16,31.16,0,0,0-4.9-2.3,31.81,31.81,0,0,0-5.1-1.3,27.41,27.41,0,0,0-4.8-.4,56.62,56.62,0,0,1-13.9-2.3,27.29,27.29,0,0,1-9.2-4.6,16.37,16.37,0,0,1-5.1-6.5,20.63,20.63,0,0,1-1.6-7.9,17.34,17.34,0,0,1,2-8.1,22.6,22.6,0,0,1,5.4-6.5,26.34,26.34,0,0,1,7.7-4.3,27.42,27.42,0,0,1,9-1.5,33.69,33.69,0,0,1,9,1.2,28.6,28.6,0,0,1,8.2,3.5,26.41,26.41,0,0,1,6.6,5.9,25.89,25.89,0,0,1,4.4,8.2c.2.6.2,1,.1,1.1a2,2,0,0,1-1.1.2h0c-.4,0-.7-.1-.7-.2a4.28,4.28,0,0,0-.3-1,18.39,18.39,0,0,0-2.9-6,23.41,23.41,0,0,0-5.4-5.5,28.83,28.83,0,0,0-7.6-4,29.29,29.29,0,0,0-9.6-1.5,26.73,26.73,0,0,0-8.6,1.4,24.17,24.17,0,0,0-7.1,3.8,19.06,19.06,0,0,0-4.9,5.7,17.25,17.25,0,0,0-2.1,7,14.82,14.82,0,0,0,.9,6.8,16.22,16.22,0,0,0,3.2,5.2,18.07,18.07,0,0,0,4.9,3.7,38.7,38.7,0,0,0,5.9,2.5,48,48,0,0,0,6.3,1.5c2.1.3,4.2.5,6.1.6a38.12,38.12,0,0,1,9.8,1.5,24.41,24.41,0,0,1,6.9,3.1,17.81,17.81,0,0,1,4.5,4,20.28,20.28,0,0,1,2.6,4.4,28.31,28.31,0,0,1,1.3,4.2C1142.87,585.07,1143,586.17,1143.07,587.07Z"/><path class="e" d="M772.57,367.17c0,.2,0,.4-.1.4s-.2.1-.5.1h-44.4c-.4,0-.6,0-.7.1s-.1.3-.1.7l.1,33.2c0,.5,0,.7.1.8s.3.1.8.1h40.5c.4,0,.6.1.6.4v.8c0,.3-.2.5-.6.5h-40.7c-.3,0-.6,0-.6.1s-.1.2-.1.6l.2,43.7c0,.2,0,.3.1.4s-.2.2-.8.2h-1a.53.53,0,0,1-.6-.6l.1-82.4a.47.47,0,0,1,.5-.5h46.5c.4,0,.6.2.6.5v.9Z"/><path class="e" d="M836.77,448.67a.76.76,0,0,1-.2.5c-.1.1-.4.1-.7.1h-51.1a.53.53,0,0,1-.6-.6l.1-82.4a.47.47,0,0,1,.5-.5h1a.47.47,0,0,1,.5.5l.1,79.9c0,.4,0,.7.1.8s.3.1.8.1H836c.5,0,.8.2.8.6v1Z"/><path class="e" d="M849.67,366.37a.47.47,0,0,1,.5-.5h1a.47.47,0,0,1,.5.5l.1,82.4a.53.53,0,0,1-.6.6h-.9a.53.53,0,0,1-.6-.6Z"/><path class="e" d="M938.27,414.67a31.7,31.7,0,0,1-1.7,7.6,40.7,40.7,0,0,1-3.8,7.9,48.74,48.74,0,0,1-5.6,7.5,39.84,39.84,0,0,1-7.3,6.3,37.84,37.84,0,0,1-8.8,4.3,31.14,31.14,0,0,1-10.2,1.6,34.12,34.12,0,0,1-14.5-3.2,38.62,38.62,0,0,1-11.9-9,41.25,41.25,0,0,1-8-13.7,49.07,49.07,0,0,1-2.9-17.5,47.06,47.06,0,0,1,2.9-16.6,41.15,41.15,0,0,1,8-13.1,37.38,37.38,0,0,1,11.9-8.6,34,34,0,0,1,14.5-3.1,29.37,29.37,0,0,1,10.4,1.9,38.76,38.76,0,0,1,9.9,5.1,43.68,43.68,0,0,1,8.4,7.7,40.07,40.07,0,0,1,5.9,9.6c.1.3.2.5.1.6a.52.52,0,0,1-.2.4c-.1.1-.1.2-.2.2h-.7a.77.77,0,0,1-.3-.1c-.2,0-.3-.2-.4-.5a37.78,37.78,0,0,0-5.6-9.2,38.45,38.45,0,0,0-7.8-7.3,37.67,37.67,0,0,0-9.3-4.9,28.65,28.65,0,0,0-9.9-1.7,33.69,33.69,0,0,0-9,1.2,31.35,31.35,0,0,0-8.4,3.6,39.9,39.9,0,0,0-7.3,5.7,36.61,36.61,0,0,0-5.7,7.7,41.12,41.12,0,0,0-3.8,9.4,47.89,47.89,0,0,0-1.5,11A51.86,51.86,0,0,0,868,422a43.89,43.89,0,0,0,7.3,13.5,35.11,35.11,0,0,0,11.2,9.1,31.74,31.74,0,0,0,14.4,3.3,30.15,30.15,0,0,0,12.7-2.7,37.59,37.59,0,0,0,10.4-7.1,40,40,0,0,0,7.6-10.1,43.55,43.55,0,0,0,4.3-11.5.78.78,0,0,0-.4-1.1,7.75,7.75,0,0,0-1.9-.2h-23.7q-.75,0-.9-.3a1.27,1.27,0,0,1-.1-.6v.1a1.27,1.27,0,0,1,.1-.6q.15-.3.9-.3H937a2,2,0,0,1,.9.2C938.17,413.77,938.27,414.07,938.27,414.67Z"/><path class="e" d="M1007.17,448.67a.53.53,0,0,1-.6.6h-.9a.53.53,0,0,1-.6-.6l.1-43.4c0-.5,0-.7-.1-.8s-.3-.1-.8-.1h-53.4c-.5,0-.7,0-.8.1s-.1.3-.1.8l.1,43.4a.53.53,0,0,1-.6.6h-.9a.53.53,0,0,1-.6-.6l.1-82.4a.47.47,0,0,1,.5-.5h1a.47.47,0,0,1,.5.5l.1,35.4c0,.4,0,.7.1.8s.3.1.7.1h53.7c.4,0,.7,0,.7-.1s.1-.3.1-.8l.1-35.4a.47.47,0,0,1,.5-.5h1a.47.47,0,0,1,.5.5Z"/><path class="e" d="M1073.77,367.17a.47.47,0,0,1-.5.5h-26.2c-.3,0-.5,0-.5.1a1.21,1.21,0,0,0-.1.5l.1,80.5a.53.53,0,0,1-.6.6h-.9a.53.53,0,0,1-.6-.6v-80.5c0-.3,0-.5-.1-.6s-.2-.1-.5-.1h-26.2c-.4,0-.6-.2-.6-.5v-.8c0-.3.2-.5.6-.5h55.6a.47.47,0,0,1,.5.5Z"/></svg>