<svg xmlns="http://www.w3.org/2000/svg" width="744.05" height="132.7" viewBox="0 0 744.05 132.7"><defs><style>.a{fill:#6bc1b5;}.b{fill:#f3e600;}</style></defs><title>landing_takeoff</title><path class="a" d="M404.5,132.7v-2c.6,0,56.2-.2,72.9-.2,71.6,0,130.6-31.6,168.8-55.4l1.1,1.7c-28.1,17.5-54,30.4-79.1,39.3-30.7,11-60.4,16.3-90.8,16.3C460.7,132.4,405.1,132.7,404.5,132.7Z"/><path class="b" d="M143.2,92.4C97.8,72.2,57,42.6,20.9,16.6,13.7,11.4,6.8,6.4,0,1.6L1.2,0c6.9,4.9,13.7,9.8,21,15C58.2,41,99,70.5,144.1,90.6Z"/><path class="a" d="M736.1,9.9c6.3-.8,11.6,2.1,4.7,8.1-24.9,21.5-63.6,45.7-63.6,45.7l-24.3,3.8L633.7,54.6a30.33,30.33,0,0,1,14.9-2.3,64.29,64.29,0,0,1,16.5,4l10.8-8.2L639.4,34.9l6.4-4.8,56.3-1.9S718.7,17,722.5,14.3C727.5,10.8,731.6,10.5,736.1,9.9Z"/><path class="b" d="M263.4,113.6c5.1,4.5,6.7,11-2.8,10-34.2-3.7-80.4-16.4-80.4-16.4L159.9,90.4l-4-25.4a32.5,32.5,0,0,1,12.5,10.3,72.16,72.16,0,0,1,8.8,16.4l14,2.5L175,54.5l8.2,1.5,42,44.1s20.5,4.8,25.2,5.8C256.5,107.2,259.7,110.4,263.4,113.6Z"/><ellipse class="b" cx="186" cy="115" rx="3.3" ry="3.5"/><ellipse class="b" cx="195.3" cy="117.2" rx="3.3" ry="3.5"/><ellipse class="b" cx="246.1" cy="127.2" rx="3.3" ry="3.5"/></svg>