<svg xmlns="http://www.w3.org/2000/svg" width="579.8" height="533.7" viewBox="0 0 579.8 533.7">
	<defs>
		<style>
			.a{fill:#fff;}
			.b{fill:url(#a);}
			.c{fill:url(#b);}
			.d{fill:url(#c);}
			.e{fill:url(#d);}
			.f{fill:url(#e);}
			.g{fill:url(#f);}
			.h{fill:url(#g);}
			.i{fill:url(#h);}
			.j{fill:url(#i);}
			.k{fill:url(#j);}
			.l{fill:url(#k);}
			.m{fill:url(#l);}
			.n{fill:url(#m);}
			.o{fill:url(#n);}
			.p{fill:#e61f54;}
			.q{fill:#9870af;}
			.r{fill:#f3e600;}
			.s{fill:#6bc1b5;}
			.t{fill:#4b59a4;}
			.u{fill:url(#o);}
		</style>
		<linearGradient id="a" x1="-6102.56" y1="-4647.81" x2="-6102.56" y2="-5059.15" gradientTransform="matrix(0.5, -0.87, -0.87, -0.5, -884.04, -7443.03)" gradientUnits="userSpaceOnUse"><stop offset="0" stop-color="#4b59a4"/><stop offset="1" stop-color="#9870ae"/></linearGradient>
		<linearGradient id="b" x1="-13559.88" y1="-1597.9" x2="-13559.88" y2="-2009.24" gradientTransform="matrix(-0.5, -0.87, -0.87, 0.5, -8074.04, -10573.4)" gradientUnits="userSpaceOnUse"><stop offset="0" stop-color="#6bc1b5"/><stop offset="1" stop-color="#e61f54"/></linearGradient>
		<linearGradient id="c" x1="267.8" y1="285.97" x2="267.8" y2="-125.33" gradientTransform="matrix(1, 0, 0, -1, 0, 348.87)" gradientUnits="userSpaceOnUse"><stop offset="0" stop-color="#fff"/><stop offset="1" stop-color="#f3e600"/></linearGradient>
		<linearGradient id="d" x1="-655.92" y1="8010.07" x2="-478.59" y2="8010.07" gradientTransform="matrix(0.51, 0.86, 0.86, -0.51, -6164.49, 4840.53)" gradientUnits="userSpaceOnUse"><stop offset="0" stop-color="#e61f54"/><stop offset="1" stop-color="#9870ae"/></linearGradient>
		<linearGradient id="e" x1="-2342.32" y1="6850.58" x2="-2165" y2="6850.58" gradientTransform="matrix(-1, 0, 0, 1, -2104.81, -6413.88)" gradientUnits="userSpaceOnUse"><stop offset="0" stop-color="#f3e600"/><stop offset="1" stop-color="#6bc1b5"/></linearGradient>
		<linearGradient id="f" x1="-1715.42" y1="5741.23" x2="-1538.18" y2="5741.23" gradientTransform="matrix(-0.5, -0.87, -0.87, 0.5, 4242.51, -4012.49)" gradientUnits="userSpaceOnUse"><stop offset="0" stop-color="#6bc1b5"/><stop offset="1" stop-color="#376cb4"/></linearGradient>
		<linearGradient id="g" x1="265.9" y1="131.92" x2="442.5" y2="131.92" gradientTransform="matrix(1, 0, 0, -1, 0, 356.73)" gradientUnits="userSpaceOnUse"><stop offset="0" stop-color="#fff"/><stop offset="1" stop-color="#9870af"/></linearGradient>
		<linearGradient id="h" x1="-722.59" y1="8010.82" x2="-545.97" y2="8010.82" gradientTransform="matrix(0.51, 0.86, 0.86, -0.51, -6208.93, 4963.39)" gradientUnits="userSpaceOnUse"><stop offset="0" stop-color="#e61f54"/><stop offset="0.99" stop-color="#f3e600"/></linearGradient>
		<linearGradient id="i" x1="-14561.19" y1="6159.3" x2="-14384.54" y2="6159.3" gradientTransform="matrix(-1, 0.01, 0.01, 1, -14348.06, -5701.89)" gradientUnits="userSpaceOnUse"><stop offset="0" stop-color="#f3e600"/><stop offset="1" stop-color="#4b59a4"/></linearGradient>
		<linearGradient id="j" x1="-13522.7" y1="-1971.27" x2="-13345.98" y2="-1971.27" gradientTransform="matrix(-0.5, -0.86, -0.86, 0.5, -8305.69, -10378.61)" gradientUnits="userSpaceOnUse"><stop offset="0" stop-color="#6bc1b5"/><stop offset="1" stop-color="#fff"/></linearGradient>
		<linearGradient id="k" x1="-6091.55" y1="-5139.49" x2="-5914.96" y2="-5139.49" gradientTransform="matrix(0.49, -0.87, -0.87, -0.49, -1232.53, -7586.45)" gradientUnits="userSpaceOnUse"><stop offset="0.01" stop-color="#4b59a4"/><stop offset="1" stop-color="#e61f54"/></linearGradient>
		<linearGradient id="l" x1="266" y1="234.67" x2="443.3" y2="234.67" gradientTransform="matrix(1, 0, 0, -1, 0, 356.73)" gradientUnits="userSpaceOnUse"><stop offset="0" stop-color="#fff"/><stop offset="1" stop-color="#e61f54"/></linearGradient>
		<linearGradient id="m" x1="-7994.28" y1="10964.31" x2="-7816.95" y2="10964.31" gradientTransform="matrix(-0.49, 0.87, 0.87, 0.49, -13084.97, 1876.18)" gradientUnits="userSpaceOnUse"><stop offset="0" stop-color="#9870af"/><stop offset="1" stop-color="#f3e600"/></linearGradient>
		<linearGradient id="n" x1="-5626.27" y1="-5523.41" x2="-5448.92" y2="-5523.41" gradientTransform="matrix(0.49, -0.87, -0.87, -0.49, -1881.11, -7421.88)" gradientUnits="userSpaceOnUse"><stop offset="0" stop-color="#4b59a4"/><stop offset="0.18" stop-color="#676fb3"/><stop offset="0.57" stop-color="#aeafd8"/><stop offset="1" stop-color="#fff"/></linearGradient>
		<linearGradient id="o" x1="-8220.82" y1="11057.68" x2="-8043.62" y2="11057.68" gradientTransform="matrix(-0.5, 0.87, 0.87, 0.5, -13374.15, 1904.7)" gradientUnits="userSpaceOnUse"><stop offset="0" stop-color="#9870af"/><stop offset="1" stop-color="#6bc1b5"/></linearGradient>
	</defs>
	<path class="a" d="M31.3,408.07a.92.92,0,0,1-1,.9.88.88,0,0,1-1-1c-.2-3.4-3.1-5.5-6.4-5.5h-.3a5.93,5.93,0,0,0-6.1,6.1c0,4.2,3.1,5.7,8.2,8.1,3.8,1.8,7.1,4,7.1,9.3,0,5-3.7,8.3-8.6,8.3h-.4c-4.7,0-8.8-3.2-8.8-8.6a.94.94,0,0,1,1-1,1,1,0,0,1,1.1,1c0,4.2,3.2,6.6,6.8,6.6h.4c3.8,0,6.6-2.4,6.6-6.3s-2.6-6-6-7.6c-5.6-2.5-9.3-4.4-9.3-9.8a7.93,7.93,0,0,1,8.2-8h.3c4.9,0,8.4,3.5,8.4,7.3v.2Z" transform="translate(0 -7.87)"/>
	<path class="a" d="M53.6,427a7.41,7.41,0,0,1-7.5,7.4h-.5a7.34,7.34,0,0,1-7.5-7.4v-9.3a7.34,7.34,0,0,1,7.5-7.4h.5a7.41,7.41,0,0,1,7.5,7.4Zm-13.4,0a5.42,5.42,0,0,0,5.5,5.5h.5a5.42,5.42,0,0,0,5.5-5.5v-9.3a5.42,5.42,0,0,0-5.5-5.5h-.5a5.42,5.42,0,0,0-5.5,5.5Z" transform="translate(0 -7.87)"/>
	<path class="a" d="M76.5,433.47c0,.6-.4.9-1,.9s-1-.3-1-.9v-2.1a6.5,6.5,0,0,1-5.5,3h-.5a7.38,7.38,0,0,1-7.4-7.4v-15.7c0-.6.4-.9,1-.9s1,.3,1,.9v15.6a5.45,5.45,0,0,0,5.5,5.6H69c3.1,0,5.5-3,5.5-5.9v-15.3c0-.6.4-.9,1-.9s1,.3,1,.9Z" transform="translate(0 -7.87)"/>
	<path class="a" d="M87.9,410.57h4.5a.84.84,0,0,1,.9.9c0,.6-.3,1-.9,1H87.9v15.8a3.81,3.81,0,0,0,3.9,4h.5a1,1,0,0,1,0,2h-.6a5.7,5.7,0,0,1-5.8-5.9v-15.8H83.3a.92.92,0,0,1-.9-1,.9.9,0,0,1,.9-.9h2.6v-9c0-.6.4-.9,1-.9s1,.3,1,.9Z" transform="translate(0 -7.87)"/>
	<path class="a" d="M114.4,433.47c0,.6-.4.9-1,.9s-1-.3-1-.9v-15.6a5.51,5.51,0,0,0-5.5-5.6h-.3a5.92,5.92,0,0,0-5.6,5.9v15.3c0,.6-.4.9-1,.9s-1-.3-1-.9v-31.9c0-.6.4-.9,1-.9s1,.3,1,.9v11.7a7.17,7.17,0,0,1,5.5-2.9h.4a7.37,7.37,0,0,1,7.5,7.5Z" transform="translate(0 -7.87)"/>
	<path class="a" d="M122.8,422.17a1,1,0,0,1-1-1,.94.94,0,0,1,1-1h9.4a1,1,0,0,1,1,1,.94.94,0,0,1-1,1Z" transform="translate(0 -7.87)"/>
	<path class="a" d="M15.6,477c0,1.7.2,3.2,1.9,3.4a.89.89,0,0,1,.9,1,.92.92,0,0,1-.9,1h-.2c-2.4,0-3.3-2.1-3.5-3.8a7.59,7.59,0,0,1-6.5,3.8H7.1c-3.9,0-7.1-2.1-7.1-6.5v-.3a5.48,5.48,0,0,1,2.8-5c1.9-1.2,4.8-1.7,8-2.3,2-.3,2.6-1.3,2.6-2.2v-.5a5.1,5.1,0,0,0-5.2-5.2H8a5,5,0,0,0-5.2,3.7c-.1.5-.5.6-.9.6a.94.94,0,0,1-1-1,2.84,2.84,0,0,1,.4-1.3,7.24,7.24,0,0,1,6.7-3.9h.2a7,7,0,0,1,7.2,7V477Zm-2-8.1A6.2,6.2,0,0,1,11,470c-2.9.6-8.9,1.1-8.9,5.5v.3c0,3,1.9,4.7,5.1,4.7h.2a6.21,6.21,0,0,0,6.2-6.4Z" transform="translate(0 -7.87)"/>
	<path class="a" d="M26.2,461.27a7,7,0,0,1,5.6-3h.4a7.48,7.48,0,0,1,6.4,3.7,7.65,7.65,0,0,1,6.5-3.7h.5a7.34,7.34,0,0,1,7.4,7.5v15.6c0,.6-.4.9-1,.9s-1-.3-1-.9v-15.7a5.48,5.48,0,0,0-5.5-5.5h-.4a5.51,5.51,0,0,0-5.6,5.5v15.7c0,.6-.4.9-1,.9s-1-.3-1-.9v-15.7a5.4,5.4,0,0,0-5.4-5.5h-.4a5.79,5.79,0,0,0-5.5,5.7v15.6c0,.6-.4.9-1,.9s-1-.3-1-.9v-22.2c0-.6.4-.9,1-.9s1,.3,1,.9Z" transform="translate(0 -7.87)"/>
	<path class="a" d="M67.9,482.37a7.34,7.34,0,0,1-7.5-7.4v-9.3a7.34,7.34,0,0,1,7.5-7.4h.4a7.41,7.41,0,0,1,7.5,7.4v4.7a.92.92,0,0,1-1,.9H62.5V475a5.42,5.42,0,0,0,5.5,5.5h.5a5.36,5.36,0,0,0,5.2-3.6c.1-.3.4-.5.9-.5a1,1,0,0,1,1,1,1.67,1.67,0,0,1-.3.9,7.35,7.35,0,0,1-6.8,4.2h-.6Zm5.9-16.7a5.42,5.42,0,0,0-5.5-5.5h-.4a5.42,5.42,0,0,0-5.5,5.5v3.7H73.7v-3.7Z" transform="translate(0 -7.87)"/>
	<path class="a" d="M85.1,461.17a6,6,0,0,1,4.9-2.9,6.12,6.12,0,0,1,5.1,2.4,1.42,1.42,0,0,1,.2.6.94.94,0,0,1-1,1,.85.85,0,0,1-.6-.3,4.65,4.65,0,0,0-3.8-1.8c-2.8,0-4.8,3.6-4.8,5.7v15.5c0,.6-.4.9-1,.9s-1-.3-1-.9v-22.2c0-.6.4-.9,1-.9s1,.3,1,.9Z" transform="translate(0 -7.87)"/>
	<path class="a" d="M102.6,481.47c0,.6-.4.9-1,.9s-1-.3-1-.9v-22.2c0-.6.4-.9,1-.9s1,.3,1,.9Zm-2-29.9a.92.92,0,0,1,1-.9,1,1,0,0,1,1,.9v2.2a1,1,0,0,1-2,0Z" transform="translate(0 -7.87)"/>
	<path class="a" d="M117.7,460.17a5.34,5.34,0,0,0-5.4,5.5V475a5.34,5.34,0,0,0,5.4,5.5h.4a5.4,5.4,0,0,0,5.5-5.4.92.92,0,0,1,1-.9,1,1,0,0,1,1,1,7.34,7.34,0,0,1-7.4,7.2h-.4a7.32,7.32,0,0,1-7.4-7.4v-9.3a7.32,7.32,0,0,1,7.4-7.4h.4a7.3,7.3,0,0,1,7.4,7.3.92.92,0,0,1-1,.9,1,1,0,0,1-1-.9,5.46,5.46,0,0,0-5.5-5.4Z" transform="translate(0 -7.87)"/>
	<path class="a" d="M146.5,477c0,1.7.2,3.2,1.9,3.4a.89.89,0,0,1,.9,1,.92.92,0,0,1-.9,1h-.2c-2.4,0-3.3-2.1-3.5-3.8a7.59,7.59,0,0,1-6.5,3.8H138c-3.9,0-7.1-2.1-7.1-6.5v-.3a5.48,5.48,0,0,1,2.8-5c1.9-1.2,4.8-1.7,8-2.3,2-.3,2.6-1.3,2.6-2.2v-.5a5.1,5.1,0,0,0-5.2-5.2h-.2a5,5,0,0,0-5.2,3.7c-.1.5-.5.6-.9.6a.94.94,0,0,1-1-1,2.84,2.84,0,0,1,.4-1.3,7.24,7.24,0,0,1,6.7-3.9h.2a7,7,0,0,1,7.2,7V477Zm-2-8.1a6.2,6.2,0,0,1-2.6,1.1c-2.9.6-8.9,1.1-8.9,5.5v.3c0,3,1.9,4.7,5.1,4.7h.2a6.21,6.21,0,0,0,6.2-6.4Z" transform="translate(0 -7.87)"/>
	<path class="a" d="M33.1,60.67c0-.6.4-.9,1-.9s1,.3,1,.9v31.8a.92.92,0,0,1-1,.9h-.5c-.6,0-.9-.2-1-.6L19,64.47v28.1a1,1,0,0,1-2,0V60.77a.92.92,0,0,1,1-.9h.5a1,1,0,0,1,1,.6l13.6,28.4Z" transform="translate(0 -7.87)"/>
	<path class="a" d="M58.6,86.07a7.41,7.41,0,0,1-7.5,7.4h-.5a7.34,7.34,0,0,1-7.5-7.4v-9.3a7.34,7.34,0,0,1,7.5-7.4h.5a7.41,7.41,0,0,1,7.5,7.4Zm-13.5,0a5.42,5.42,0,0,0,5.5,5.5h.5a5.42,5.42,0,0,0,5.5-5.5v-9.3a5.42,5.42,0,0,0-5.5-5.5h-.5a5.42,5.42,0,0,0-5.5,5.5Z" transform="translate(0 -7.87)"/>
	<path class="a" d="M68.2,72.37a6,6,0,0,1,4.9-2.9,6.12,6.12,0,0,1,5.1,2.4,1.42,1.42,0,0,1,.2.6.94.94,0,0,1-1,1,.85.85,0,0,1-.6-.3,4.65,4.65,0,0,0-3.8-1.8c-2.8,0-4.8,3.6-4.8,5.7v15.5c0,.6-.4.9-1,.9s-1-.3-1-.9V70.37c0-.6.4-.9,1-.9s1,.3,1,.9Z" transform="translate(0 -7.87)"/>
	<path class="a" d="M86.6,69.67h4.5a.84.84,0,0,1,.9.9c0,.6-.3,1-.9,1H86.6v15.8a3.81,3.81,0,0,0,3.9,4H91a1,1,0,0,1,0,2h-.6a5.7,5.7,0,0,1-5.8-5.9V71.67H82a.92.92,0,0,1-.9-1,.9.9,0,0,1,.9-.9h2.6v-9c0-.6.4-.9,1-.9s1,.3,1,.9Z" transform="translate(0 -7.87)"/>
	<path class="a" d="M113.1,92.57c0,.6-.4.9-1,.9s-1-.3-1-.9V77a5.51,5.51,0,0,0-5.5-5.6h-.3a5.92,5.92,0,0,0-5.6,5.9v15.3c0,.6-.4.9-1,.9s-1-.3-1-.9V60.67c0-.6.4-.9,1-.9s1,.3,1,.9v11.7a7.17,7.17,0,0,1,5.5-2.9h.4a7.37,7.37,0,0,1,7.5,7.5Z" transform="translate(0 -7.87)"/>
	<path class="a" d="M121.4,81.37a1,1,0,0,1-1-1,.94.94,0,0,1,1-1h9.4a1,1,0,0,1,1,1,.94.94,0,0,1-1,1Z" transform="translate(0 -7.87)"/>
	<path class="a" d="M15.6,136.17c0,1.7.2,3.2,1.9,3.4a.89.89,0,0,1,.9,1,.92.92,0,0,1-.9,1h-.2c-2.4,0-3.3-2.1-3.5-3.8a7.59,7.59,0,0,1-6.5,3.8H7.1c-3.9,0-7.1-2.1-7.1-6.5v-.3a5.48,5.48,0,0,1,2.8-5c1.9-1.2,4.8-1.7,8-2.3,2-.3,2.6-1.3,2.6-2.2v-.5a5.1,5.1,0,0,0-5.2-5.2H8a5,5,0,0,0-5.2,3.7c-.1.5-.5.6-.9.6a.94.94,0,0,1-1-1,2.84,2.84,0,0,1,.4-1.3,7.24,7.24,0,0,1,6.7-3.9h.2a7,7,0,0,1,7.2,7v11.5Zm-2-8.1a6.2,6.2,0,0,1-2.6,1.1c-2.9.6-8.9,1.1-8.9,5.5v.3c0,3,1.9,4.7,5.1,4.7h.2a6.21,6.21,0,0,0,6.2-6.4Z" transform="translate(0 -7.87)"/>
	<path class="a" d="M26.2,120.47a7,7,0,0,1,5.6-3h.4a7.48,7.48,0,0,1,6.4,3.7,7.65,7.65,0,0,1,6.5-3.7h.5A7.34,7.34,0,0,1,53,125v15.6c0,.6-.4.9-1,.9s-1-.3-1-.9v-15.7a5.48,5.48,0,0,0-5.5-5.5h-.4a5.51,5.51,0,0,0-5.6,5.5v15.7c0,.6-.4.9-1,.9s-1-.3-1-.9v-15.7a5.4,5.4,0,0,0-5.4-5.5h-.4a5.79,5.79,0,0,0-5.5,5.7v15.6c0,.6-.4.9-1,.9s-1-.3-1-.9v-22.3c0-.6.4-.9,1-.9s1,.3,1,.9Z" transform="translate(0 -7.87)"/>
	<path class="a" d="M67.9,141.47a7.34,7.34,0,0,1-7.5-7.4v-9.3a7.34,7.34,0,0,1,7.5-7.4h.4a7.41,7.41,0,0,1,7.5,7.4v4.7a.92.92,0,0,1-1,.9H62.5v3.7a5.42,5.42,0,0,0,5.5,5.5h.5a5.36,5.36,0,0,0,5.2-3.6c.1-.3.4-.5.9-.5a1,1,0,0,1,1,1,1.67,1.67,0,0,1-.3.9,7.35,7.35,0,0,1-6.8,4.2h-.6Zm5.9-16.6a5.42,5.42,0,0,0-5.5-5.5h-.4a5.42,5.42,0,0,0-5.5,5.5v3.7H73.7v-3.7Z" transform="translate(0 -7.87)"/>
	<path class="a" d="M85.1,120.37a6,6,0,0,1,4.9-2.9,6.12,6.12,0,0,1,5.1,2.4,1.42,1.42,0,0,1,.2.6.94.94,0,0,1-1,1,.85.85,0,0,1-.6-.3,4.65,4.65,0,0,0-3.8-1.8c-2.8,0-4.8,3.6-4.8,5.7v15.5c0,.6-.4.9-1,.9s-1-.3-1-.9v-22.2c0-.6.4-.9,1-.9s1,.3,1,.9Z" transform="translate(0 -7.87)"/>
	<path class="a" d="M102.6,140.57c0,.6-.4.9-1,.9s-1-.3-1-.9v-22.2c0-.6.4-.9,1-.9s1,.3,1,.9Zm-2-29.8a.92.92,0,0,1,1-.9,1,1,0,0,1,1,.9V113a1,1,0,0,1-2,0Z" transform="translate(0 -7.87)"/>
	<path class="a" d="M117.7,119.37a5.34,5.34,0,0,0-5.4,5.5v9.3a5.34,5.34,0,0,0,5.4,5.5h.4a5.4,5.4,0,0,0,5.5-5.4.92.92,0,0,1,1-.9,1,1,0,0,1,1,1,7.34,7.34,0,0,1-7.4,7.2h-.4a7.32,7.32,0,0,1-7.4-7.4v-9.3a7.32,7.32,0,0,1,7.4-7.4h.4a7.3,7.3,0,0,1,7.4,7.3.92.92,0,0,1-1,.9,1,1,0,0,1-1-.9,5.46,5.46,0,0,0-5.5-5.4Z" transform="translate(0 -7.87)"/>
	<path class="a" d="M146.5,136.17c0,1.7.2,3.2,1.9,3.4a.89.89,0,0,1,.9,1,.92.92,0,0,1-.9,1h-.2c-2.4,0-3.3-2.1-3.5-3.8a7.59,7.59,0,0,1-6.5,3.8H138c-3.9,0-7.1-2.1-7.1-6.5v-.3a5.48,5.48,0,0,1,2.8-5c1.9-1.2,4.8-1.7,8-2.3,2-.3,2.6-1.3,2.6-2.2v-.5a5.1,5.1,0,0,0-5.2-5.2h-.2a5,5,0,0,0-5.2,3.7c-.1.5-.5.6-.9.6a.94.94,0,0,1-1-1,2.84,2.84,0,0,1,.4-1.3,7.24,7.24,0,0,1,6.7-3.9h.2a7,7,0,0,1,7.2,7v11.5Zm-2-8.1a6.2,6.2,0,0,1-2.6,1.1c-2.9.6-8.9,1.1-8.9,5.5v.3c0,3,1.9,4.7,5.1,4.7h.2a6.21,6.21,0,0,0,6.2-6.4Z" transform="translate(0 -7.87)"/>
	<path class="a" d="M218.7,532.57l-2.4,8.3a1,1,0,0,1-1,.7.94.94,0,0,1-1-1,2.25,2.25,0,0,1,.1-.7l9.3-31.3a1,1,0,0,1,1-.8h.2a1.05,1.05,0,0,1,1.1.8l9.2,31.3a2.81,2.81,0,0,1,.1.8.87.87,0,0,1-1,.9,1.2,1.2,0,0,1-1-.7l-2.4-8.3Zm6.2-21.2-5.6,19.2h11.2Z" transform="translate(0 -7.87)"/>
	<path class="a" d="M244.1,540.67c0,.6-.4.9-1,.9s-1-.3-1-.9v-21h-2.6a.92.92,0,0,1-.9-1,.9.9,0,0,1,.9-.9h2.6v-3.9a5.57,5.57,0,0,1,5.7-5.9h.9a1,1,0,0,1,1.1,1.1,1,1,0,0,1-1,1h-1a3.6,3.6,0,0,0-3.7,3.8v3.9h4.5a.9.9,0,0,1,.9.9.92.92,0,0,1-.9,1h-4.5Z" transform="translate(0 -7.87)"/>
	<path class="a" d="M257,520.37a6,6,0,0,1,4.9-2.9,6.12,6.12,0,0,1,5.1,2.4,1.42,1.42,0,0,1,.2.6.94.94,0,0,1-1,1,.85.85,0,0,1-.6-.3,4.65,4.65,0,0,0-3.8-1.8c-2.8,0-4.8,3.6-4.8,5.7v15.5c0,.6-.4.9-1,.9s-1-.3-1-.9v-22.2c0-.6.4-.9,1-.9s1,.3,1,.9v2Z" transform="translate(0 -7.87)"/>
	<path class="a" d="M274.5,540.67c0,.6-.4.9-1,.9s-1-.3-1-.9v-22.3c0-.6.4-.9,1-.9s1,.3,1,.9Zm-2-29.9a1,1,0,0,1,2,0V513a1,1,0,0,1-2,0Z" transform="translate(0 -7.87)"/>
	<path class="a" d="M289.6,519.37a5.34,5.34,0,0,0-5.4,5.5v9.3a5.34,5.34,0,0,0,5.4,5.5h.4a5.4,5.4,0,0,0,5.5-5.4.92.92,0,0,1,1-.9,1,1,0,0,1,1,1,7.34,7.34,0,0,1-7.4,7.2h-.4a7.32,7.32,0,0,1-7.4-7.4v-9.3a7.32,7.32,0,0,1,7.4-7.4h.4a7.3,7.3,0,0,1,7.4,7.3.92.92,0,0,1-1,.9,1,1,0,0,1-1-.9,5.46,5.46,0,0,0-5.5-5.4Z" transform="translate(0 -7.87)"/>
	<path class="a" d="M318.4,536.17c0,1.7.2,3.2,1.9,3.4a.89.89,0,0,1,.9,1,.92.92,0,0,1-.9,1h-.2c-2.4,0-3.3-2.1-3.5-3.8a7.59,7.59,0,0,1-6.5,3.8H310c-3.9,0-7.1-2.1-7.1-6.5v-.3a5.48,5.48,0,0,1,2.8-5c1.9-1.2,4.8-1.7,8-2.3,2-.3,2.6-1.3,2.6-2.2v-.5a5.1,5.1,0,0,0-5.2-5.2H311a5,5,0,0,0-5.2,3.7c-.1.5-.5.6-.9.6a.94.94,0,0,1-1-1,2.84,2.84,0,0,1,.4-1.3,7.24,7.24,0,0,1,6.7-3.9h.2a7,7,0,0,1,7.2,7v11.5Zm-2-8.1a6.2,6.2,0,0,1-2.6,1.1c-2.9.6-8.9,1.1-8.9,5.5v.3c0,3,1.9,4.7,5.1,4.7h.2a6.21,6.21,0,0,0,6.2-6.4v-5.2Z" transform="translate(0 -7.87)"/>
	<path class="a" d="M419.4,132.47l-2.4,8.3a1,1,0,0,1-1,.7.94.94,0,0,1-1-1,2.25,2.25,0,0,1,.1-.7l9.3-31.3a1,1,0,0,1,1-.8h.2a1.05,1.05,0,0,1,1.1.8l9.2,31.3a2.81,2.81,0,0,1,.1.8.87.87,0,0,1-1,.9,1.2,1.2,0,0,1-1-.7l-2.4-8.3Zm6.2-21.1-5.6,19.2h11.2Z" transform="translate(0 -7.87)"/>
	<path class="a" d="M449.2,128.47c4.2,1.3,6.7,2.9,6.7,6.6,0,4.6-3.5,6.4-7.4,6.4a9,9,0,0,1-7.6-4.2,2.24,2.24,0,0,1-.3-1,1.07,1.07,0,0,1,1-1,1.29,1.29,0,0,1,1.1.7,6.6,6.6,0,0,0,5.9,3.5c3.3,0,5.4-1.4,5.4-4.5,0-2.9-2.5-3.9-5.4-4.8-4-1.3-7.1-2.6-7.1-6.6s3.4-6.1,7.1-6.1a7.77,7.77,0,0,1,6.3,2.6,1.2,1.2,0,0,1,.4.8,1,1,0,0,1-1,1,.73.73,0,0,1-.6-.2,6.77,6.77,0,0,0-5.1-2.2c-2.7,0-5.1,1.3-5.1,4.2C443.3,126.27,445.5,127.37,449.2,128.47Z" transform="translate(0 -7.87)"/>
	<path class="a" d="M464.8,140.57c0,.6-.4.9-1,.9s-1-.3-1-.9v-22.2c0-.6.4-.9,1-.9s1,.3,1,.9Zm-2-29.8a.92.92,0,0,1,1-.9,1,1,0,0,1,1,.9V113a1,1,0,0,1-2,0Z" transform="translate(0 -7.87)"/>
	<path class="a" d="M487.1,136.17c0,1.7.2,3.2,1.9,3.4a.89.89,0,0,1,.9,1,.92.92,0,0,1-.9,1h-.2c-2.4,0-3.3-2.1-3.5-3.8a7.59,7.59,0,0,1-6.5,3.8h-.2c-3.9,0-7.1-2.1-7.1-6.5v-.3a5.48,5.48,0,0,1,2.8-5c1.9-1.2,4.8-1.7,8-2.3,2-.3,2.6-1.3,2.6-2.2v-.5a5.1,5.1,0,0,0-5.2-5.2h-.2a5,5,0,0,0-5.2,3.7c-.1.5-.5.6-.9.6a.94.94,0,0,1-1-1,2.84,2.84,0,0,1,.4-1.3,7.24,7.24,0,0,1,6.7-3.9h.2a7,7,0,0,1,7.2,7v11.5Zm-1.9-8.1a6.2,6.2,0,0,1-2.6,1.1c-2.9.6-8.9,1.1-8.9,5.5v.3c0,3,1.9,4.7,5.1,4.7h.2a6.21,6.21,0,0,0,6.2-6.4v-5.2Z" transform="translate(0 -7.87)"/>
	<path class="a" d="M222.6,7.87a.92.92,0,0,1,.9,1,.92.92,0,0,1-.9,1h-14v13.2h9.7c.6,0,.9.4.9,1a.92.92,0,0,1-.9,1h-9.7v14.3h14a1,1,0,0,1,1,1,.94.94,0,0,1-1,1H207.5a.92.92,0,0,1-1-.9V8.87c0-.6.4-.9,1-.9h15.1Z" transform="translate(0 -7.87)"/>
	<path class="a" d="M243.9,40.57c0,.6-.4.9-1,.9s-1-.3-1-.9v-2.1a6.5,6.5,0,0,1-5.5,3h-.5a7.38,7.38,0,0,1-7.4-7.4V18.37c0-.6.4-.9,1-.9s1,.3,1,.9V34a5.45,5.45,0,0,0,5.5,5.6h.4c3.1,0,5.5-3,5.5-5.9V18.37c0-.6.4-.9,1-.9s1,.3,1,.9Z" transform="translate(0 -7.87)"/>
	<path class="a" d="M254.4,20.37a6,6,0,0,1,4.9-2.9,6.12,6.12,0,0,1,5.1,2.4,1.42,1.42,0,0,1,.2.6.94.94,0,0,1-1,1,.85.85,0,0,1-.6-.3,4.65,4.65,0,0,0-3.8-1.8c-2.8,0-4.8,3.6-4.8,5.7v15.5c0,.6-.4.9-1,.9s-1-.3-1-.9V18.37c0-.6.4-.9,1-.9s1,.3,1,.9v2Z" transform="translate(0 -7.87)"/>
	<path class="a" d="M284.3,34.07a7.41,7.41,0,0,1-7.5,7.4h-.5a7.34,7.34,0,0,1-7.5-7.4v-9.3a7.34,7.34,0,0,1,7.5-7.4h.5a7.41,7.41,0,0,1,7.5,7.4Zm-13.4,0a5.42,5.42,0,0,0,5.5,5.5h.5a5.42,5.42,0,0,0,5.5-5.5v-9.3a5.42,5.42,0,0,0-5.5-5.5h-.5a5.42,5.42,0,0,0-5.5,5.5Z" transform="translate(0 -7.87)"/>
	<path class="a" d="M292,18.37c0-.6.4-.9,1-.9s1,.3,1,.9v2a7.26,7.26,0,0,1,5.6-2.9h.3a7.41,7.41,0,0,1,7.5,7.4v9.3a7.38,7.38,0,0,1-7.5,7.3h-.4a6.92,6.92,0,0,1-5.6-2.7v11.8c0,.6-.4.9-1,.9s-1-.3-1-.9V18.37Zm13.4,6.5a5.36,5.36,0,0,0-5.5-5.5h-.4a5.8,5.8,0,0,0-5.5,6v8.3a5.8,5.8,0,0,0,5.5,6h.4a5.4,5.4,0,0,0,5.5-5.4Z" transform="translate(0 -7.87)"/>
	<path class="a" d="M321.7,41.47a7.34,7.34,0,0,1-7.5-7.4v-9.3a7.34,7.34,0,0,1,7.5-7.4h.4a7.41,7.41,0,0,1,7.5,7.4v4.7a.92.92,0,0,1-1,.9H316.3v3.7a5.42,5.42,0,0,0,5.5,5.5h.5a5.36,5.36,0,0,0,5.2-3.6c.1-.3.4-.5.9-.5a1,1,0,0,1,1,1,1.67,1.67,0,0,1-.3.9,7.35,7.35,0,0,1-6.8,4.2h-.6Zm5.9-16.6a5.42,5.42,0,0,0-5.5-5.5h-.4a5.42,5.42,0,0,0-5.5,5.5v3.7h11.3v-3.7Z" transform="translate(0 -7.87)"/>
	<path class="a" d="M419.4,425.27l-2.4,8.3a1,1,0,0,1-1,.7.94.94,0,0,1-1-1,2.25,2.25,0,0,1,.1-.7l9.3-31.3a1,1,0,0,1,1-.8h.2a1.05,1.05,0,0,1,1.1.8l9.2,31.3a2.81,2.81,0,0,1,.1.8.87.87,0,0,1-1,.9,1.2,1.2,0,0,1-1-.7l-2.4-8.3Zm6.2-21.1-5.6,19.2h11.2Z" transform="translate(0 -7.87)"/>
	<path class="a" d="M457.2,433.47c0,.6-.4.9-1,.9s-1-.3-1-.9v-2.1a6.5,6.5,0,0,1-5.5,3h-.5a7.38,7.38,0,0,1-7.4-7.4v-15.7c0-.6.4-.9,1-.9s1,.3,1,.9v15.6a5.45,5.45,0,0,0,5.5,5.6h.4c3.1,0,5.5-3,5.5-5.9v-15.3c0-.6.4-.9,1-.9s1,.3,1,.9Z" transform="translate(0 -7.87)"/>
	<path class="a" d="M472.7,421.37c4.2,1.3,6.7,2.9,6.7,6.6,0,4.6-3.5,6.4-7.4,6.4a9,9,0,0,1-7.6-4.2,2.24,2.24,0,0,1-.3-1,1.07,1.07,0,0,1,1-1,1.29,1.29,0,0,1,1.1.7,6.6,6.6,0,0,0,5.9,3.5c3.3,0,5.4-1.4,5.4-4.5,0-2.9-2.5-3.9-5.4-4.8-4-1.3-7.1-2.6-7.1-6.6s3.4-6.1,7.1-6.1a7.77,7.77,0,0,1,6.3,2.6,1.2,1.2,0,0,1,.4.8,1,1,0,0,1-1,1,.73.73,0,0,1-.6-.2,6.77,6.77,0,0,0-5.1-2.2c-2.7,0-5.1,1.3-5.1,4.2C466.8,419.07,469,420.17,472.7,421.37Z" transform="translate(0 -7.87)"/>
	<path class="a" d="M489.2,410.57h4.5a.84.84,0,0,1,.9.9c0,.6-.3,1-.9,1h-4.5v15.8a3.81,3.81,0,0,0,3.9,4h.5a1,1,0,0,1,0,2H493a5.7,5.7,0,0,1-5.8-5.9v-15.8h-2.6a.92.92,0,0,1-.9-1,.9.9,0,0,1,.9-.9h2.6v-9c0-.6.4-.9,1-.9s1,.3,1,.9v8.9Z" transform="translate(0 -7.87)"/>
	<path class="a" d="M502.2,413.17a6,6,0,0,1,4.9-2.9,6.12,6.12,0,0,1,5.1,2.4,1.42,1.42,0,0,1,.2.6.94.94,0,0,1-1,1,.85.85,0,0,1-.6-.3,4.65,4.65,0,0,0-3.8-1.8c-2.8,0-4.8,3.6-4.8,5.7v15.5c0,.6-.4.9-1,.9s-1-.3-1-.9v-22.2c0-.6.4-.9,1-.9s1,.3,1,.9v2Z" transform="translate(0 -7.87)"/>
	<path class="a" d="M531.6,429c0,1.7.2,3.2,1.9,3.4a.89.89,0,0,1,.9,1,.92.92,0,0,1-.9,1h-.2c-2.4,0-3.3-2.1-3.5-3.8a7.59,7.59,0,0,1-6.5,3.8h-.2c-3.9,0-7.1-2.1-7.1-6.5v-.3a5.48,5.48,0,0,1,2.8-5c1.9-1.2,4.8-1.7,8-2.3,2-.3,2.6-1.3,2.6-2.2v-.5a5.1,5.1,0,0,0-5.2-5.2H524a5,5,0,0,0-5.2,3.7c-.1.5-.5.6-.9.6a.94.94,0,0,1-1-1,2.84,2.84,0,0,1,.4-1.3,7.24,7.24,0,0,1,6.7-3.9h.2a7,7,0,0,1,7.2,7V429Zm-2-8.1A6.2,6.2,0,0,1,527,422c-2.9.6-8.9,1.1-8.9,5.5v.3c0,3,1.9,4.7,5.1,4.7h.2a6.21,6.21,0,0,0,6.2-6.4Z" transform="translate(0 -7.87)"/>
	<path class="a" d="M540,401.47c0-.6.4-.9,1-.9s1,.3,1,.9v26.7a3.65,3.65,0,0,0,3.8,3.9h.6a.9.9,0,0,1,1,1,1,1,0,0,1-1,1.1h-.7a5.7,5.7,0,0,1-5.8-5.9v-26.8Z" transform="translate(0 -7.87)"/>
	<path class="a" d="M554.6,433.47c0,.6-.4.9-1,.9s-1-.3-1-.9v-22.2c0-.6.4-.9,1-.9s1,.3,1,.9Zm-1.9-29.9a1,1,0,0,1,2,0v2.2a1,1,0,0,1-2,0Z" transform="translate(0 -7.87)"/>
	<path class="a" d="M577,429c0,1.7.2,3.2,1.9,3.4a.89.89,0,0,1,.9,1,.92.92,0,0,1-.9,1h-.2c-2.4,0-3.3-2.1-3.5-3.8a7.59,7.59,0,0,1-6.5,3.8h-.2c-3.9,0-7.1-2.1-7.1-6.5v-.3a5.48,5.48,0,0,1,2.8-5c1.9-1.2,4.8-1.7,8-2.3,2-.3,2.6-1.3,2.6-2.2v-.5a5.1,5.1,0,0,0-5.2-5.2h-.2a5,5,0,0,0-5.2,3.7c-.1.5-.5.6-.9.6a.94.94,0,0,1-1-1,2.84,2.84,0,0,1,.4-1.3,7.24,7.24,0,0,1,6.7-3.9h.2a7,7,0,0,1,7.2,7V429Zm-2-8.1a6.2,6.2,0,0,1-2.6,1.1c-2.9.6-8.9,1.1-8.9,5.5v.3c0,3,1.9,4.7,5.1,4.7h.2a6.21,6.21,0,0,0,6.2-6.4Z" transform="translate(0 -7.87)"/>
	<polygon class="b" points="445.4 372.2 89.2 166.6 90.2 164.8 446.4 370.5 445.4 372.2"/>
	<polygon class="c" points="90.2 371.4 89.2 369.6 445.4 164 446.4 165.7 90.2 371.4"/>
	<rect class="d" x="266.8" y="62.9" width="2" height="411.3"/>
	<path class="e" d="M442.1,378c-19.2-26.6-30.4-64.5-30.6-104-.2-39.7,10.7-76.7,29.9-101.6l1.6,1.2c-39.5,51.1-39.1,147.9.7,203.1Z" transform="translate(0 -7.87)"/>
	<path class="f" d="M91.1,374.77c32.7-3.1,71,6.4,105.2,26.1,34.4,19.8,60.8,47.9,72.6,77.1l-1.9.7c-24.2-59.9-107.9-108.5-175.7-102Z" transform="translate(0 -7.87)"/>
	<path class="g" d="M91.6,171.27c19,26.8,29.8,64.8,29.7,104.2-.1,39.7-11.3,76.6-30.8,101.3l-1.6-1.2c39.9-50.8,40.4-147.6,1-203.1Z" transform="translate(0 -7.87)"/>
	<path class="h" d="M441.7,377.77c-63.4-28-106.2-97.8-131-151.4-27.8-60.3-43.8-124.5-44.8-154.4l2-.1c.9,29.7,16.9,93.6,44.6,153.7,24.6,53.3,67.2,122.7,130,150.4Z" transform="translate(0 -7.87)"/>
	<path class="i" d="M267.2,479.57c-8.3-68.8,29.8-141.3,63.2-190,37.6-54.7,84.7-101.3,109.9-117.4l1.1,1.7c-25.1,16-71.9,62.3-109.3,116.8-33.3,48.4-71.2,120.4-62.9,188.6Z" transform="translate(0 -7.87)"/>
	<path class="j" d="M267.7,478.67c-1.2-29.7-17.7-93.5-46-153.2-25.1-53.1-68.3-122.1-131.4-149.3l.8-1.8c63.6,27.4,107.1,96.8,132.4,150.2,28.4,60,45,124.1,46.2,154Z" transform="translate(0 -7.87)"/>
	<path class="k" d="M90.4,376.57l-1.1-1.7c25.2-15.8,72.3-61.8,110.1-116.1,33.6-48.2,72-119.9,64.2-188.2l2-.2c7.9,68.8-30.8,141.1-64.6,189.5C163.2,314.47,115.7,360.77,90.4,376.57Z" transform="translate(0 -7.87)"/>
	<path class="l" d="M288.5,213.37c-14.9,0-29.2-.7-42.4-1.8-66.1-5.6-129.9-23.5-156.4-37.5l.9-1.8c26.3,13.9,89.7,31.7,155.6,37.2,58.5,5,139.9,2.3,195-38.6l1.2,1.6C399.3,204.57,340.3,213.37,288.5,213.37Z" transform="translate(0 -7.87)"/>
	<path class="m" d="M431.3,174.67c-29.8,0-63.1-9.6-93.1-27.1-34.3-20-60.6-48.2-72.2-77.4l1.9-.7c23.9,60,107.4,109,175.2,102.8l.2,2C439.3,174.47,435.3,174.67,431.3,174.67Z" transform="translate(0 -7.87)"/>
	<path class="n" d="M267.2,478.57l-1.8-.8c13.6-29.9,40.9-58.4,75.1-78.2s71.9-28.8,103-24.5l-.3,2C379.2,368.17,295.3,416.47,267.2,478.57Z" transform="translate(0 -7.87)"/>
	<path class="o" d="M107,175.57a119.37,119.37,0,0,1-16-1.1l.3-2c64,8.9,147.8-39.4,176-101.5l1.8.8c-13.6,29.9-40.9,58.4-75.1,78.2C165.4,166.67,134.5,175.57,107,175.57Z" transform="translate(0 -7.87)"/>
	<circle class="p" cx="442.2" cy="164.6" r="6.9"/>
	<circle class="q" cx="442.2" cy="369" r="6.9"/>
	<circle class="r" cx="267.4" cy="471.8" r="6.9"/>
	<circle class="s" cx="91.3" cy="369" r="6.9"/>
	<circle class="t" cx="91.3" cy="167.2" r="6.9"/>
	<circle class="a" cx="267" cy="64" r="6.9"/>
	<path class="u" d="M442.2,380.77c-26.1-14-89.4-32.1-155.2-38-58.4-5.3-139.6-3-194.9,37.5l-1.8-2.4c56-41.1,138-43.3,196.9-38,66.2,6,130,24.2,156.4,38.4Z" transform="translate(0 -7.87)"/>
</svg>