<?xml version="1.0" encoding="utf-8"?>
<!-- Generator: Adobe Illustrator 23.0.2, SVG Export Plug-In . SVG Version: 6.00 Build 0)  -->
<svg version="1.2" baseProfile="tiny" id="Ebene_1" xmlns="http://www.w3.org/2000/svg" xmlns:xlink="http://www.w3.org/1999/xlink"
	 x="0px" y="0px" width="1300.3px" height="262.8px" viewBox="0 0 1300.3 262.8" xml:space="preserve">
<path fill="#615D57" d="M246.4,245.2H17.3V16h229.1L246.4,245.2L246.4,245.2z M23.6,238.8H240V22.4H23.6V238.8z"/>
<g>
	<path fill="#615D57" d="M131.8,93.6c-12.1,0-21.9-9.8-21.9-21.9s9.8-21.9,21.9-21.9s21.9,9.8,21.9,21.9S143.9,93.6,131.8,93.6z
		 M131.8,56.2c-8.5,0-15.5,7-15.5,15.5s7,15.5,15.5,15.5s15.5-7,15.5-15.5S140.3,56.2,131.8,56.2z"/>
	<path fill="#615D57" d="M131.8,210.4L131.8,210.4c-5.4,0-10.6-2-14.7-5.6c-8.9-7.9-9.7-21.9-1.8-31.3l8.9-10.6c2-2.3,2-5.7,0-8
		l-8.9-10.6c-7.9-9.4-7.1-23.4,1.8-31.3c4.1-3.6,9.3-5.6,14.7-5.6l0,0c5.4,0,10.6,2,14.7,5.6c8.9,7.9,9.7,21.9,1.8,31.3l-8.9,10.6
		c-2,2.3-2,5.7,0,8l8.9,10.6c7.9,9.4,7.1,23.4-1.8,31.3C142.4,208.5,137.2,210.4,131.8,210.4z M131.8,204.1L131.8,204.1
		c3.8,0,7.5-1.4,10.4-4c6.3-5.6,6.8-15.6,1.1-22.4l-8.9-10.6c-1.3-1.6-2.2-3.4-2.6-5.3c-0.4,1.9-1.3,3.7-2.6,5.3l-8.9,10.6
		c-5.7,6.8-5.2,16.8,1.1,22.4C124.2,202.6,127.9,204.1,131.8,204.1L131.8,204.1z M131.8,113.9c-3.8,0-7.5,1.4-10.4,4
		c-6.3,5.6-6.8,15.6-1.1,22.4l8.9,10.6c1.3,1.6,2.2,3.4,2.6,5.3c0.4-1.9,1.3-3.7,2.6-5.3l8.9-10.6c5.7-6.8,5.2-16.8-1.1-22.4
		C139.3,115.3,135.6,113.9,131.8,113.9L131.8,113.9z"/>
</g>
<g>
	<path fill="#615D57" d="M290.9,30.3c0-2,1.5-3.2,3.5-3.2s3.5,1.2,3.5,3.2v111.4c0,2-1.5,3.2-3.5,3.2s-3.5-1.2-3.5-3.2V30.3z"/>
	<path fill="#615D57" d="M388.2,30.3c0-2,1.5-3.2,3.5-3.2s3.5,1.2,3.5,3.2v110.9c0,1.8-1.5,3.2-3.3,3.2h-1.7c-2.2,0-3-0.8-3.5-2
		l-47.4-98.8v98.2c0,2.2-1.7,3.2-3.5,3.2s-3.5-1-3.5-3.2v-111c0-1.8,1.5-3.2,3.3-3.2h1.7c2,0,3,1,3.5,2.2l47.4,99V30.3z"/>
	<path fill="#615D57" d="M471,80.7c2.2,0,3.2,1.5,3.2,3.3c0,1.7-1,3.5-3.2,3.5h-34.3v54.1c0,2-1.7,3.2-3.7,3.2
		c-1.8,0-3.3-1.2-3.3-3.2V30.8c0-2,1.5-3.2,3.3-3.2h53c1.8,0,3.2,1.7,3.2,3.3c0,2-1.3,3.5-3.2,3.5h-49.4v46.2H471V80.7z"/>
	<path fill="#615D57" d="M536,27.1h1.7c17.1,0,31,13.4,31,30.5v56.8c0,17.1-13.9,30.5-31,30.5H536c-17.3,0-31.2-13.4-31.2-30.5V57.6
		C504.8,40.5,518.7,27.1,536,27.1z M512,114.4c0,13.2,10.6,23.6,24,23.6h1.7c13.2,0,24-10.4,24-23.6V57.6c0-13.1-10.7-23.6-24-23.6
		H536c-13.4,0-24,10.6-24,23.6V114.4z"/>
	<path fill="#615D57" d="M592.9,133.6c0-2,1.5-3.2,3.5-3.2s3.5,1.2,3.5,3.2v8c0,2-1.5,3.2-3.5,3.2s-3.5-1.2-3.5-3.2V133.6z"/>
	<path fill="#615D57" d="M659.9,87.6c-2,0-3.2-1.5-3.2-3.3s1.2-3.5,3.2-3.5h24.8c2.2,0,3.7,1.5,3.7,3.5v30.1
		c0,17.1-14.2,30.5-31.3,30.5h-1.8c-17.1,0-31-13.4-31-30.3v-57c0-17.1,13.9-30.5,31-30.5h1.7c18.9,0,31.2,15.4,31.2,28.5v0.7
		c0,2-1.5,3.2-3.4,3.2c-2,0-3.2-1-3.3-2.8c-1-12.8-11-22.7-24.4-22.7h-1.8c-13.2,0-23.8,10.6-23.8,23.6v56.8
		c0,13.2,10.6,23.6,23.8,23.6h1.8c13.4,0,24.1-10.4,24.1-23.6V87.6H659.9z"/>
	<path fill="#615D57" d="M725.7,141.7c0,2-1.5,3.2-3.5,3.2s-3.5-1.2-3.5-3.2V30.8c0-2,1.5-3.2,3.3-3.2h29.8
		c16.6,0,30.3,13.6,30.3,30.3v1.7c0,15.4-11.2,28.3-26,30l24,50.4c0.3,0.7,0.3,1.2,0.3,1.7c0,1.8-1.7,3.2-3.9,3.2
		c-1,0-2.2-0.5-2.8-1.8l-25.1-52.9h-22.9L725.7,141.7L725.7,141.7z M775,57.9c0-12.9-10.2-23.4-22.9-23.4h-26.3v48.7H752
		c12.9,0,22.9-10.6,22.9-23.6v-1.7H775z"/>
	<path fill="#615D57" d="M814.2,113.4l-8.4,29c-0.5,1.5-1.8,2.5-3.5,2.5c-2,0-3.3-1.5-3.3-3.3c0-0.5,0.2-1.5,0.5-2.5l32.3-109.2
		c0.5-1.8,1.8-2.7,3.5-2.7h0.7c1.7,0,3.2,0.8,3.7,2.7L871.8,139c0.3,1.3,0.5,2,0.5,2.7c0,1.8-1.2,3.2-3.3,3.2c-1.5,0-2.8-1-3.4-2.5
		l-8.4-29C857.2,113.4,814.2,113.4,814.2,113.4z M835.6,39.7l-19.4,66.8h39L835.6,39.7z"/>
	<path fill="#615D57" d="M903.6,141.7c0,2-1.5,3.2-3.5,3.2s-3.5-1.2-3.5-3.2V30.8c0-2,1.5-3.2,3.3-3.2h29.8
		c16.7,0,30.3,13.7,30.3,30.3v1.7c0,16.7-12.9,30.5-30,30.5h-26.5v51.6H903.6z M952.9,57.9c0-12.9-10-23.4-23.1-23.4h-26.1v48.7
		h26.1c13.1,0,23.1-10.7,23.1-23.6V57.9z"/>
	<path fill="#615D57" d="M1042,87.6h-48.7v54.1c0,2-1.5,3.2-3.5,3.2s-3.5-1.2-3.5-3.2V30.3c0-2,1.5-3.2,3.5-3.2s3.5,1.2,3.5,3.2
		v50.4h48.7V30.3c0-2,1.5-3.2,3.5-3.2s3.5,1.2,3.5,3.2v111.4c0,2-1.5,3.2-3.5,3.2s-3.5-1.2-3.5-3.2V87.6z"/>
	<path fill="#615D57" d="M1083.3,30.3c0-2,1.5-3.2,3.5-3.2s3.5,1.2,3.5,3.2v111.4c0,2-1.5,3.2-3.5,3.2s-3.5-1.2-3.5-3.2V30.3z"/>
	<path fill="#615D57" d="M1153,27.1h0.8c18.4,0,30.7,14.7,30.7,29.8v1c0,2.3-1.8,3.7-3.7,3.7c-2,0-3.5-1.5-3.5-3.7v-0.7
		c0-12.9-10.2-23.3-23.4-23.3h-0.8c-13.4,0-23.6,10.6-23.6,23.6v56.8c0,13.2,10.2,23.6,23.6,23.6h0.8c12.7,0,21.8-8.7,23.3-20.6
		c0.3-2,1.8-3.3,3.5-3.3c1.8,0,3.5,1.5,3.5,3.3v0.7c0,7.2-8.2,26.8-30.3,26.8h-0.8c-17.1,0-30.7-13.4-30.7-30.5V57.6
		C1122.4,40.5,1135.9,27.1,1153,27.1z"/>
	<path fill="#615D57" d="M1266.1,53.2c0,2-1.7,3-3.5,3c-1.3,0-3.4-0.5-3.5-3.3c-0.7-11.7-10.9-19.1-22.4-19.1h-1
		c-10.6,0-21.4,7.4-21.4,21.4c0,14.7,10.9,19.8,28.6,28.1c13.4,6.4,24.8,14.1,24.8,32.5c0,17.6-13.1,29-30,29h-1.5
		c-16.4,0-30.8-11.1-30.8-30c0-2,1.5-3.4,3.4-3.4c2,0,3.7,1.3,3.7,3.4c0,14.7,11.1,23.1,23.8,23.1h1.5c13.2,0,22.9-8.5,22.9-22.1
		c0-13.7-9-21.1-21.1-26.5c-19.4-8.7-32.3-15.4-32.3-34.3c0-17.8,14.2-28,28.5-28h1c17.3,0,29.5,12.1,29.5,25.5v0.7H1266.1z"/>
</g>
<g>
	<path fill="#615D57" d="M305.6,234.1c-0.9,0-1.6-0.5-2-1.7l-14.4-55.5c-0.1-0.3-0.2-0.6-0.2-0.9c0-1.1,0.9-1.7,1.8-1.7
		c0.8,0,1.4,0.3,1.7,1.4l13.2,51.5l13.2-51.5c0.3-1,1-1.4,1.8-1.4c0.9,0,1.7,0.6,1.7,1.7c0,0.3-0.1,0.7-0.2,1l-14.3,55.4
		c-0.3,1.2-1,1.7-2,1.7L305.6,234.1L305.6,234.1z"/>
	<path fill="#615D57" d="M340.4,175.9c0-1,0.8-1.6,1.8-1.6s1.8,0.6,1.8,1.6v56.6c0,1-0.8,1.6-1.8,1.6s-1.8-0.6-1.8-1.6V175.9z"/>
	<path fill="#615D57" d="M393.7,187.6c0,1-0.9,1.5-1.8,1.5c-0.7,0-1.7-0.3-1.8-1.7c-0.3-6-5.5-9.7-11.4-9.7h-0.5
		c-5.4,0-10.9,3.7-10.9,10.9c0,7.5,5.5,10,14.5,14.3c6.8,3.2,12.6,7.1,12.6,16.5c0,8.9-6.6,14.7-15.2,14.7h-0.8
		c-8.3,0-15.6-5.6-15.6-15.2c0-1,0.8-1.7,1.7-1.7c1,0,1.9,0.7,1.9,1.7c0,7.5,5.6,11.7,12.1,11.7h0.8c6.7,0,11.7-4.3,11.7-11.2
		c0-7-4.6-10.7-10.7-13.4c-9.9-4.4-16.4-7.8-16.4-17.4c0-9,7.2-14.2,14.5-14.2h0.5c8.8,0,15,6.1,15,12.9v0.3H393.7z"/>
	<path fill="#615D57" d="M416.6,218.6c0,6.6,5.2,12,12,12h0.7c6.9,0,12.1-5.4,12.1-12v-42.7c0-1,0.8-1.6,1.8-1.6s1.8,0.6,1.8,1.6
		v42.7c0,8.7-7,15.5-15.6,15.5h-0.7c-8.7,0-15.6-6.8-15.6-15.5v-42.7c0-1,0.8-1.6,1.8-1.6s1.8,0.6,1.8,1.6v42.7H416.6z"/>
	<path fill="#615D57" d="M468.8,218.1l-4.3,14.7c-0.3,0.8-0.9,1.3-1.8,1.3c-1,0-1.7-0.8-1.7-1.7c0-0.3,0.1-0.8,0.3-1.3l16.4-55.5
		c0.3-0.9,0.9-1.4,1.8-1.4h0.3c0.9,0,1.6,0.4,1.9,1.4l16.3,55.5c0.2,0.7,0.3,1,0.3,1.4c0,0.9-0.6,1.6-1.7,1.6
		c-0.8,0-1.4-0.5-1.7-1.3l-4.3-14.7H468.8z M479.6,180.7l-9.9,33.9h19.8L479.6,180.7z"/>
	<path fill="#615D57" d="M541.6,233.9H517c-1,0-1.8-0.7-1.8-1.6V176c0-1,0.8-1.6,1.7-1.6c1,0,1.9,0.6,1.9,1.6v54.4h22.8
		c1.1,0,1.6,0.8,1.6,1.7C543.3,233,542.8,233.9,541.6,233.9z"/>
	<path fill="#615D57" d="M559.2,175.9c0-1,0.8-1.6,1.8-1.6s1.8,0.6,1.8,1.6v56.6c0,1-0.8,1.6-1.8,1.6s-1.8-0.6-1.8-1.6V175.9z"/>
	<path fill="#615D57" d="M612.5,187.6c0,1-0.9,1.5-1.8,1.5c-0.7,0-1.7-0.3-1.8-1.7c-0.3-6-5.5-9.7-11.4-9.7H597
		c-5.4,0-10.9,3.7-10.9,10.9c0,7.5,5.5,10,14.5,14.3c6.8,3.2,12.6,7.1,12.6,16.5c0,8.9-6.6,14.7-15.2,14.7h-0.8
		c-8.3,0-15.6-5.6-15.6-15.2c0-1,0.8-1.7,1.7-1.7c1,0,1.9,0.7,1.9,1.7c0,7.5,5.6,11.7,12.1,11.7h0.8c6.7,0,11.7-4.3,11.7-11.2
		c0-7-4.6-10.7-10.7-13.4c-9.9-4.4-16.4-7.8-16.4-17.4c0-9,7.2-14.2,14.5-14.2h0.5c8.8,0,15,6.1,15,12.9v0.3H612.5z"/>
	<path fill="#615D57" d="M632.2,175.9c0-1,0.8-1.6,1.8-1.6s1.8,0.6,1.8,1.6v56.6c0,1-0.8,1.6-1.8,1.6s-1.8-0.6-1.8-1.6V175.9z"/>
	<path fill="#615D57" d="M686.3,175.9c0-1,0.8-1.6,1.8-1.6s1.8,0.6,1.8,1.6v56.3c0,0.9-0.8,1.6-1.7,1.6h-0.9c-1.1,0-1.5-0.4-1.8-1
		l-24.1-50.2v49.8c0,1.1-0.9,1.6-1.8,1.6s-1.8-0.5-1.8-1.6v-56.3c0-0.9,0.8-1.6,1.7-1.6h0.9c1,0,1.5,0.5,1.8,1.1l24.1,50.3V175.9z"
		/>
	<path fill="#615D57" d="M728.9,205c-1,0-1.6-0.8-1.6-1.7s0.6-1.8,1.6-1.8h12.6c1.1,0,1.9,0.8,1.9,1.8v15.3
		c0,8.7-7.2,15.5-15.9,15.5h-0.9c-8.7,0-15.7-6.8-15.7-15.4v-28.9c0-8.7,7.1-15.5,15.7-15.5h0.9c9.6,0,15.8,7.8,15.8,14.5v0.3
		c0,1-0.8,1.6-1.7,1.6c-1,0-1.6-0.5-1.7-1.4c-0.4-6.5-5.5-11.5-12.3-11.5h-0.9c-6.7,0-12.1,5.4-12.1,12v28.8c0,6.7,5.4,12,12.1,12
		h0.9c6.8,0,12.2-5.3,12.2-12V205H728.9z"/>
	<path fill="#615D57" d="M799.6,211.1l-15.2-34.4c-0.2-0.2-0.2-0.4-0.2-0.7c0-0.9,0.8-1.7,1.9-1.7c0.7,0,1.2,0.3,1.5,1l13.9,31
		l13.7-31c0.3-0.7,0.9-1,1.5-1c1.2,0,2,0.8,2,1.7c0,0.3-0.1,0.4-0.2,0.7l-15.3,34.4v21.3c0,1-0.8,1.7-1.8,1.7
		c-0.9,0-1.8-0.7-1.8-1.7L799.6,211.1L799.6,211.1z"/>
	<path fill="#615D57" d="M849.4,174.3h0.9c8.7,0,15.7,6.8,15.7,15.5v28.8c0,8.7-7.1,15.5-15.7,15.5h-0.9c-8.8,0-15.8-6.8-15.8-15.5
		v-28.8C833.6,181.1,840.7,174.3,849.4,174.3z M837.3,218.6c0,6.7,5.4,12,12.2,12h0.9c6.7,0,12.2-5.3,12.2-12v-28.8
		c0-6.6-5.4-12-12.2-12h-0.9c-6.8,0-12.2,5.4-12.2,12V218.6z"/>
	<path fill="#615D57" d="M890.2,218.6c0,6.6,5.2,12,12,12h0.7c6.9,0,12.1-5.4,12.1-12v-42.7c0-1,0.8-1.6,1.8-1.6s1.8,0.6,1.8,1.6
		v42.7c0,8.7-7,15.5-15.6,15.5h-0.7c-8.7,0-15.6-6.8-15.6-15.5v-42.7c0-1,0.8-1.6,1.8-1.6s1.8,0.6,1.8,1.6v42.7H890.2z"/>
	<path fill="#615D57" d="M943.8,232.5c0,1-0.8,1.6-1.8,1.6s-1.8-0.6-1.8-1.6v-56.3c0-1,0.8-1.6,1.7-1.6H957
		c8.4,0,15.4,6.9,15.4,15.4v0.8c0,7.8-5.7,14.4-13.2,15.2l12.2,25.6c0.2,0.3,0.2,0.6,0.2,0.8c0,0.9-0.9,1.6-2,1.6
		c-0.5,0-1.1-0.3-1.4-0.9l-12.8-26.9h-11.7v26.3H943.8z M968.8,190c0-6.5-5.2-11.9-11.7-11.9h-13.4v24.8h13.4
		c6.5,0,11.7-5.4,11.7-12V190z"/>
	<path fill="#615D57" d="M1029.3,232.5c-0.3,1.1-1.2,1.6-2.1,1.6h-0.3c-1,0-1.9-0.6-2.1-1.7l-11.9-55.4c-0.1-0.3-0.2-0.9-0.2-1.1
		c0-1,0.9-1.6,1.8-1.6s1.5,0.4,1.7,1.4L1027,227l12.2-51c0.3-1.2,1-1.6,2-1.6s1.8,0.4,2,1.6l12.2,51l10.9-51.3
		c0.2-0.9,0.9-1.4,1.7-1.4s1.8,0.6,1.8,1.6c0,0.3-0.1,0.7-0.2,1.1l-11.9,55.4c-0.3,1.2-1,1.7-2,1.7h-0.3c-1,0-1.9-0.5-2.1-1.6
		l-12-51.1L1029.3,232.5z"/>
	<path fill="#615D57" d="M1102.3,174.3h0.9c8.7,0,15.7,6.8,15.7,15.5v28.8c0,8.7-7.1,15.5-15.7,15.5h-0.9c-8.8,0-15.8-6.8-15.8-15.5
		v-28.8C1086.5,181.1,1093.5,174.3,1102.3,174.3z M1090.1,218.6c0,6.7,5.4,12,12.2,12h0.9c6.7,0,12.2-5.3,12.2-12v-28.8
		c0-6.6-5.4-12-12.2-12h-0.9c-6.8,0-12.2,5.4-12.2,12V218.6z"/>
	<path fill="#615D57" d="M1143.4,232.5c0,1-0.8,1.6-1.8,1.6s-1.8-0.6-1.8-1.6v-56.3c0-1,0.8-1.6,1.7-1.6h15.1
		c8.4,0,15.4,6.9,15.4,15.4v0.8c0,7.8-5.7,14.4-13.2,15.2l12.2,25.6c0.2,0.3,0.2,0.6,0.2,0.8c0,0.9-0.9,1.6-2,1.6
		c-0.5,0-1.1-0.3-1.4-0.9l-12.8-26.9h-11.7v26.3H1143.4z M1168.4,190c0-6.5-5.2-11.9-11.7-11.9h-13.4v24.8h13.4
		c6.5,0,11.7-5.4,11.7-12V190z"/>
	<path fill="#615D57" d="M1216.8,233.9h-24.6c-1,0-1.8-0.7-1.8-1.6V176c0-1,0.8-1.6,1.7-1.6c1,0,1.9,0.6,1.9,1.6v54.4h22.8
		c1.1,0,1.6,0.8,1.6,1.7C1218.4,233,1217.9,233.9,1216.8,233.9z"/>
	<path fill="#615D57" d="M1236.1,233.9c-0.9,0-1.7-0.6-1.7-1.6v-56.1c0-1,0.8-1.6,1.7-1.6h14.7c8.7,0,15.6,6.8,15.6,15.5v28.2
		c0,8.6-6.9,15.6-15.6,15.6L1236.1,233.9L1236.1,233.9z M1262.7,190.1c0-6.6-5.1-12-11.9-12H1238v52.3h12.8
		c6.8,0,11.9-5.4,11.9-12.1V190.1z"/>
</g>
</svg>
