<svg xmlns="http://www.w3.org/2000/svg" width="721" height="234" viewBox="0 0 721 234">
	<defs>
		<style>
			.a,.b{fill:#fff;}
			.b{opacity:0.2;}
		</style>
	</defs>
	<path class="a" d="M116.59,95.22A12.71,12.71,0,1,1,129.3,82.51,12.71,12.71,0,0,1,116.59,95.22Zm0-21.71a9,9,0,1,0,9,9A9,9,0,0,0,116.59,73.51Z"/>
	<path class="a" d="M116.59,163h0a12.93,12.93,0,0,1-8.53-3.25,13.11,13.11,0,0,1-1-18.16l5.16-6.16a3.53,3.53,0,0,0,0-4.64L107,124.64a13.11,13.11,0,0,1,1-18.16,12.93,12.93,0,0,1,8.53-3.25h0a12.91,12.91,0,0,1,8.53,3.25,13.11,13.11,0,0,1,1,18.16L121,130.79a3.53,3.53,0,0,0,0,4.64l5.17,6.16a13.11,13.11,0,0,1-1,18.16A12.61,12.61,0,0,1,116.59,163Zm0-3.66h0a9,9,0,0,0,6-2.32,9.4,9.4,0,0,0,.64-13l-5.17-6.15a7.42,7.42,0,0,1-1.51-3.07,7.19,7.19,0,0,1-1.51,3.07L109.92,144a9.38,9.38,0,0,0,.64,13,9.09,9.09,0,0,0,6,2.32Zm0-52.34a9,9,0,0,0-6,2.32,9.38,9.38,0,0,0-.64,13l5.16,6.15a7.17,7.17,0,0,1,1.51,3.08,7.4,7.4,0,0,1,1.51-3.08l5.17-6.15a9.4,9.4,0,0,0-.64-13,9,9,0,0,0-6-2.32Z"/>
	<rect class="b" x="45" y="45" width="144" height="144"/>
	<path class="a" d="M225.11,170.08a1.72,1.72,0,0,1-1.75-1.44L216.16,141a5.26,5.26,0,0,1-.18-1,1.55,1.55,0,0,1,1.67-1.53,1.46,1.46,0,0,1,1.48,1.17l6.12,23.85,6.07-23.85a1.46,1.46,0,0,1,1.49-1.17,1.55,1.55,0,0,1,1.66,1.53,3.62,3.62,0,0,1-.13.81l-7.25,27.85a1.76,1.76,0,0,1-1.8,1.44Z"/>
	<path class="a" d="M240.32,140a1.59,1.59,0,0,1,1.58-1.57,1.66,1.66,0,0,1,1.71,1.57V168.6a1.59,1.59,0,0,1-1.71,1.48,1.52,1.52,0,0,1-1.58-1.48Z"/>
	<path class="a" d="M267,145.78a1.55,1.55,0,0,1-1.66,1.53,1.51,1.51,0,0,1-1.62-1.48,4.81,4.81,0,0,0-5-4.28h-.27a4.57,4.57,0,0,0-4.73,4.77c0,3.47,3.06,4.82,6.66,6.53s7.11,3.87,7.11,9.18c0,4.9-3.69,8.05-8.5,8.05h-.36c-4.46,0-8.6-3.1-8.6-8.41a1.58,1.58,0,0,1,1.62-1.62,1.65,1.65,0,0,1,1.67,1.62,5.15,5.15,0,0,0,5.31,5.31h.36a4.81,4.81,0,0,0,5.17-4.95c0-3.6-2.52-5-5.58-6.48-4.14-1.94-8.14-3.78-8.14-9.23a7.76,7.76,0,0,1,8-7.87h.27c4,0,7.33,2.34,8.14,5.94A6.5,6.5,0,0,1,267,145.78Z"/>
	<path class="a" d="M273.62,139.93a1.5,1.5,0,0,1,1.58-1.48,1.59,1.59,0,0,1,1.71,1.48V161.4a5.28,5.28,0,0,0,5.4,5.53h.27A5.29,5.29,0,0,0,288,161.4V139.93a1.53,1.53,0,0,1,1.62-1.48,1.58,1.58,0,0,1,1.67,1.48v21.51a8.55,8.55,0,0,1-8.73,8.64h-.27a8.54,8.54,0,0,1-8.69-8.64Z"/>
	<path class="a" d="M301.34,162.21l-2,6.75a1.57,1.57,0,0,1-1.57,1.12,1.51,1.51,0,0,1-1.58-1.53,3.2,3.2,0,0,1,.14-.67l8.37-28.17a1.67,1.67,0,0,1,1.71-1.26h.18a1.73,1.73,0,0,1,1.8,1.26l8.28,27.9a3.56,3.56,0,0,1,.22.94,1.5,1.5,0,0,1-1.57,1.53,1.55,1.55,0,0,1-1.58-1.12l-2-6.75Zm5.22-17.87-4.27,14.72h8.55Z"/>
	<path class="a" d="M336.26,170H323.84a1.53,1.53,0,0,1-1.62-1.49V139.93a1.52,1.52,0,0,1,1.58-1.48,1.59,1.59,0,0,1,1.71,1.48V166.8h10.75a1.58,1.58,0,0,1,0,3.15Z"/>
	<path class="a" d="M342.56,140a1.59,1.59,0,0,1,1.58-1.57,1.66,1.66,0,0,1,1.71,1.57V168.6a1.59,1.59,0,0,1-1.71,1.48,1.52,1.52,0,0,1-1.58-1.48Z"/>
	<path class="a" d="M353.77,141.73a1.52,1.52,0,0,1-1.58-1.62,1.48,1.48,0,0,1,1.58-1.53h13a1.56,1.56,0,0,1,1.57,1.53v.23a3.27,3.27,0,0,1-.31,1.12L355.61,166.8h11.3a1.52,1.52,0,0,1,1.62,1.57,1.55,1.55,0,0,1-1.62,1.58H353.14a1.56,1.56,0,0,1-1.58-1.53v-.36a2.58,2.58,0,0,1,.23-.9l12.46-25.43Z"/>
	<path class="a" d="M374.33,140a1.59,1.59,0,0,1,1.58-1.57,1.66,1.66,0,0,1,1.71,1.57V168.6a1.59,1.59,0,0,1-1.71,1.48,1.52,1.52,0,0,1-1.58-1.48Z"/>
	<path class="a" d="M400.07,139.93a1.47,1.47,0,0,1,1.62-1.48,1.51,1.51,0,0,1,1.66,1.48v28.53a1.52,1.52,0,0,1-1.57,1.49h-.59a1.66,1.66,0,0,1-1.71-1l-10.61-22.64v22.32a1.46,1.46,0,0,1-1.62,1.44,1.48,1.48,0,0,1-1.67-1.44V140.07a1.52,1.52,0,0,1,1.58-1.49h.58a1.66,1.66,0,0,1,1.67,1.08l10.66,22.55Z"/>
	<path class="a" d="M419.42,170.08a8.51,8.51,0,0,1-8.73-8.59v-14.4a8.55,8.55,0,0,1,8.73-8.64h.23a8.6,8.6,0,0,1,8.45,5.94,6.2,6.2,0,0,1,.28,1.66,1.45,1.45,0,0,1-1.45,1.53,1.41,1.41,0,0,1-1.52-1.21,5.55,5.55,0,0,0-5.67-4.77h-.32a5.34,5.34,0,0,0-5.44,5.53V161.4a5.31,5.31,0,0,0,5.44,5.53h.32a5.34,5.34,0,0,0,5.53-5.53v-5.94h-4.36a1.58,1.58,0,0,1,0-3.15h6a1.57,1.57,0,0,1,1.62,1.57v7.56a8.62,8.62,0,0,1-8.81,8.64Z"/>
	<path class="a" d="M451.33,157.89l-7.66-17.24a1.58,1.58,0,0,1,1.62-2.2,1.51,1.51,0,0,1,1.4.94l6.3,14.36,6.25-14.36a1.53,1.53,0,0,1,1.44-.94,1.59,1.59,0,0,1,1.71,1.53,1.74,1.74,0,0,1-.13.67l-7.65,17.24v10.62a1.65,1.65,0,0,1-1.67,1.57,1.59,1.59,0,0,1-1.61-1.57Z"/>
	<path class="a" d="M475.49,138.45h.31a8.59,8.59,0,0,1,8.78,8.64v14.35a8.59,8.59,0,0,1-8.78,8.64h-.31a8.59,8.59,0,0,1-8.78-8.64V147.09A8.59,8.59,0,0,1,475.49,138.45Zm-5.49,23a5.33,5.33,0,0,0,5.49,5.53h.31a5.29,5.29,0,0,0,5.45-5.53V147.13a5.32,5.32,0,0,0-5.45-5.53h-.31a5.35,5.35,0,0,0-5.49,5.53Z"/>
	<path class="a" d="M491.78,139.93a1.5,1.5,0,0,1,1.58-1.48,1.59,1.59,0,0,1,1.71,1.48V161.4a5.27,5.27,0,0,0,5.39,5.53h.27a5.29,5.29,0,0,0,5.45-5.53V139.93a1.53,1.53,0,0,1,1.62-1.48,1.57,1.57,0,0,1,1.66,1.48v21.51a8.55,8.55,0,0,1-8.73,8.64h-.27a8.54,8.54,0,0,1-8.68-8.64Z"/>
	<path class="a" d="M520.58,168.6a1.59,1.59,0,0,1-1.71,1.48,1.52,1.52,0,0,1-1.58-1.48V140.07a1.48,1.48,0,0,1,1.53-1.49h7.65a8.54,8.54,0,0,1,8.51,8.55v.41a8.26,8.26,0,0,1-6.3,8.23l5.76,12.06a1.62,1.62,0,0,1-1.62,2.25,1.45,1.45,0,0,1-1.35-.85L525.26,156h-4.68Zm11.11-21.47a5.29,5.29,0,0,0-5.22-5.4h-5.89v11.21h5.89a5.26,5.26,0,0,0,5.22-5.4Z"/>
	<path class="a" d="M559.68,168.69a1.77,1.77,0,0,1-1.8,1.39h-.18a1.83,1.83,0,0,1-1.84-1.44l-6-27.94a4,4,0,0,1-.09-.77,1.57,1.57,0,0,1,1.66-1.48,1.44,1.44,0,0,1,1.49,1.21l5,23.49,5.49-23.31a1.73,1.73,0,0,1,1.8-1.39,1.71,1.71,0,0,1,1.8,1.39l5.49,23.31,5-23.49a1.45,1.45,0,0,1,1.53-1.21,1.53,1.53,0,0,1,1.62,1.48,4,4,0,0,1-.09.77l-6,27.94a1.76,1.76,0,0,1-1.8,1.44h-.18a1.85,1.85,0,0,1-1.89-1.39l-5.44-23.36Z"/>
	<path class="a" d="M594.47,138.45h.31a8.59,8.59,0,0,1,8.78,8.64v14.35a8.59,8.59,0,0,1-8.78,8.64h-.31a8.59,8.59,0,0,1-8.78-8.64V147.09A8.59,8.59,0,0,1,594.47,138.45Zm-5.49,23a5.33,5.33,0,0,0,5.49,5.53h.31a5.29,5.29,0,0,0,5.45-5.53V147.13a5.32,5.32,0,0,0-5.45-5.53h-.31a5.35,5.35,0,0,0-5.49,5.53Z"/>
	<path class="a" d="M614.18,168.6a1.59,1.59,0,0,1-1.71,1.48,1.52,1.52,0,0,1-1.58-1.48V140.07a1.48,1.48,0,0,1,1.53-1.49h7.65a8.54,8.54,0,0,1,8.51,8.55v.41a8.26,8.26,0,0,1-6.3,8.23L628,167.83a1.62,1.62,0,0,1-1.62,2.25,1.45,1.45,0,0,1-1.35-.85L618.86,156h-4.68Zm11.11-21.47a5.29,5.29,0,0,0-5.22-5.4h-5.89v11.21h5.89a5.26,5.26,0,0,0,5.22-5.4Z"/>
	<path class="a" d="M648.74,170H636.32a1.53,1.53,0,0,1-1.62-1.49V139.93a1.52,1.52,0,0,1,1.57-1.48,1.58,1.58,0,0,1,1.71,1.48V166.8h10.76a1.58,1.58,0,0,1,0,3.15Z"/>
	<path class="a" d="M656.61,170a1.52,1.52,0,0,1-1.57-1.49V140.07a1.48,1.48,0,0,1,1.53-1.49h7.33a8.52,8.52,0,0,1,8.73,8.64v14.09A8.55,8.55,0,0,1,663.9,170Zm12.74-22.68a5.28,5.28,0,0,0-5.4-5.54h-5.63V166.8H664a5.28,5.28,0,0,0,5.4-5.54Z"/>
	<path class="a" d="M219,72.08a2.76,2.76,0,0,1,2.73-2.73,2.86,2.86,0,0,1,3,2.73v49.53a2.74,2.74,0,0,1-3,2.57,2.63,2.63,0,0,1-2.73-2.57Z"/>
	<path class="a" d="M264,71.92a2.56,2.56,0,0,1,2.81-2.57,2.62,2.62,0,0,1,2.89,2.57v49.45A2.63,2.63,0,0,1,267,124h-1a2.85,2.85,0,0,1-3-1.72L244.62,83v38.69a2.53,2.53,0,0,1-2.81,2.49c-1.4,0-2.88-.7-2.88-2.49V72.15a2.63,2.63,0,0,1,2.73-2.57h1a2.85,2.85,0,0,1,2.89,1.87L264,110.53Z"/>
	<path class="a" d="M303.51,93.21a2.6,2.6,0,0,1,2.73,2.66,2.68,2.68,0,0,1-2.73,2.81H289.63v22.93a2.75,2.75,0,0,1-3,2.57,2.63,2.63,0,0,1-2.73-2.57V72.15a2.56,2.56,0,0,1,2.65-2.57H310.3a2.73,2.73,0,0,1,0,5.46H289.63V93.21Z"/>
	<path class="a" d="M334.4,69.35H335a14.88,14.88,0,0,1,15.21,15v24.89a14.88,14.88,0,0,1-15.21,15h-.55a14.88,14.88,0,0,1-15.21-15V84.32A14.88,14.88,0,0,1,334.4,69.35Zm-9.52,39.78a9.24,9.24,0,0,0,9.52,9.59H335c5.61,0,9.43-4.13,9.43-9.59V84.4A9.22,9.22,0,0,0,335,74.81h-.55a9.28,9.28,0,0,0-9.52,9.59Z"/>
	<path class="a" d="M365.6,121.61a2.8,2.8,0,0,1-3,2.57,2.72,2.72,0,0,1-2.88-2.57v-3.12a2.73,2.73,0,0,1,2.88-2.65,2.81,2.81,0,0,1,3,2.65Z"/>
	<path class="a" d="M390.33,124.18a14.76,14.76,0,0,1-15.14-14.9v-25a14.82,14.82,0,0,1,15.14-15h.38c6.87,0,12.88,4.13,14.67,10.29a11.35,11.35,0,0,1,.47,2.89,2.51,2.51,0,0,1-2.5,2.65,2.45,2.45,0,0,1-2.65-2.11c-1-4.83-4.37-8.26-9.83-8.26h-.54a9.26,9.26,0,0,0-9.44,9.59v24.73a9.22,9.22,0,0,0,9.44,9.59h.54a9.26,9.26,0,0,0,9.6-9.59V98.83H392.9a2.73,2.73,0,0,1,0-5.46h10.45a2.73,2.73,0,0,1,2.81,2.73v13.11a15,15,0,0,1-15.29,15Z"/>
	<path class="a" d="M424.18,121.61a2.75,2.75,0,0,1-3,2.57,2.63,2.63,0,0,1-2.73-2.57V72.15a2.56,2.56,0,0,1,2.65-2.57h13.26A14.8,14.8,0,0,1,449.14,84.4v.7a14.35,14.35,0,0,1-10.92,14.28l10,20.9a2.63,2.63,0,0,1,.24,1.25c0,1.56-1.25,2.65-3.05,2.65a2.55,2.55,0,0,1-2.34-1.48L432.29,99.85h-8.11ZM443.44,84.4A9.18,9.18,0,0,0,434.39,75H424.18V94.46h10.21a9.12,9.12,0,0,0,9.05-9.36Z"/>
	<path class="a" d="M464.42,110.53,461,122.23a2.73,2.73,0,0,1-2.73,2,2.6,2.6,0,0,1-2.73-2.65,6.08,6.08,0,0,1,.24-1.17l14.5-48.83a2.91,2.91,0,0,1,3-2.18h.31a3,3,0,0,1,3.12,2.18L491,119.89a5.81,5.81,0,0,1,.39,1.64,2.6,2.6,0,0,1-2.73,2.65,2.67,2.67,0,0,1-2.73-2l-3.43-11.7Zm9.05-31-7.41,25.51h14.82Z"/>
	<path class="a" d="M506.7,99.85v21.76a2.75,2.75,0,0,1-3,2.57,2.63,2.63,0,0,1-2.73-2.57V72.15a2.57,2.57,0,0,1,2.66-2.57H517A14.78,14.78,0,0,1,531.66,84.4v.7a14.41,14.41,0,0,1-14.35,14.75ZM526,84.4A9.19,9.19,0,0,0,516.84,75H506.7V94.46H517a9.16,9.16,0,0,0,9-9.36Z"/>
	<path class="a" d="M542.11,72.08a2.76,2.76,0,0,1,2.73-2.73,2.86,2.86,0,0,1,3,2.73V93.37h19.43V72.08A2.77,2.77,0,0,1,570,69.35a2.85,2.85,0,0,1,2.88,2.73v49.53a2.72,2.72,0,0,1-2.88,2.57,2.65,2.65,0,0,1-2.81-2.57V98.83H547.8v22.78a2.74,2.74,0,0,1-3,2.57,2.63,2.63,0,0,1-2.73-2.57Z"/>
	<path class="a" d="M587.12,72.08a2.75,2.75,0,0,1,2.73-2.73,2.87,2.87,0,0,1,3,2.73v49.53a2.75,2.75,0,0,1-3,2.57,2.63,2.63,0,0,1-2.73-2.57Z"/>
	<path class="a" d="M605.91,84.32a14.69,14.69,0,0,1,15-15h.31a14.56,14.56,0,0,1,14.9,14.43v.93a3,3,0,0,1-2.89,3,2.9,2.9,0,0,1-2.88-3v-.39c0-5.61-3.83-9.51-9.13-9.51h-.31c-5.62,0-9.28,4.21-9.28,9.59v24.73c0,5.46,3.66,9.59,9.28,9.59h.31c5.3,0,8.74-3.82,9.13-8.73a2.88,2.88,0,0,1,2.81-2.73A2.84,2.84,0,0,1,636,110v.39a14.47,14.47,0,0,1-14.82,13.8h-.31a14.69,14.69,0,0,1-15-15Z"/>
	<path class="a" d="M674,82.06a2.69,2.69,0,0,1-2.89,2.65,2.63,2.63,0,0,1-2.81-2.57c-.7-5-4.52-7.41-8.73-7.41h-.47A7.91,7.91,0,0,0,650.92,83c0,6,5.3,8.34,11.54,11.31,6.4,3,12.33,6.71,12.33,15.91,0,8.5-6.4,14-14.75,14h-.62c-7.72,0-14.9-5.38-14.9-14.58a2.75,2.75,0,0,1,2.81-2.81,2.87,2.87,0,0,1,2.89,2.81,8.92,8.92,0,0,0,9.2,9.2H660c5.31,0,9-3.43,9-8.58,0-6.24-4.37-8.74-9.68-11.23-7.17-3.36-14.12-6.55-14.12-16,0-8.58,6.79-13.65,13.89-13.65h.47c6.94,0,12.71,4.05,14.12,10.29A11.74,11.74,0,0,1,674,82.06Z"/>
</svg>