<svg xmlns="http://www.w3.org/2000/svg" width="1250.4" height="229.2" viewBox="0 0 1250.4 229.2">
	<defs>
		<style>
			.a{fill:#615d57;}
			.b{fill:#525252;}
		</style>
	</defs>
	<path class="a" d="M246.4,245.2H17.3V16H246.4V245.2ZM23.6,238.8H240V22.4H23.6Z" transform="translate(-17.3 -16)"/>
	<path class="a" d="M131.8,93.6a21.9,21.9,0,1,1,21.9-21.9A21.89,21.89,0,0,1,131.8,93.6Zm0-37.4a15.5,15.5,0,1,0,15.5,15.5A15.58,15.58,0,0,0,131.8,56.2Z" transform="translate(-17.3 -16)"/>
	<path class="a" d="M131.8,210.4h0a22.27,22.27,0,0,1-14.7-5.6c-8.9-7.9-9.7-21.9-1.8-31.3l8.9-10.6a6.08,6.08,0,0,0,0-8l-8.9-10.6c-7.9-9.4-7.1-23.4,1.8-31.3a22.27,22.27,0,0,1,14.7-5.6h0a22.27,22.27,0,0,1,14.7,5.6c8.9,7.9,9.7,21.9,1.8,31.3l-8.9,10.6a6.08,6.08,0,0,0,0,8l8.9,10.6c7.9,9.4,7.1,23.4-1.8,31.3A21.77,21.77,0,0,1,131.8,210.4Zm0-6.3h0a15.57,15.57,0,0,0,10.4-4c6.3-5.6,6.8-15.6,1.1-22.4l-8.9-10.6a12.53,12.53,0,0,1-2.6-5.3,12.53,12.53,0,0,1-2.6,5.3l-8.9,10.6c-5.7,6.8-5.2,16.8,1.1,22.4a15.68,15.68,0,0,0,10.4,4Zm0-90.2a15.57,15.57,0,0,0-10.4,4c-6.3,5.6-6.8,15.6-1.1,22.4l8.9,10.6a12.53,12.53,0,0,1,2.6,5.3,12.53,12.53,0,0,1,2.6-5.3l8.9-10.6c5.7-6.8,5.2-16.8-1.1-22.4a15.57,15.57,0,0,0-10.4-4Z" transform="translate(-17.3 -16)"/>
	<path class="a" d="M290.9,30.3a3.51,3.51,0,0,1,7,0V141.7a3.51,3.51,0,0,1-7,0Z" transform="translate(-17.3 -16)"/>
	<path class="a" d="M388.2,30.3a3.51,3.51,0,0,1,7,0V141.2a3.24,3.24,0,0,1-3.3,3.2h-1.7c-2.2,0-3-.8-3.5-2L339.3,43.6v98.2c0,2.2-1.7,3.2-3.5,3.2s-3.5-1-3.5-3.2V30.8a3.24,3.24,0,0,1,3.3-3.2h1.7a3.45,3.45,0,0,1,3.5,2.2l47.4,99Z" transform="translate(-17.3 -16)"/>
	<path class="a" d="M471,80.7a3,3,0,0,1,3.2,3.3,3.22,3.22,0,0,1-3.2,3.5H436.7v54.1c0,2-1.7,3.2-3.7,3.2a3.12,3.12,0,0,1-3.3-3.2V30.8a3.12,3.12,0,0,1,3.3-3.2h53a3.38,3.38,0,0,1,3.2,3.3,3.24,3.24,0,0,1-3.2,3.5H436.6V80.6H471Z" transform="translate(-17.3 -16)"/>
	<path class="a" d="M536,27.1h1.7c17.1,0,31,13.4,31,30.5v56.8c0,17.1-13.9,30.5-31,30.5H536c-17.3,0-31.2-13.4-31.2-30.5V57.6C504.8,40.5,518.7,27.1,536,27.1Zm-24,87.3A23.61,23.61,0,0,0,536,138h1.7a23.73,23.73,0,0,0,24-23.6V57.6a23.73,23.73,0,0,0-24-23.6H536a23.73,23.73,0,0,0-24,23.6Z" transform="translate(-17.3 -16)"/>
	<path class="a" d="M592.9,133.6a3.51,3.51,0,0,1,7,0v8a3.51,3.51,0,0,1-7,0Z" transform="translate(-17.3 -16)"/>
	<path class="a" d="M659.9,87.6a3.12,3.12,0,0,1-3.2-3.3,3.29,3.29,0,0,1,3.2-3.5h24.8a3.47,3.47,0,0,1,3.7,3.5v30.1c0,17.1-14.2,30.5-31.3,30.5h-1.8c-17.1,0-31-13.4-31-30.3v-57c0-17.1,13.9-30.5,31-30.5H657c18.9,0,31.2,15.4,31.2,28.5v.7a3.15,3.15,0,0,1-3.4,3.2c-2,0-3.2-1-3.3-2.8-1-12.8-11-22.7-24.4-22.7h-1.8a23.69,23.69,0,0,0-23.8,23.6v56.8A23.56,23.56,0,0,0,655.3,138h1.8c13.4,0,24.1-10.4,24.1-23.6V87.6Z" transform="translate(-17.3 -16)"/>
	<path class="a" d="M725.7,141.7a3.51,3.51,0,0,1-7,0V30.8a3.12,3.12,0,0,1,3.3-3.2h29.8a30.41,30.41,0,0,1,30.3,30.3v1.7c0,15.4-11.2,28.3-26,30l24,50.4a3.82,3.82,0,0,1,.3,1.7c0,1.8-1.7,3.2-3.9,3.2a3,3,0,0,1-2.8-1.8L748.6,90.2H725.7v51.5ZM775,57.9a23.14,23.14,0,0,0-22.9-23.4H725.8V83.2H752c12.9,0,22.9-10.6,22.9-23.6V57.9Z" transform="translate(-17.3 -16)"/>
	<path class="a" d="M814.2,113.4l-8.4,29a3.57,3.57,0,0,1-3.5,2.5,3.2,3.2,0,0,1-3.3-3.3,10.8,10.8,0,0,1,.5-2.5L831.8,29.9a3.42,3.42,0,0,1,3.5-2.7h.7a3.54,3.54,0,0,1,3.7,2.7L871.8,139a13.15,13.15,0,0,1,.5,2.7,3.07,3.07,0,0,1-3.3,3.2,3.73,3.73,0,0,1-3.4-2.5l-8.4-29Zm21.4-73.7-19.4,66.8h39Z" transform="translate(-17.3 -16)"/>
	<path class="a" d="M903.6,141.7a3.51,3.51,0,0,1-7,0V30.8a3.12,3.12,0,0,1,3.3-3.2h29.8A30.41,30.41,0,0,1,960,57.9v1.7c0,16.7-12.9,30.5-30,30.5H903.5v51.6Zm49.3-83.8a23,23,0,0,0-23.1-23.4H903.7V83.2h26.1c13.1,0,23.1-10.7,23.1-23.6Z" transform="translate(-17.3 -16)"/>
	<path class="a" d="M1042,87.6H993.3v54.1a3.51,3.51,0,0,1-7,0V30.3a3.51,3.51,0,0,1,7,0V80.7H1042V30.3a3.51,3.51,0,0,1,7,0V141.7a3.51,3.51,0,0,1-7,0Z" transform="translate(-17.3 -16)"/>
	<path class="a" d="M1083.3,30.3a3.51,3.51,0,0,1,7,0V141.7a3.51,3.51,0,0,1-7,0Z" transform="translate(-17.3 -16)"/>
	<path class="a" d="M1153,27.1h.8a30.19,30.19,0,0,1,30.7,29.8v1a3.63,3.63,0,0,1-3.7,3.7,3.47,3.47,0,0,1-3.5-3.7v-.7a23.16,23.16,0,0,0-23.4-23.3h-.8a23.39,23.39,0,0,0-23.6,23.6v56.8a23.27,23.27,0,0,0,23.6,23.6h.8c12.7,0,21.8-8.7,23.3-20.6a3.64,3.64,0,0,1,3.5-3.3,3.51,3.51,0,0,1,3.5,3.3v.7c0,7.2-8.2,26.8-30.3,26.8h-.8a30.35,30.35,0,0,1-30.7-30.5V57.6A30.26,30.26,0,0,1,1153,27.1Z" transform="translate(-17.3 -16)"/>
	<path class="a" d="M1266.1,53.2c0,2-1.7,3-3.5,3a3.19,3.19,0,0,1-3.5-3.3c-.7-11.7-10.9-19.1-22.4-19.1h-1c-10.6,0-21.4,7.4-21.4,21.4,0,14.7,10.9,19.8,28.6,28.1,13.4,6.4,24.8,14.1,24.8,32.5,0,17.6-13.1,29-30,29h-1.5c-16.4,0-30.8-11.1-30.8-30a3.31,3.31,0,0,1,3.4-3.4,3.45,3.45,0,0,1,3.7,3.4c0,14.7,11.1,23.1,23.8,23.1h1.5c13.2,0,22.9-8.5,22.9-22.1s-9-21.1-21.1-26.5c-19.4-8.7-32.3-15.4-32.3-34.3,0-17.8,14.2-28,28.5-28h1c17.3,0,29.5,12.1,29.5,25.5v.7Z" transform="translate(-17.3 -16)"/>
	<path class="b" d="M303.48,233.65a1.94,1.94,0,0,1-1.93-1.68l-14.2-54.85a3.14,3.14,0,0,1-.17-.84A1.66,1.66,0,0,1,289,174.6a1.61,1.61,0,0,1,1.68,1.34l13,50.82,13-50.82a1.69,1.69,0,0,1,1.76-1.34,1.63,1.63,0,0,1,1.68,1.68,4,4,0,0,1-.17,1L305.83,232a2,2,0,0,1-2,1.68Z" transform="translate(-17.3 -16)"/>
	<path class="b" d="M338.68,176.2a1.77,1.77,0,0,1,3.52,0v55.86a1.77,1.77,0,0,1-3.52,0Z" transform="translate(-17.3 -16)"/>
	<path class="b" d="M392,187.7a1.58,1.58,0,0,1-1.76,1.52,1.62,1.62,0,0,1-1.76-1.68c-.34-5.88-5.46-9.58-11.26-9.58h-.5c-5.3,0-10.76,3.7-10.76,10.75,0,7.39,5.46,9.91,14.37,14.11,6.72,3.2,12.43,7.06,12.43,16.3,0,8.82-6.55,14.53-15,14.53H377c-8.23,0-15.46-5.54-15.46-15a1.63,1.63,0,0,1,1.68-1.68,1.73,1.73,0,0,1,1.85,1.68c0,7.39,5.54,11.59,11.93,11.59h.75c6.64,0,11.51-4.29,11.51-11.09s-4.53-10.58-10.58-13.27c-9.75-4.37-16.21-7.73-16.21-17.22,0-8.91,7.14-14,14.28-14h.5c8.65,0,14.78,6.05,14.78,12.77Z" transform="translate(-17.3 -16)"/>
	<path class="b" d="M415.45,218.36a11.72,11.72,0,0,0,11.84,11.85H428a11.74,11.74,0,0,0,11.92-11.85V176.2a1.77,1.77,0,0,1,3.53,0v42.16A15.27,15.27,0,0,1,428,233.65h-.68a15.21,15.21,0,0,1-15.37-15.29V176.2a1.77,1.77,0,0,1,3.53,0Z" transform="translate(-17.3 -16)"/>
	<path class="b" d="M467.7,217.86l-4.2,14.53a1.83,1.83,0,0,1-1.77,1.26,1.63,1.63,0,0,1-1.68-1.68,5,5,0,0,1,.25-1.26l16.22-54.77a1.7,1.7,0,0,1,1.76-1.34h.34a1.79,1.79,0,0,1,1.84,1.34l16.13,54.77a5.67,5.67,0,0,1,.25,1.35,1.52,1.52,0,0,1-1.68,1.59,1.8,1.8,0,0,1-1.68-1.26l-4.2-14.53Zm10.75-37-9.75,33.52h19.58Z" transform="translate(-17.3 -16)"/>
	<path class="b" d="M540.44,233.4H516.16a1.64,1.64,0,0,1-1.76-1.6V176.2a1.57,1.57,0,0,1,1.68-1.6,1.67,1.67,0,0,1,1.85,1.6V230h22.51a1.57,1.57,0,0,1,1.6,1.68A1.59,1.59,0,0,1,540.44,233.4Z" transform="translate(-17.3 -16)"/>
	<path class="b" d="M558.58,176.2a1.77,1.77,0,0,1,3.53,0v55.86a1.77,1.77,0,0,1-3.53,0Z" transform="translate(-17.3 -16)"/>
	<path class="b" d="M583,178.3a1.61,1.61,0,0,1-1.68-1.77,1.58,1.58,0,0,1,1.68-1.68h25.2a1.63,1.63,0,0,1,1.68,1.68V177a4.52,4.52,0,0,1-.34,1.42L584.29,230h24.36a1.63,1.63,0,0,1,1.68,1.68,1.65,1.65,0,0,1-1.68,1.76h-27a1.62,1.62,0,0,1-1.68-1.6v-.67a3.22,3.22,0,0,1,.34-1.26l25.37-51.57Z" transform="translate(-17.3 -16)"/>
	<path class="b" d="M628.55,176.2a1.77,1.77,0,0,1,3.53,0v55.86a1.77,1.77,0,0,1-3.53,0Z" transform="translate(-17.3 -16)"/>
	<path class="b" d="M682.73,176.2a1.77,1.77,0,0,1,3.53,0v55.6a1.62,1.62,0,0,1-1.68,1.6h-.84a1.62,1.62,0,0,1-1.76-1L658.2,182.83v49.23a1.77,1.77,0,0,1-3.52,0V176.45a1.61,1.61,0,0,1,1.68-1.6h.84a1.76,1.76,0,0,1,1.76,1.09l23.77,49.65Z" transform="translate(-17.3 -16)"/>
	<path class="b" d="M725.57,204.92a1.56,1.56,0,0,1-1.59-1.68,1.63,1.63,0,0,1,1.59-1.76H738a1.74,1.74,0,0,1,1.85,1.76v15.12a15.49,15.49,0,0,1-15.71,15.29h-.92a15.33,15.33,0,0,1-15.54-15.2V189.89a15.34,15.34,0,0,1,15.54-15.29h.84c9.49,0,15.62,7.73,15.62,14.28v.34a1.56,1.56,0,0,1-1.68,1.59,1.49,1.49,0,0,1-1.68-1.43A12,12,0,0,0,724.14,178h-.92a11.85,11.85,0,0,0-11.93,11.85v28.47a11.8,11.8,0,0,0,11.93,11.85h.92a11.89,11.89,0,0,0,12.1-11.85V204.92Z" transform="translate(-17.3 -16)"/>
	<path class="b" d="M796.89,210.89l-15-33.94a.9.9,0,0,1-.17-.67,1.73,1.73,0,0,1,1.85-1.68,1.61,1.61,0,0,1,1.51,1l13.7,30.57,13.52-30.57a1.71,1.71,0,0,1,1.51-1,1.75,1.75,0,0,1,1.93,1.68,2,2,0,0,1-.16.67l-15.12,33.94V232a1.66,1.66,0,0,1-1.77,1.68,1.7,1.7,0,0,1-1.76-1.68Z" transform="translate(-17.3 -16)"/>
	<path class="b" d="M846.87,174.6h.84a15.34,15.34,0,0,1,15.54,15.29v28.47a15.34,15.34,0,0,1-15.54,15.29h-.84a15.37,15.37,0,0,1-15.63-15.29V189.89A15.37,15.37,0,0,1,846.87,174.6Zm-12,43.76a11.82,11.82,0,0,0,12,11.85h.84a11.87,11.87,0,0,0,12-11.85V189.89a11.93,11.93,0,0,0-12-11.85h-.84a11.87,11.87,0,0,0-12,11.85Z" transform="translate(-17.3 -16)"/>
	<path class="b" d="M887.86,218.36a11.72,11.72,0,0,0,11.84,11.85h.68a11.74,11.74,0,0,0,11.92-11.85V176.2a1.77,1.77,0,0,1,3.53,0v42.16a15.27,15.27,0,0,1-15.45,15.29h-.68a15.21,15.21,0,0,1-15.37-15.29V176.2a1.77,1.77,0,0,1,3.53,0Z" transform="translate(-17.3 -16)"/>
	<path class="b" d="M941.62,232.06a1.77,1.77,0,0,1-3.53,0V176.45a1.57,1.57,0,0,1,1.68-1.6h15a15.26,15.26,0,0,1,15.21,15.21v.84a15,15,0,0,1-13,15l12,25.29a1.62,1.62,0,0,1,.17.84,1.75,1.75,0,0,1-1.94,1.59,1.57,1.57,0,0,1-1.42-.92l-12.6-26.55H941.62Zm24.69-42a11.63,11.63,0,0,0-11.5-11.76H941.62v24.44h13.19a11.6,11.6,0,0,0,11.5-11.84Z" transform="translate(-17.3 -16)"/>
	<path class="b" d="M1027.55,232.06a2,2,0,0,1-2.1,1.59h-.34A2.08,2.08,0,0,1,1023,232l-11.76-54.68a6.11,6.11,0,0,1-.16-1.09,1.68,1.68,0,0,1,1.76-1.6,1.57,1.57,0,0,1,1.68,1.34l10.75,50.66,12-50.4a2.08,2.08,0,0,1,4,0l12,50.4,10.75-50.66a1.57,1.57,0,0,1,1.68-1.34,1.68,1.68,0,0,1,1.76,1.6,7.33,7.33,0,0,1-.16,1.09L1055.61,232a1.92,1.92,0,0,1-2,1.68h-.34a2,2,0,0,1-2.1-1.59l-11.84-50.49Z" transform="translate(-17.3 -16)"/>
	<path class="b" d="M1100.38,174.6h.84a15.34,15.34,0,0,1,15.54,15.29v28.47a15.34,15.34,0,0,1-15.54,15.29h-.84a15.37,15.37,0,0,1-15.63-15.29V189.89A15.37,15.37,0,0,1,1100.38,174.6Zm-12,43.76a11.82,11.82,0,0,0,12,11.85h.84a11.87,11.87,0,0,0,12-11.85V189.89a11.93,11.93,0,0,0-12-11.85h-.84a11.87,11.87,0,0,0-12,11.85Z" transform="translate(-17.3 -16)"/>
	<path class="b" d="M1141.71,232.06a1.77,1.77,0,0,1-3.53,0V176.45a1.56,1.56,0,0,1,1.68-1.6h15a15.26,15.26,0,0,1,15.2,15.21v.84a15,15,0,0,1-13,15l12,25.29a1.62,1.62,0,0,1,.17.84,1.74,1.74,0,0,1-1.93,1.59,1.59,1.59,0,0,1-1.43-.92l-12.6-26.55h-11.5Zm24.69-42a11.63,11.63,0,0,0-11.51-11.76h-13.18v24.44h13.18a11.6,11.6,0,0,0,11.51-11.84Z" transform="translate(-17.3 -16)"/>
	<path class="b" d="M1215,233.4h-24.27a1.64,1.64,0,0,1-1.77-1.6V176.2a1.57,1.57,0,0,1,1.68-1.6,1.67,1.67,0,0,1,1.85,1.6V230H1215a1.57,1.57,0,0,1,1.6,1.68A1.59,1.59,0,0,1,1215,233.4Z" transform="translate(-17.3 -16)"/>
	<path class="b" d="M1234.78,233.4a1.56,1.56,0,0,1-1.68-1.6V176.45a1.56,1.56,0,0,1,1.68-1.6h14.53a15.2,15.2,0,0,1,15.37,15.29V218a15.32,15.32,0,0,1-15.37,15.37Zm26.29-43.26a11.65,11.65,0,0,0-11.76-11.84h-12.69V230h12.69A11.68,11.68,0,0,0,1261.07,218Z" transform="translate(-17.3 -16)"/>
</svg>