<svg xmlns="http://www.w3.org/2000/svg" width="322.83" height="322.83" viewBox="0 0 322.83 322.83"><defs><style>.a,.b,.c,.d,.e,.f{fill:none;stroke-miterlimit:10;}.a,.f{stroke:#fff;}.a,.b,.c,.d,.e{stroke-width:1.89px;}.b{stroke:#ff0;}.c{stroke:#ff0050;}.d{stroke:#00ffd4;}.e{stroke:#5a5aff;}.f{stroke-width:2.83px;}</style></defs><title>mini_globe</title><path class="a" d="M223.1,29.21c-2.52-.14-1.11,3.45-3.37,3.65a2.9,2.9,0,0,0,.06,1,3.34,3.34,0,0,0,.65.88,4.49,4.49,0,0,1,.8,4.71c-.7,1.5-2.64-.1-3.08.3-.81.71-3.48-1.18-2.64,1.79.16.56-1,1-1.36.63-1.11-1.11-1.08,0-1.44.56a3.26,3.26,0,0,1-1.18.93c-1.16.72-3,1.49-3.16,2.45C208,48.57,206,49,204.7,50.36c-1,1-2.06-.65-2.78-.21s-1,1.86-2.35,1.46a7,7,0,0,0-2.57-.45c-.75.05-1.59,0-1.68,1a1.52,1.52,0,0,0,1.44,1.66,6.62,6.62,0,0,1,4.52,2.6c1.2,1.5,2.37,2.74,1.57,4.81-.11.29.1.71.18,1.06a2.9,2.9,0,0,1-2.59,3.56,31.6,31.6,0,0,1-11.07-1.18,4,4,0,0,0-3.47.85c-.92.66.29,1.46.52,2.21a8.76,8.76,0,0,1-.39,7,2.76,2.76,0,0,0,.07,3c.19.37.84.64.63,1.08-1.25,2.69.77,2.07,2.12,2.14.59,0,1.36-.17,1.73.13,2.58,2.1,5.5,1.37,8.37,1.21a3.43,3.43,0,0,0,2.84-1.1c.7-.78,1.44-2,2.29-2.29,1.4-.46,1.41-1.22,1.42-2.3,0-1.81.51-3.88,1.9-4.67,2.32-1.32,3.35-3.31,4.41-5.46.62-1.25,1.46-1.9,3-1.13a5.61,5.61,0,0,0,6.06-.27c3.18-2,4.27-1.54,6.48,1.82a12,12,0,0,0,3.74,3.47c3.55,2.26,7.66,4.45,6.91,9.86,0,.27,0,.59.62.66.55-.53-.12-2.12,1.21-2.06.68,0,1,.37.58-.59s-1.1-2-.08-2.78,1.83.31,2.64.88c.14.1.38.06.75.11-1-1.45-2.34-2.14-3.53-3a2.76,2.76,0,0,1-1.29-2.58c.1-1.25,1.32-1.08,2-1.32C242.73,68.9,246,71,246.31,73a10.69,10.69,0,0,0,1.22,3.81c1.33,2.47,2.05,5.17,3.95,7.48s2-1.39,3.3-.71c.45.24,1.14-.53,1.16-1s-.62-.76-.94-1.16-.91-.84-.45-1c1.6-.72.56-1.56.33-2.43-.45-1.7.62-3.88,1.56-3.39,2,1,3.63-.28,5.55-.35a4.18,4.18,0,0,0-.33-.77c-1.08-1.31-3.77-2.48-.34-4.17a.42.42,0,0,0,.11-.38c-1-1.52,0-2.41,1-3.37,2.12-2,3.18-3.34,5.62-1.3a1.52,1.52,0,0,0,1.23.35c1.9-.27,1.79.76,1.18,2,1.34.17.83-1.8,2.23-1.55,2.35.4,4.65-.61,7-.43.78.06,1.9-.31,2.12.67s-1.21.78-1.74,1.4c.78.2,1.82.63,1.62,1.25-.46,1.46-2.09.19-3.05.93a2.4,2.4,0,0,0,.37.5l7.27,5.57c.74.57-2.2-9.72-2.06-10,1.27-2.5-.46-4.05-1.91-5.47-4.7-4.6-9.13-9.45-14.1-13.78a179.88,179.88,0,0,0-18.75-14.27c-.5-.33-1.05-.91-1.49-.37a1.64,1.64,0,0,0,.08,2c.26.32.83.4,1.06.73.67.95,1.49,2,.31,3.1s-2.26.59-3.06-.51c-1.07-1.47-1.73-1-2.13.39-.16.54-.69,1-.2,1.83.39.62-2,4.69-2.69,5a1,1,0,0,1-1.22-.19c-1.23-1.3-2.56-.95-4-.34-2.59,1.13-5.13,1.45-7.38-.76a1.36,1.36,0,0,0-1.22-.35c-1.27.17-1.73-.35-1.6-1.6a2,2,0,0,0-1.86-2.45,1.74,1.74,0,0,1-1.43-2.59A9,9,0,0,0,223.1,29.21Z" transform="translate(-0.59 -0.59)"/><path class="b" d="M277.56,107.26c-.76.36-1.17,1-.62,2.08a89.65,89.65,0,0,1,3.54,8.39,5.11,5.11,0,0,0,1.23,2c1.28,1.22,2.73,2.36,1.19,4.4-.26.34.07,1,.17,1.47.49,2.4,2.44,3.91,3.5,6,1.35,2.6,2.48,5.42,4.94,7.3a4.77,4.77,0,0,1,.66.86c.89,1.12,1.68,2.19.09,3.43a1,1,0,0,0-.24,1.53c.74.74.93,0,1.28-.39a.43.43,0,0,1,.41-.09c3,1.25,5.3-.57,7.81-1.59,1.54-.63,2,.36,1.7,1.56-.59,2.6-1.47,5.13-2,7.73-.95,4.4-4.12,8-4.72,12.48a2,2,0,0,1-1.17,1.26c-1.38.51-1.75,1.78-2.16,2.88a14.57,14.57,0,0,1-2,3.59c-1.8,2.45-4.21,4.41-5.36,7.4-1.05,2.72-1.13,3.57.9,5.65a7,7,0,0,1,2.32,5.88c-.39,3.17-.82,6.34-1.38,9.48a2.88,2.88,0,0,1-1.35,1.83c-3.39,1.54-5.29,4.62-7.7,7.17-.26.28-.83.57-.26,1,1.47,1.19,1,3,1.29,4.47.47,2.66-.6,4.1-2.92,4.95a2.3,2.3,0,0,0-.91.92,12.61,12.61,0,0,0-2.3,6.11,5.79,5.79,0,0,1-1.66,3.47c-1.48,1.6-3.39,3.11-4.33,4.81a28,28,0,0,1-4.75,5.94,11.71,11.71,0,0,1-6.49,3.53c-2,.29-4,.28-5.89,1.38a6.37,6.37,0,0,1-4.26.68c-2.11-.3-3.75-3-2.61-4.63a1.66,1.66,0,0,0,.25-1.59c-.34-2.65-2.11-4.59-3.5-6.62a19.76,19.76,0,0,1-3.24-8.86c-.49-3.65-.95-7.24-2.92-10.58-1.24-2.1-2.4-4.52-2-7.25a28.91,28.91,0,0,1,2.6-7.34c1.89-4.14,2.23-8.08-1.29-11.63a3.05,3.05,0,0,1-.87-2.4c0-.57.24-1.25-.22-1.71-2.69-2.65-3.23-6.59-5.71-9.4a4.6,4.6,0,0,1-.54-5.09c1.23-2.52.69-5.09.62-7.61-.06-2.31-.72-2.57-2.87-1.78a1.87,1.87,0,0,1-1.19,0,12.74,12.74,0,0,1-6-3.5c-.79-.75-1.56-1.42-2.69-1.1-3.26.9-6.8,1.31-9.6,3.18a5,5,0,0,1-5.8.26,6.31,6.31,0,0,0-7.24.45,5,5,0,0,1-5,.71,21.46,21.46,0,0,1-12-12.35c-1-2.49-2.07-4.83-4.77-6.07a4.39,4.39,0,0,1-2.82-5c.06-.35.66-.89-.14-1.29-1.71-.85-1.13-2.28-.51-3.37a12.66,12.66,0,0,0,1.71-4.65c.3-2.76,1.51-5.82-1.1-8.31a2.49,2.49,0,0,1-.46-2.77c.84-2.81,3.19-4.49,4.55-6.86,1.85-3.21,3.44-6.58,6.36-9,.43-.37.72-.91,1.41-1,2.25-.23,3.45-1.75,4.22-3.66.68-1.67,1.09-3.46,1.83-5.1.66-1.48.93-3.34,2.65-4.11a6.21,6.21,0,0,0,3.75-4.36c.49-1.85,1.68-1.95,3.5-1.16a9.57,9.57,0,0,0,6.55.74c4.08-1.25,8.08-2.65,12.41-2.9,1.15-.06,2.27,0,3.38-.07,2.58-.09,5.19,1.3,7.71-.06,1.3-.69,2.06-.6,3.38.42,1,.81,2.47.71,1.58,2.55,0,.06.14.29.25.32,1.32.39,1.1,1.49,1,2.39a2.86,2.86,0,0,0,2.29,3.45c5.13,1.49,8,6.59,13.1,8.13.28.09.45.55.66.83a1.13,1.13,0,0,0,1.28.54c.57-.22.53-.85.46-1.35s-.31-1.12-.41-1.68c-.32-2,.44-2.77,2.48-2.94,2.35-.19,4.88-1.35,6.32,1.76.13.29.76.36,1.16.53,2.88,1.16,5.75,2.34,8.63,3.49.36.14.68.41,1.2.12,2.27-1.26,4.62-.21,6.88,0Z" transform="translate(-0.59 -0.59)"/><path class="b" d="M301.71,198.59c.18,2.28-1.25,3.91-1.74,5.86-.93,3.7-2.83,7.14-3.55,10.92-.45,2.41-1.07,4.65-2.86,6.4a2.32,2.32,0,0,0-.76,1.74c-.05,4.25-3,6.38-6.18,8.32-1.09.67-1.73.16-2.18-.9-1.85-4.29-1.77-8.33,1.64-11.83,1.38-1.42,1.61-2.68.13-4.07a1.34,1.34,0,0,1-.48-1.39c1.38-4.72,2.52-9.5,8.06-11.47a5.09,5.09,0,0,0,3.55-5,7.32,7.32,0,0,1,1.23-3,1.21,1.21,0,0,1,1.27-.72c.65.11.41.65.55,1C300.93,195.86,302,197.11,301.71,198.59Zm-2.46-2.84c-.22.8-1.14,1.13-1.1,2.06a5.07,5.07,0,0,1-3.63,5.1c-5.14,1.8-6.42,6-7.49,10.55-.06.26-.42.45.05.88,1.81,1.62,1.63,3.36,0,5.08-2.88,3.07-3.66,6.48-1.9,10.46.39.89.61,1,1.37.68a7.53,7.53,0,0,0,4.9-6.61,2.19,2.19,0,0,1,.39-1.45c2.35-2.63,3.3-5.85,3.94-9.22.79-4.14,3.95-7.64,3.27-12.18a.68.68,0,0,1,.78-.81c1.05.09.92-.65,1-1.31A3.38,3.38,0,0,0,299.25,195.75Z" transform="translate(-0.59 -0.59)"/><path class="c" d="M262,74.13a4.18,4.18,0,0,0-.33-.77c-1.08-1.31-3.77-2.48-.34-4.17a.42.42,0,0,0,.11-.38c-1-1.52,17.39.32,17.55.44l7.27,5.57c.74.57,1.36,1.3.95,2.26-.29.67-.44,1.69-1.54,1.63a18.61,18.61,0,0,1-6.12-1.11c-2.86-1.15-5.59-3.09-8.81-2.8-2,.18-3.86,1.12-6.11.13.38,1,1.13,1.41.81,2.15a.66.66,0,0,1-1,.25c-1.63-1.46-3.33-.37-4.94-.25.34,2.11,1.35,4,1.93,6.06.41,1.45.57,3.88,3.57,3.77,1.38,0,2.83,1.5,4.33,0,0,0,.4.15.56.3a6.26,6.26,0,0,0,6.41,1.35,2,2,0,0,1,1.31.08c.61.28,1.76.42.66,1.58a3.15,3.15,0,0,0-.49,3.25c.24.89,1.07,2.06.39,2.91-2,2.52-.83,5.26-.6,7.84.17,1.89.22,4,1.27,5.68a26.75,26.75,0,0,1,3.91,8.34,1.37,1.37,0,0,0,.82,1.13c1.59.79,2,2.32,2.34,3.9s.19,3.48,1.37,4.74a18.62,18.62,0,0,1,4.51,8.41c.68,2.73,2.5,5,3.05,7.7a1,1,0,0,0,1,.8c-.58-1.83.41-2.93,1.76-3.9a11.14,11.14,0,0,1,3.66-1.83c.6-.16,1.32-.24,1.5-1,.31-1.34,1.23-1.58,2.47-1.65,2.4-.13,5.35-3.15,5.54-5.5a2.11,2.11,0,0,1,.33-1.24c1.95-2.5,1.93-2.73-.26-5-1.08-1.09-2.24-2.14-2.27-3.82,0-.65-.43-1.07-.62-1.61a2.75,2.75,0,0,0-1.21,1.2,4,4,0,0,1-4.18,1.7,2.11,2.11,0,0,1-2.06-2.56c0-.26-.32-.66-.59-.85-3.58-2.48-4.25-6.41-5.11-10.23-.22-1,.44-1.39,1.45-1.46,1.87-.14,3.3.91,3.28,2.43,0,2.53,1.81,3.74,2.93,5.44,1,1.5,2.18,2.33,4.13,1,1.38-.92,2.87-.93,2.88,1.48a1.93,1.93,0,0,0,1.87,1.86c2,0,3.66,1,5.68,1.54a10.43,10.43,0,0,0-.22-1.71,150.6,150.6,0,0,0-7.79-19.56c-2.76-5.52-5.33-11.15-8.83-16.28-.28-.41-.3-1.31-1.08-.7s.18.7.36,1.07a12.36,12.36,0,0,1,1.05,5.94c0,1-.88,1.05-1.66,1-5.65-.22-9.84-6.41-7.72-11.59.3-.73.26-1.06-.25-1.39C286.68,74.94,260.07,74.2,262,74.13Z" transform="translate(-0.59 -0.59)"/><path class="d" d="M75,256.9c.28.11.54.22.8.31,1.06.35,2.38,1.53,3.15.76s.41-2.35-.25-3.5c-.11-.19-.29-.38-.29-.57,0-.61.64-1.19.94-.89,1.42,1.45,3.31.28,4.81,1a1.72,1.72,0,0,0,2.28-.71c.49-.89,1.57-2.43,1-2.85-1.75-1.27-.86-4.14-3.25-4.88a.87.87,0,0,1-.4-1.31c.37-.51.87-.26,1.35.07a20.17,20.17,0,0,0,2.07,1.19c3.11,1.57,5.63.54,6.68-2.76a37.87,37.87,0,0,0,1.3-5c.2-1.19.11-2.31,1.68-1,.13.11.66.74,1,0,1.22-2.34,3.22-4.35,2.17-7.5-.42-1.26-1.5-3.72,1.73-3.77.32,0,.65-.57,1-.89a4.26,4.26,0,0,1,3-1.64c.55,0,1.25-.25,1.42-.82.4-1.35,1.17-1.1,2.29-1,2.86.22,4.76.58,5.9-2.31a29.41,29.41,0,0,0,1.81-5.23c.52-3.31,1.88-6.74.51-10.29-.6-1.55-.26-4,1.25-4.33a3.08,3.08,0,0,0,2.26-1.77c1.64-2.39,3-5,4.59-7.39,1-1.46.86-3.09-.25-4.88-1.71-2.74-4.84-3.36-6.94-5.43a7.91,7.91,0,0,0-6.38-2.3c-1.21.08-2.56.39-3.65-.44a1.6,1.6,0,0,0-2.18-.06c-1.28.8-2.54.62-2.63-1.23-.07-1.3-.53-1.83-1.86-1.87a3.06,3.06,0,0,1-1.74-.84c-1.73-1.57-2.66-.5-3.59.93-1.08,1.65-1.11,1.62-3,1.07-.1,0-.25.15-.39.17-1.08.19-2.06.07-1.92-1.34.17-1.59,1.12-.44,1.77-.4a2.42,2.42,0,0,0,1.26-.2,2,2,0,0,0,1.15-1.78c-.09-.85-1-.5-1.62-.67-1.47-.42-1.82.89-2.58,1.56-.49.44-1,1.13-1.64.41s-1.16-1.62-.25-2.31c1.94-1.47,2.4-2.81,1.59-5.44-1.43-4.58-5.14-8.09-9.9-7.66a5.19,5.19,0,0,1-4.26-1.62c-1.69-1.49-2.18-4.54-5.34-4.21-.07,0-.15-.67-.34-1-.35-.53-.43-1.22-1.15-1.53-1.06-.46-2.22-.85-2.36-2.32,0-.43-.58-.32-.94-.34-.84,0-.35.46-.38.82-.08.85-.76.88-1.46,1-1.58.22-3-.63-4.58-.47a2.87,2.87,0,0,1-3.14-1.41c-.61-1-1.4-1-2.36-.15a4,4,0,0,0-1.36,3.31c0,.44-.21,1.3-.92,1.25s-.83-.73-.78-1.36c.15-2-.55-4.06.78-6-1.66,1.41-3,3.12-5.18,3.67-.35.09-.63.6-.87,1-1.3,1.89-.76,4.69-3,6.12a.86.86,0,0,0-.07.83c1,1.54.35,3.19.45,4.81.23,3.44-1.43,6-3.22,8.6a5.44,5.44,0,0,0-.15,6.2,2.32,2.32,0,0,1-.08,2.11c-1.6,3.91-1.17,5.65,2,8.34a4.18,4.18,0,0,1,1.57,2.24c.39,2.41,1.74,4.41,2.55,6.63,1.52,4.18,3.61,7.86,8,9.89,3,1.41,5.58,7.05,4.74,10.33a9.16,9.16,0,0,0,.23,5.14,25.66,25.66,0,0,1,.78,6.95c.06,2.13-.32,4.29.2,6.4,1,4.13.77,8.25.35,12.43-.13,1.37-1.07,2.72-.23,4.26a9,9,0,0,1,1,4.86c0,.75-.12,1.71.66,2,2.32.71,2,2.51,2,4.24a1.57,1.57,0,0,0,.49,1.4c2,1.61.4,3.65-.22,4.69s-.33,1.38.15,2c1.25,1.65,1.2,3.71,1.84,5.55.89,2.58,1.73,5.26,3.66,7.24.43.44,1.45,2.4,3.27.23,1.15-1.35,1.09-1.85.47-2.89s0-1.42.63-2c1.15-1.13,1.09-3,2.53-4.05.4-.29.06-1.27-.61-1.67s-1.28-.69-1.87-1.1c-1.36-1-1.26-1.95,0-3,1.84-1.51,2.07-4,1-6.32C75.06,259.39,74.43,258.21,75,256.9Z" transform="translate(-0.59 -0.59)"/><path class="e" d="M79.67,24.11c-4.41,3.06-8.29,5.73-12.14,8.44-.53.37-1.29.86-1,1.59,1.16,2.61,0,4.7-1.43,6.67A40.24,40.24,0,0,1,62,44.24c-.36.4-1.07.67-.67,1.44.87,1.68-.08,3.34-.33,4.92a3,3,0,0,1-3.22,2.66c-1.24-.12-2.75-2.74-2.31-4.15s.32-3.12,1.14-4.59c-2.46.08-4.45.64-6,2.6-1.79,2.23-3.83,4.27-5.83,6.32a123.44,123.44,0,0,0-10.72,13,154.59,154.59,0,0,0-20.47,36.77c-.83,2.15-2.4,4.26-1.63,6.64,1.19,3.69,1.94,7.57,4.23,10.87a6,6,0,0,1,.93,4.62c-.6,3.15.18,4.8,3,6.3A15.63,15.63,0,0,1,23.52,134c.79.76,1.65,1.21,2.78.2.95-.85,2.12-1,2.89.46a7.81,7.81,0,0,0,2.07,2.49c1.38,1,2.62,2.83,4.87,2,.5-.2,1.39-.2.79.83-.39.68.1,1,.46,1.28a5.51,5.51,0,0,1,1.8,3.18c.56,2.36,2.81,3.23,4.27,4.77a1.94,1.94,0,0,0,3.26-.2,2.5,2.5,0,0,1,2.25-.62c.37,0,1,.19,1-.47s-.51-.85-1.1-.84a5.64,5.64,0,0,0-3,1.3c-.87.58-1.8,1-2.45,0-2.13-3.31-3-6.82-1.58-10.73.66-1.82-.56-3.52-2.34-3.18-1.23.23-2.47-.08-3.68.37s-1.3,0-1.08-1.2c.59-3.16,2-6.05,2.86-9.12.32-1.16,0-1.59-1-1.37-1.18.26-2.45.25-2.63,2.22-.34,3.69-3,5.4-6.63,4.86a1.37,1.37,0,0,1-1.28-1c-2.25-6.32-1.55-12.56.4-18.81.44-1.41,1.92-1.5,2.57-2.57a3.92,3.92,0,0,1,5.36-1.11c.46.32,1.16.81,1.52.66.75-.31.23-.94,0-1.46-.15-.34-.13-1,.2-1,1.31,0,2-2,3.7-1a4.18,4.18,0,0,0,2.93.32c2.53-.75,2.65.88,2.87,2.55.3,2.33.52,4.7,2.06,6.75.84-2.49.83-3.19-.11-7-1.3-5.23,0-8.87,4.52-12,1.38-1,2.94-2.41,3.31-3.59.76-2.41,1.57-5,1-7.92,2.37.86,3-.94,3.83-2.43,1.44-2.52,1.7-6,5.41-6.74.42-.09.76-.65,1.35-.59s.6-.14.46-.74a4.16,4.16,0,0,1,2-4.71,71.94,71.94,0,0,1,7.61-4.68c2.26-1.1,1.7-2.64,1.59-4.42,0-.68-.42-.81-.63-1.19s-1-.18-.81-.83a1,1,0,0,1,1.2-.75c1.31.16,2-.64,2.81-2.06a50.55,50.55,0,0,0-5.67,2.47c-2.18,1.21-3.22,3.55-5.24,4.88-.45.29-.78.73-1.28.13s.16-.71.37-1c2.3-3.34,5.44-5.89,8.28-8.72a4,4,0,0,1,3-1c1.85,0,3.61-.53,5.47-.54a4.09,4.09,0,0,0,3.88-2c.94-1.94,2.84-2.4,4.49-3.17,1.14-.54,2.63-1.67,2.4-2.19-.55-1.23.6-1.71.61-2.57a8.68,8.68,0,0,0-6.11,1.24c-.43.25-1,.3-1.4.56a.7.7,0,0,1-1.1-.27c-.26-.45.23-.62.45-.85a12.28,12.28,0,0,1,5.15-3.49c-.38-.57-.85-.62-1.1-.48a1.78,1.78,0,0,1-2.87-1c-.4-1.34-2.08-1.41-2.26-2.79-.06-.49.19-.66.58-.74,2-.41-.51-1.81.53-2.43-3.47.51-.36-1.38-.71-2-.17-.29-.12-1-.19-1-1.54-.08-1-1.45-1.46-2.77A11.33,11.33,0,0,1,82.58,30c-1.5,1-2.86-.6-4.28.07-.19.09,0-.47-.06-.71C78,27.63,78.93,26.25,79.67,24.11Z" transform="translate(-0.59 -0.59)"/><circle class="f" cx="161.41" cy="161.41" r="160"/></svg>