<?xml version="1.0" encoding="utf-8"?>
<!-- Generator: Adobe Illustrator 23.0.2, SVG Export Plug-In . SVG Version: 6.00 Build 0)  -->
<svg version="1.1" id="Ebene_1" xmlns="http://www.w3.org/2000/svg" xmlns:xlink="http://www.w3.org/1999/xlink" x="0px" y="0px"
	 width="579.8px" height="541.6px" viewBox="0 0 579.8 541.6" style="enable-background:new 0 0 579.8 541.6;" xml:space="preserve"
	>
<style type="text/css">
	.st0{fill:#625E58;}
	.st1{font-family:'GravurLL-CondLight';}
	.st2{font-size:48px;}
	.st3{fill:url(#SVGID_1_);}
	.st4{fill:url(#SVGID_2_);}
	.st5{fill:url(#SVGID_3_);}
	.st6{fill:url(#SVGID_4_);}
	.st7{fill:url(#SVGID_5_);}
	.st8{fill:url(#SVGID_6_);}
	.st9{fill:url(#SVGID_7_);}
	.st10{fill:url(#SVGID_8_);}
	.st11{fill:url(#SVGID_9_);}
	.st12{fill:url(#SVGID_10_);}
	.st13{fill:url(#SVGID_11_);}
	.st14{fill:url(#SVGID_12_);}
	.st15{fill:url(#SVGID_13_);}
	.st16{fill:url(#SVGID_14_);}
	.st17{fill:#E61F54;}
	.st18{fill:#9870AF;}
	.st19{fill:#F3E600;}
	.st20{fill:#6BC1B5;}
	.st21{fill:#4B59A4;}
	.st22{fill:#FFFFFF;}
	.st23{fill:url(#SVGID_15_);}
</style>
<g>
	<text transform="matrix(1 0 0 1 209.0425 40.7276)" class="st0 st1 st2"> </text>
	<g>
		<path class="st0" d="M31.3,408.1c0,0.6-0.5,0.9-1,0.9c-0.4,0-1-0.1-1-1c-0.2-3.4-3.1-5.5-6.4-5.5h-0.3c-3,0-6.1,2.1-6.1,6.1
			c0,4.2,3.1,5.7,8.2,8.1c3.8,1.8,7.1,4,7.1,9.3c0,5-3.7,8.3-8.6,8.3h-0.4c-4.7,0-8.8-3.2-8.8-8.6c0-0.6,0.4-1,1-1s1.1,0.4,1.1,1
			c0,4.2,3.2,6.6,6.8,6.6h0.4c3.8,0,6.6-2.4,6.6-6.3c0-3.9-2.6-6-6-7.6c-5.6-2.5-9.3-4.4-9.3-9.8c0-5.1,4.1-8,8.2-8h0.3
			c4.9,0,8.4,3.5,8.4,7.3v0.2H31.3z"/>
		<path class="st0" d="M53.6,427c0,4.2-3.4,7.4-7.5,7.4h-0.5c-4.2,0-7.5-3.2-7.5-7.4v-9.3c0-4.2,3.3-7.4,7.5-7.4h0.5
			c4.1,0,7.5,3.2,7.5,7.4V427z M40.2,427c0,3.1,2.4,5.5,5.5,5.5h0.5c3.1,0,5.5-2.4,5.5-5.5v-9.3c0-3.1-2.4-5.5-5.5-5.5h-0.5
			c-3.1,0-5.5,2.4-5.5,5.5C40.2,417.7,40.2,427,40.2,427z"/>
		<path class="st0" d="M76.5,433.5c0,0.6-0.4,0.9-1,0.9s-1-0.3-1-0.9v-2.1c-1.2,1.9-3.3,3-5.5,3h-0.5c-4,0-7.4-3.2-7.4-7.4v-15.7
			c0-0.6,0.4-0.9,1-0.9s1,0.3,1,0.9v15.6c0,3.2,2.4,5.6,5.5,5.6H69c3.1,0,5.5-3,5.5-5.9v-15.3c0-0.6,0.4-0.9,1-0.9s1,0.3,1,0.9
			V433.5z"/>
		<path class="st0" d="M87.9,410.6h4.5c0.6,0,0.9,0.4,0.9,0.9c0,0.6-0.3,1-0.9,1h-4.5v15.8c0,2.2,1.5,4,3.9,4h0.5c0.7,0,1,0.4,1,1
			s-0.3,1-1,1h-0.6c-3.7,0-5.8-2.9-5.8-5.9v-15.8h-2.6c-0.5,0-0.9-0.4-0.9-1c0-0.5,0.4-0.9,0.9-0.9h2.6v-9c0-0.6,0.4-0.9,1-0.9
			s1,0.3,1,0.9V410.6z"/>
		<path class="st0" d="M114.4,433.5c0,0.6-0.4,0.9-1,0.9s-1-0.3-1-0.9v-15.6c0-3-2.3-5.6-5.5-5.6h-0.3c-3,0-5.6,2.8-5.6,5.9v15.3
			c0,0.6-0.4,0.9-1,0.9s-1-0.3-1-0.9v-31.9c0-0.6,0.4-0.9,1-0.9s1,0.3,1,0.9v11.7c1-1.5,3.3-2.9,5.5-2.9h0.4c4.3,0,7.5,3.3,7.5,7.5
			V433.5z"/>
		<path class="st0" d="M122.8,422.2c-0.6,0-1-0.5-1-1s0.3-1,1-1h9.4c0.6,0,1,0.5,1,1s-0.3,1-1,1H122.8z"/>
		<path class="st0" d="M15.6,477c0,1.7,0.2,3.2,1.9,3.4c0.8,0.1,0.9,0.6,0.9,1c0,0.5-0.3,1-0.9,1h-0.2c-2.4,0-3.3-2.1-3.5-3.8
			c-0.9,1.9-3.6,3.8-6.5,3.8H7.1c-3.9,0-7.1-2.1-7.1-6.5v-0.3c0-2.6,1.3-4.1,2.8-5c1.9-1.2,4.8-1.7,8-2.3c2-0.3,2.6-1.3,2.6-2.2
			v-0.5c0-3-2.3-5.2-5.2-5.2H8c-2.6,0-4.5,1.3-5.2,3.7c-0.1,0.5-0.5,0.6-0.9,0.6c-0.5,0-1-0.3-1-1c0-0.5,0.2-0.9,0.4-1.3
			c1.2-2.6,4-3.9,6.7-3.9h0.2c3.9,0,7.2,2.9,7.2,7V477H15.6z M13.6,468.9c-0.4,0.4-1.8,1-2.6,1.1c-2.9,0.6-8.9,1.1-8.9,5.5v0.3
			c0,3,1.9,4.7,5.1,4.7h0.2c3.7,0,6.2-3,6.2-6.4C13.6,474.1,13.6,468.9,13.6,468.9z"/>
		<path class="st0" d="M26.2,461.3c1-1.5,3.1-3,5.6-3h0.4c2.7,0,5.1,1.5,6.4,3.7c1.3-2.2,3.8-3.7,6.5-3.7h0.5c4.1,0,7.4,3.2,7.4,7.5
			v15.6c0,0.6-0.4,0.9-1,0.9s-1-0.3-1-0.9v-15.7c0-3-2.4-5.5-5.5-5.5h-0.4c-3.2,0-5.6,2.5-5.6,5.5v15.7c0,0.6-0.4,0.9-1,0.9
			s-1-0.3-1-0.9v-15.7c0-3-2.3-5.5-5.4-5.5h-0.4c-3.1,0-5.5,2.9-5.5,5.7v15.6c0,0.6-0.4,0.9-1,0.9s-1-0.3-1-0.9v-22.2
			c0-0.6,0.4-0.9,1-0.9s1,0.3,1,0.9C26.2,459.3,26.2,461.3,26.2,461.3z"/>
		<path class="st0" d="M67.9,482.4c-4.2,0-7.5-3.2-7.5-7.4v-9.3c0-4.2,3.3-7.4,7.5-7.4h0.4c4.1,0,7.5,3.2,7.5,7.4v4.7
			c0,0.5-0.4,0.9-1,0.9H62.5v3.7c0,3.1,2.4,5.5,5.5,5.5h0.5c2.6,0,4.4-1.5,5.2-3.6c0.1-0.3,0.4-0.5,0.9-0.5c0.6,0,1,0.5,1,1
			c0,0.1,0,0.4-0.3,0.9c-1.1,2.4-3.6,4.2-6.8,4.2h-0.6V482.4z M73.8,465.7c0-3.1-2.4-5.5-5.5-5.5h-0.4c-3.1,0-5.5,2.4-5.5,5.5v3.7
			h11.3L73.8,465.7L73.8,465.7z"/>
		<path class="st0" d="M85.1,461.2c0.9-1.5,2.8-2.9,4.9-2.9c2.4,0,4.2,1.1,5.1,2.4c0.1,0.2,0.2,0.4,0.2,0.6c0,0.6-0.4,1-1,1
			c-0.3,0-0.5-0.2-0.6-0.3c-1-1.2-2.2-1.8-3.8-1.8c-2.8,0-4.8,3.6-4.8,5.7v15.5c0,0.6-0.4,0.9-1,0.9s-1-0.3-1-0.9v-22.2
			c0-0.6,0.4-0.9,1-0.9s1,0.3,1,0.9C85.1,459.2,85.1,461.2,85.1,461.2z"/>
		<path class="st0" d="M102.6,481.5c0,0.6-0.4,0.9-1,0.9s-1-0.3-1-0.9v-22.2c0-0.6,0.4-0.9,1-0.9s1,0.3,1,0.9V481.5z M100.6,451.6
			c0-0.5,0.4-0.9,1-0.9c0.5,0,1,0.4,1,0.9v2.2c0,0.5-0.5,0.9-1,0.9s-1-0.4-1-0.9V451.6z"/>
		<path class="st0" d="M117.7,460.2c-3.1,0-5.4,2.4-5.4,5.5v9.3c0,3.2,2.4,5.5,5.4,5.5h0.4c3.1,0,5.5-2.4,5.5-5.4
			c0-0.6,0.5-0.9,1-0.9s1,0.4,1,1c0,3.7-3.1,7.2-7.4,7.2h-0.4c-4.1,0-7.4-3.2-7.4-7.4v-9.3c0-4.2,3.3-7.4,7.4-7.4h0.4
			c4.2,0,7.4,3.3,7.4,7.3c0,0.6-0.5,0.9-1,0.9c-0.4,0-1-0.3-1-0.9c0-2.9-2.4-5.4-5.5-5.4L117.7,460.2L117.7,460.2z"/>
		<path class="st0" d="M146.5,477c0,1.7,0.2,3.2,1.9,3.4c0.8,0.1,0.9,0.6,0.9,1c0,0.5-0.3,1-0.9,1h-0.2c-2.4,0-3.3-2.1-3.5-3.8
			c-0.9,1.9-3.6,3.8-6.5,3.8H138c-3.9,0-7.1-2.1-7.1-6.5v-0.3c0-2.6,1.3-4.1,2.8-5c1.9-1.2,4.8-1.7,8-2.3c2-0.3,2.6-1.3,2.6-2.2
			v-0.5c0-3-2.3-5.2-5.2-5.2h-0.2c-2.6,0-4.5,1.3-5.2,3.7c-0.1,0.5-0.5,0.6-0.9,0.6c-0.5,0-1-0.3-1-1c0-0.5,0.2-0.9,0.4-1.3
			c1.2-2.6,4-3.9,6.7-3.9h0.2c3.9,0,7.2,2.9,7.2,7V477H146.5z M144.5,468.9c-0.4,0.4-1.8,1-2.6,1.1c-2.9,0.6-8.9,1.1-8.9,5.5v0.3
			c0,3,1.9,4.7,5.1,4.7h0.2c3.7,0,6.2-3,6.2-6.4V468.9z"/>
	</g>
	<g>
		<path class="st0" d="M33.1,60.7c0-0.6,0.4-0.9,1-0.9s1,0.3,1,0.9v31.8c0,0.5-0.4,0.9-1,0.9h-0.5c-0.6,0-0.9-0.2-1-0.6L19,64.5
			v28.1c0,0.6-0.5,0.9-1,0.9s-1-0.3-1-0.9V60.8c0-0.5,0.4-0.9,1-0.9h0.5c0.6,0,0.9,0.3,1,0.6l13.6,28.4V60.7z"/>
		<path class="st0" d="M58.6,86.1c0,4.2-3.4,7.4-7.5,7.4h-0.5c-4.2,0-7.5-3.2-7.5-7.4v-9.3c0-4.2,3.3-7.4,7.5-7.4h0.5
			c4.1,0,7.5,3.2,7.5,7.4V86.1z M45.1,86.1c0,3.1,2.4,5.5,5.5,5.5h0.5c3.1,0,5.5-2.4,5.5-5.5v-9.3c0-3.1-2.4-5.5-5.5-5.5h-0.5
			c-3.1,0-5.5,2.4-5.5,5.5V86.1z"/>
		<path class="st0" d="M68.2,72.4c0.9-1.5,2.8-2.9,4.9-2.9c2.4,0,4.2,1.1,5.1,2.4c0.1,0.2,0.2,0.4,0.2,0.6c0,0.6-0.4,1-1,1
			c-0.3,0-0.5-0.2-0.6-0.3c-1-1.2-2.2-1.8-3.8-1.8c-2.8,0-4.8,3.6-4.8,5.7v15.5c0,0.6-0.4,0.9-1,0.9s-1-0.3-1-0.9V70.4
			c0-0.6,0.4-0.9,1-0.9s1,0.3,1,0.9C68.2,70.4,68.2,72.4,68.2,72.4z"/>
		<path class="st0" d="M86.6,69.7h4.5c0.6,0,0.9,0.4,0.9,0.9c0,0.6-0.3,1-0.9,1h-4.5v15.8c0,2.2,1.5,4,3.9,4H91c0.7,0,1,0.4,1,1
			s-0.3,1-1,1h-0.6c-3.7,0-5.8-2.9-5.8-5.9V71.7H82c-0.5,0-0.9-0.4-0.9-1c0-0.5,0.4-0.9,0.9-0.9h2.6v-9c0-0.6,0.4-0.9,1-0.9
			s1,0.3,1,0.9V69.7z"/>
		<path class="st0" d="M113.1,92.6c0,0.6-0.4,0.9-1,0.9s-1-0.3-1-0.9V77c0-3-2.3-5.6-5.5-5.6h-0.3c-3,0-5.6,2.8-5.6,5.9v15.3
			c0,0.6-0.4,0.9-1,0.9s-1-0.3-1-0.9V60.7c0-0.6,0.4-0.9,1-0.9s1,0.3,1,0.9v11.7c1-1.5,3.3-2.9,5.5-2.9h0.4c4.3,0,7.5,3.3,7.5,7.5
			V92.6z"/>
		<path class="st0" d="M121.4,81.4c-0.6,0-1-0.5-1-1s0.3-1,1-1h9.4c0.6,0,1,0.5,1,1s-0.3,1-1,1H121.4z"/>
		<path class="st0" d="M15.6,136.2c0,1.7,0.2,3.2,1.9,3.4c0.8,0.1,0.9,0.6,0.9,1c0,0.5-0.3,1-0.9,1h-0.2c-2.4,0-3.3-2.1-3.5-3.8
			c-0.9,1.9-3.6,3.8-6.5,3.8H7.1c-3.9,0-7.1-2.1-7.1-6.5v-0.3c0-2.6,1.3-4.1,2.8-5c1.9-1.2,4.8-1.7,8-2.3c2-0.3,2.6-1.3,2.6-2.2
			v-0.5c0-3-2.3-5.2-5.2-5.2H8c-2.6,0-4.5,1.3-5.2,3.7c-0.1,0.5-0.5,0.6-0.9,0.6c-0.5,0-1-0.3-1-1c0-0.5,0.2-0.9,0.4-1.3
			c1.2-2.6,4-3.9,6.7-3.9h0.2c3.9,0,7.2,2.9,7.2,7v11.5H15.6z M13.6,128.1c-0.4,0.4-1.8,1-2.6,1.1c-2.9,0.6-8.9,1.1-8.9,5.5v0.3
			c0,3,1.9,4.7,5.1,4.7h0.2c3.7,0,6.2-3,6.2-6.4C13.6,133.3,13.6,128.1,13.6,128.1z"/>
		<path class="st0" d="M26.2,120.5c1-1.5,3.1-3,5.6-3h0.4c2.7,0,5.1,1.5,6.4,3.7c1.3-2.2,3.8-3.7,6.5-3.7h0.5c4.1,0,7.4,3.2,7.4,7.5
			v15.6c0,0.6-0.4,0.9-1,0.9s-1-0.3-1-0.9v-15.7c0-3-2.4-5.5-5.5-5.5h-0.4c-3.2,0-5.6,2.5-5.6,5.5v15.7c0,0.6-0.4,0.9-1,0.9
			s-1-0.3-1-0.9v-15.7c0-3-2.3-5.5-5.4-5.5h-0.4c-3.1,0-5.5,2.9-5.5,5.7v15.6c0,0.6-0.4,0.9-1,0.9s-1-0.3-1-0.9v-22.3
			c0-0.6,0.4-0.9,1-0.9s1,0.3,1,0.9C26.2,118.4,26.2,120.5,26.2,120.5z"/>
		<path class="st0" d="M67.9,141.5c-4.2,0-7.5-3.2-7.5-7.4v-9.3c0-4.2,3.3-7.4,7.5-7.4h0.4c4.1,0,7.5,3.2,7.5,7.4v4.7
			c0,0.5-0.4,0.9-1,0.9H62.5v3.7c0,3.1,2.4,5.5,5.5,5.5h0.5c2.6,0,4.4-1.5,5.2-3.6c0.1-0.3,0.4-0.5,0.9-0.5c0.6,0,1,0.5,1,1
			c0,0.1,0,0.4-0.3,0.9c-1.1,2.4-3.6,4.2-6.8,4.2h-0.6V141.5z M73.8,124.9c0-3.1-2.4-5.5-5.5-5.5h-0.4c-3.1,0-5.5,2.4-5.5,5.5v3.7
			h11.3L73.8,124.9L73.8,124.9z"/>
		<path class="st0" d="M85.1,120.4c0.9-1.5,2.8-2.9,4.9-2.9c2.4,0,4.2,1.1,5.1,2.4c0.1,0.2,0.2,0.4,0.2,0.6c0,0.6-0.4,1-1,1
			c-0.3,0-0.5-0.2-0.6-0.3c-1-1.2-2.2-1.8-3.8-1.8c-2.8,0-4.8,3.6-4.8,5.7v15.5c0,0.6-0.4,0.9-1,0.9s-1-0.3-1-0.9v-22.2
			c0-0.6,0.4-0.9,1-0.9s1,0.3,1,0.9C85.1,118.4,85.1,120.4,85.1,120.4z"/>
		<path class="st0" d="M102.6,140.6c0,0.6-0.4,0.9-1,0.9s-1-0.3-1-0.9v-22.2c0-0.6,0.4-0.9,1-0.9s1,0.3,1,0.9V140.6z M100.6,110.8
			c0-0.5,0.4-0.9,1-0.9c0.5,0,1,0.4,1,0.9v2.2c0,0.5-0.5,0.9-1,0.9s-1-0.4-1-0.9V110.8z"/>
		<path class="st0" d="M117.7,119.4c-3.1,0-5.4,2.4-5.4,5.5v9.3c0,3.2,2.4,5.5,5.4,5.5h0.4c3.1,0,5.5-2.4,5.5-5.4
			c0-0.6,0.5-0.9,1-0.9s1,0.4,1,1c0,3.7-3.1,7.2-7.4,7.2h-0.4c-4.1,0-7.4-3.2-7.4-7.4v-9.3c0-4.2,3.3-7.4,7.4-7.4h0.4
			c4.2,0,7.4,3.3,7.4,7.3c0,0.6-0.5,0.9-1,0.9c-0.4,0-1-0.3-1-0.9c0-2.9-2.4-5.4-5.5-5.4L117.7,119.4L117.7,119.4z"/>
		<path class="st0" d="M146.5,136.2c0,1.7,0.2,3.2,1.9,3.4c0.8,0.1,0.9,0.6,0.9,1c0,0.5-0.3,1-0.9,1h-0.2c-2.4,0-3.3-2.1-3.5-3.8
			c-0.9,1.9-3.6,3.8-6.5,3.8H138c-3.9,0-7.1-2.1-7.1-6.5v-0.3c0-2.6,1.3-4.1,2.8-5c1.9-1.2,4.8-1.7,8-2.3c2-0.3,2.6-1.3,2.6-2.2
			v-0.5c0-3-2.3-5.2-5.2-5.2h-0.2c-2.6,0-4.5,1.3-5.2,3.7c-0.1,0.5-0.5,0.6-0.9,0.6c-0.5,0-1-0.3-1-1c0-0.5,0.2-0.9,0.4-1.3
			c1.2-2.6,4-3.9,6.7-3.9h0.2c3.9,0,7.2,2.9,7.2,7v11.5H146.5z M144.5,128.1c-0.4,0.4-1.8,1-2.6,1.1c-2.9,0.6-8.9,1.1-8.9,5.5v0.3
			c0,3,1.9,4.7,5.1,4.7h0.2c3.7,0,6.2-3,6.2-6.4V128.1z"/>
	</g>
	<g>
		<path class="st0" d="M218.7,532.6l-2.4,8.3c-0.1,0.4-0.5,0.7-1,0.7c-0.6,0-1-0.4-1-1c0-0.1,0-0.4,0.1-0.7l9.3-31.3
			c0.1-0.5,0.5-0.8,1-0.8h0.2c0.5,0,0.9,0.2,1.1,0.8l9.2,31.3c0.1,0.4,0.1,0.6,0.1,0.8c0,0.5-0.3,0.9-1,0.9c-0.4,0-0.8-0.3-1-0.7
			l-2.4-8.3H218.7z M224.9,511.4l-5.6,19.2h11.2L224.9,511.4z"/>
		<path class="st0" d="M244.1,540.7c0,0.6-0.4,0.9-1,0.9s-1-0.3-1-0.9v-21h-2.6c-0.5,0-0.9-0.4-0.9-1c0-0.5,0.4-0.9,0.9-0.9h2.6
			v-3.9c0-3.3,2.2-5.9,5.7-5.9h0.9c0.7,0,1.1,0.5,1.1,1.1c0,0.5-0.4,1-1,1h-1c-2.3,0-3.7,1.7-3.7,3.8v3.9h4.5c0.5,0,0.9,0.4,0.9,0.9
			c0,0.6-0.4,1-0.9,1h-4.5V540.7z"/>
		<path class="st0" d="M257,520.4c0.9-1.5,2.8-2.9,4.9-2.9c2.4,0,4.2,1.1,5.1,2.4c0.1,0.2,0.2,0.4,0.2,0.6c0,0.6-0.4,1-1,1
			c-0.3,0-0.5-0.2-0.6-0.3c-1-1.2-2.2-1.8-3.8-1.8c-2.8,0-4.8,3.6-4.8,5.7v15.5c0,0.6-0.4,0.9-1,0.9s-1-0.3-1-0.9v-22.2
			c0-0.6,0.4-0.9,1-0.9s1,0.3,1,0.9L257,520.4L257,520.4z"/>
		<path class="st0" d="M274.5,540.7c0,0.6-0.4,0.9-1,0.9s-1-0.3-1-0.9v-22.3c0-0.6,0.4-0.9,1-0.9s1,0.3,1,0.9V540.7z M272.5,510.8
			c0-0.5,0.4-0.9,1-0.9s1,0.4,1,0.9v2.2c0,0.5-0.5,0.9-1,0.9s-1-0.4-1-0.9V510.8z"/>
		<path class="st0" d="M289.6,519.4c-3.1,0-5.4,2.4-5.4,5.5v9.3c0,3.2,2.4,5.5,5.4,5.5h0.4c3.1,0,5.5-2.4,5.5-5.4
			c0-0.6,0.5-0.9,1-0.9s1,0.4,1,1c0,3.7-3.1,7.2-7.4,7.2h-0.4c-4.1,0-7.4-3.2-7.4-7.4v-9.3c0-4.2,3.3-7.4,7.4-7.4h0.4
			c4.2,0,7.4,3.3,7.4,7.3c0,0.6-0.5,0.9-1,0.9c-0.4,0-1-0.3-1-0.9c0-2.9-2.4-5.4-5.5-5.4L289.6,519.4L289.6,519.4z"/>
		<path class="st0" d="M318.4,536.2c0,1.7,0.2,3.2,1.9,3.4c0.8,0.1,0.9,0.6,0.9,1c0,0.5-0.3,1-0.9,1h-0.2c-2.4,0-3.3-2.1-3.5-3.8
			c-0.9,1.9-3.6,3.8-6.5,3.8H310c-3.9,0-7.1-2.1-7.1-6.5v-0.3c0-2.6,1.3-4.1,2.8-5c1.9-1.2,4.8-1.7,8-2.3c2-0.3,2.6-1.3,2.6-2.2
			v-0.5c0-3-2.3-5.2-5.2-5.2H311c-2.6,0-4.5,1.3-5.2,3.7c-0.1,0.5-0.5,0.6-0.9,0.6c-0.5,0-1-0.3-1-1c0-0.5,0.2-0.9,0.4-1.3
			c1.2-2.6,4-3.9,6.7-3.9h0.2c3.9,0,7.2,2.9,7.2,7L318.4,536.2L318.4,536.2z M316.4,528.1c-0.4,0.4-1.8,1-2.6,1.1
			c-2.9,0.6-8.9,1.1-8.9,5.5v0.3c0,3,1.9,4.7,5.1,4.7h0.2c3.7,0,6.2-3,6.2-6.4L316.4,528.1L316.4,528.1z"/>
	</g>
	<g>
		<path class="st0" d="M419.4,132.5l-2.4,8.3c-0.1,0.4-0.5,0.7-1,0.7c-0.6,0-1-0.4-1-1c0-0.1,0-0.4,0.1-0.7l9.3-31.3
			c0.1-0.5,0.5-0.8,1-0.8h0.2c0.5,0,0.9,0.2,1.1,0.8l9.2,31.3c0.1,0.4,0.1,0.6,0.1,0.8c0,0.5-0.3,0.9-1,0.9c-0.4,0-0.8-0.3-1-0.7
			l-2.4-8.3L419.4,132.5L419.4,132.5z M425.6,111.4l-5.6,19.2h11.2L425.6,111.4z"/>
		<path class="st0" d="M449.2,128.5c4.2,1.3,6.7,2.9,6.7,6.6c0,4.6-3.5,6.4-7.4,6.4c-3.6,0-6.6-2.3-7.6-4.2c-0.2-0.4-0.3-0.7-0.3-1
			c0-0.4,0.4-1,1-1s0.9,0.4,1.1,0.7c1,1.9,3.1,3.5,5.9,3.5c3.3,0,5.4-1.4,5.4-4.5c0-2.9-2.5-3.9-5.4-4.8c-4-1.3-7.1-2.6-7.1-6.6
			c0-4.1,3.4-6.1,7.1-6.1c3.2,0,5.3,1.3,6.3,2.6c0.3,0.3,0.4,0.6,0.4,0.8c0,0.5-0.4,1-1,1c-0.2,0-0.4,0-0.6-0.2
			c-1.3-1.2-2.6-2.2-5.1-2.2c-2.7,0-5.1,1.3-5.1,4.2C443.3,126.3,445.5,127.4,449.2,128.5z"/>
		<path class="st0" d="M464.8,140.6c0,0.6-0.4,0.9-1,0.9s-1-0.3-1-0.9v-22.2c0-0.6,0.4-0.9,1-0.9s1,0.3,1,0.9V140.6z M462.8,110.8
			c0-0.5,0.4-0.9,1-0.9c0.5,0,1,0.4,1,0.9v2.2c0,0.5-0.5,0.9-1,0.9s-1-0.4-1-0.9V110.8z"/>
		<path class="st0" d="M487.1,136.2c0,1.7,0.2,3.2,1.9,3.4c0.8,0.1,0.9,0.6,0.9,1c0,0.5-0.3,1-0.9,1h-0.2c-2.4,0-3.3-2.1-3.5-3.8
			c-0.9,1.9-3.6,3.8-6.5,3.8h-0.2c-3.9,0-7.1-2.1-7.1-6.5v-0.3c0-2.6,1.3-4.1,2.8-5c1.9-1.2,4.8-1.7,8-2.3c2-0.3,2.6-1.3,2.6-2.2
			v-0.5c0-3-2.3-5.2-5.2-5.2h-0.2c-2.6,0-4.5,1.3-5.2,3.7c-0.1,0.5-0.5,0.6-0.9,0.6c-0.5,0-1-0.3-1-1c0-0.5,0.2-0.9,0.4-1.3
			c1.2-2.6,4-3.9,6.7-3.9h0.2c3.9,0,7.2,2.9,7.2,7v11.5H487.1z M485.2,128.1c-0.4,0.4-1.8,1-2.6,1.1c-2.9,0.6-8.9,1.1-8.9,5.5v0.3
			c0,3,1.9,4.7,5.1,4.7h0.2c3.7,0,6.2-3,6.2-6.4L485.2,128.1L485.2,128.1z"/>
	</g>
	<g>
		<path class="st0" d="M222.6,7.9c0.6,0,0.9,0.5,0.9,1s-0.3,1-0.9,1h-14v13.2h9.7c0.6,0,0.9,0.4,0.9,1c0,0.5-0.3,1-0.9,1h-9.7v14.3
			h14c0.6,0,1,0.5,1,1s-0.3,1-1,1h-15.1c-0.5,0-1-0.3-1-0.9V8.9c0-0.6,0.4-0.9,1-0.9h15.1V7.9z"/>
		<path class="st0" d="M243.9,40.6c0,0.6-0.4,0.9-1,0.9s-1-0.3-1-0.9v-2.1c-1.2,1.9-3.3,3-5.5,3h-0.5c-4,0-7.4-3.2-7.4-7.4V18.4
			c0-0.6,0.4-0.9,1-0.9s1,0.3,1,0.9V34c0,3.2,2.4,5.6,5.5,5.6h0.4c3.1,0,5.5-3,5.5-5.9V18.4c0-0.6,0.4-0.9,1-0.9s1,0.3,1,0.9V40.6z"
			/>
		<path class="st0" d="M254.4,20.4c0.9-1.5,2.8-2.9,4.9-2.9c2.4,0,4.2,1.1,5.1,2.4c0.1,0.2,0.2,0.4,0.2,0.6c0,0.6-0.4,1-1,1
			c-0.3,0-0.5-0.2-0.6-0.3c-1-1.2-2.2-1.8-3.8-1.8c-2.8,0-4.8,3.6-4.8,5.7v15.5c0,0.6-0.4,0.9-1,0.9s-1-0.3-1-0.9V18.4
			c0-0.6,0.4-0.9,1-0.9s1,0.3,1,0.9L254.4,20.4L254.4,20.4z"/>
		<path class="st0" d="M284.3,34.1c0,4.2-3.4,7.4-7.5,7.4h-0.5c-4.2,0-7.5-3.2-7.5-7.4v-9.3c0-4.2,3.3-7.4,7.5-7.4h0.5
			c4.1,0,7.5,3.2,7.5,7.4V34.1z M270.9,34.1c0,3.1,2.4,5.5,5.5,5.5h0.5c3.1,0,5.5-2.4,5.5-5.5v-9.3c0-3.1-2.4-5.5-5.5-5.5h-0.5
			c-3.1,0-5.5,2.4-5.5,5.5V34.1z"/>
		<path class="st0" d="M292,18.4c0-0.6,0.4-0.9,1-0.9s1,0.3,1,0.9v2c1.2-1.8,3.7-2.9,5.6-2.9h0.3c4.1,0,7.5,3.2,7.5,7.4v9.3
			c0,4.1-3.4,7.3-7.5,7.3h-0.4c-2.3,0-4.5-1.1-5.6-2.7v11.8c0,0.6-0.4,0.9-1,0.9s-1-0.3-1-0.9V18.4H292z M305.4,24.9
			c0-3.1-2.3-5.5-5.5-5.5h-0.4c-3.1,0-5.5,2.8-5.5,6v8.3c0,3.3,2.5,6,5.5,6h0.4c3,0,5.5-2.3,5.5-5.4V24.9z"/>
		<path class="st0" d="M321.7,41.5c-4.2,0-7.5-3.2-7.5-7.4v-9.3c0-4.2,3.3-7.4,7.5-7.4h0.4c4.1,0,7.5,3.2,7.5,7.4v4.7
			c0,0.5-0.4,0.9-1,0.9h-12.3v3.7c0,3.1,2.4,5.5,5.5,5.5h0.5c2.6,0,4.4-1.5,5.2-3.6c0.1-0.3,0.4-0.5,0.9-0.5c0.6,0,1,0.5,1,1
			c0,0.1,0,0.4-0.3,0.9c-1.1,2.4-3.6,4.2-6.8,4.2L321.7,41.5L321.7,41.5z M327.6,24.9c0-3.1-2.4-5.5-5.5-5.5h-0.4
			c-3.1,0-5.5,2.4-5.5,5.5v3.7h11.3v-3.7H327.6z"/>
	</g>
	<g>
		<path class="st0" d="M419.4,425.3l-2.4,8.3c-0.1,0.4-0.5,0.7-1,0.7c-0.6,0-1-0.4-1-1c0-0.1,0-0.4,0.1-0.7l9.3-31.3
			c0.1-0.5,0.5-0.8,1-0.8h0.2c0.5,0,0.9,0.2,1.1,0.8l9.2,31.3c0.1,0.4,0.1,0.6,0.1,0.8c0,0.5-0.3,0.9-1,0.9c-0.4,0-0.8-0.3-1-0.7
			l-2.4-8.3H419.4z M425.6,404.2l-5.6,19.2h11.2L425.6,404.2z"/>
		<path class="st0" d="M457.2,433.5c0,0.6-0.4,0.9-1,0.9s-1-0.3-1-0.9v-2.1c-1.2,1.9-3.3,3-5.5,3h-0.5c-4,0-7.4-3.2-7.4-7.4v-15.7
			c0-0.6,0.4-0.9,1-0.9s1,0.3,1,0.9v15.6c0,3.2,2.4,5.6,5.5,5.6h0.4c3.1,0,5.5-3,5.5-5.9v-15.3c0-0.6,0.4-0.9,1-0.9s1,0.3,1,0.9
			V433.5z"/>
		<path class="st0" d="M472.7,421.4c4.2,1.3,6.7,2.9,6.7,6.6c0,4.6-3.5,6.4-7.4,6.4c-3.6,0-6.6-2.3-7.6-4.2c-0.2-0.4-0.3-0.7-0.3-1
			c0-0.4,0.4-1,1-1s0.9,0.4,1.1,0.7c1,1.9,3.1,3.5,5.9,3.5c3.3,0,5.4-1.4,5.4-4.5c0-2.9-2.5-3.9-5.4-4.8c-4-1.3-7.1-2.6-7.1-6.6
			c0-4.1,3.4-6.1,7.1-6.1c3.2,0,5.3,1.3,6.3,2.6c0.3,0.3,0.4,0.6,0.4,0.8c0,0.5-0.4,1-1,1c-0.2,0-0.4,0-0.6-0.2
			c-1.3-1.2-2.6-2.2-5.1-2.2c-2.7,0-5.1,1.3-5.1,4.2C466.8,419.1,469,420.2,472.7,421.4z"/>
		<path class="st0" d="M489.2,410.6h4.5c0.6,0,0.9,0.4,0.9,0.9c0,0.6-0.3,1-0.9,1h-4.5v15.8c0,2.2,1.5,4,3.9,4h0.5c0.7,0,1,0.4,1,1
			s-0.3,1-1,1H493c-3.7,0-5.8-2.9-5.8-5.9v-15.8h-2.6c-0.5,0-0.9-0.4-0.9-1c0-0.5,0.4-0.9,0.9-0.9h2.6v-9c0-0.6,0.4-0.9,1-0.9
			s1,0.3,1,0.9L489.2,410.6L489.2,410.6z"/>
		<path class="st0" d="M502.2,413.2c0.9-1.5,2.8-2.9,4.9-2.9c2.4,0,4.2,1.1,5.1,2.4c0.1,0.2,0.2,0.4,0.2,0.6c0,0.6-0.4,1-1,1
			c-0.3,0-0.5-0.2-0.6-0.3c-1-1.2-2.2-1.8-3.8-1.8c-2.8,0-4.8,3.6-4.8,5.7v15.5c0,0.6-0.4,0.9-1,0.9s-1-0.3-1-0.9v-22.2
			c0-0.6,0.4-0.9,1-0.9s1,0.3,1,0.9L502.2,413.2L502.2,413.2z"/>
		<path class="st0" d="M531.6,429c0,1.7,0.2,3.2,1.9,3.4c0.8,0.1,0.9,0.6,0.9,1c0,0.5-0.3,1-0.9,1h-0.2c-2.4,0-3.3-2.1-3.5-3.8
			c-0.9,1.9-3.6,3.8-6.5,3.8h-0.2c-3.9,0-7.1-2.1-7.1-6.5v-0.3c0-2.6,1.3-4.1,2.8-5c1.9-1.2,4.8-1.7,8-2.3c2-0.3,2.6-1.3,2.6-2.2
			v-0.5c0-3-2.3-5.2-5.2-5.2H524c-2.6,0-4.5,1.3-5.2,3.7c-0.1,0.5-0.5,0.6-0.9,0.6c-0.5,0-1-0.3-1-1c0-0.5,0.2-0.9,0.4-1.3
			c1.2-2.6,4-3.9,6.7-3.9h0.2c3.9,0,7.2,2.9,7.2,7V429H531.6z M529.6,420.9c-0.4,0.4-1.8,1-2.6,1.1c-2.9,0.6-8.9,1.1-8.9,5.5v0.3
			c0,3,1.9,4.7,5.1,4.7h0.2c3.7,0,6.2-3,6.2-6.4V420.9z"/>
		<path class="st0" d="M540,401.5c0-0.6,0.4-0.9,1-0.9s1,0.3,1,0.9v26.7c0,2.2,1.4,3.9,3.8,3.9h0.6c0.7,0,1,0.4,1,1s-0.3,1-1,1.1
			h-0.7c-3.7,0-5.8-2.9-5.8-5.9v-26.8H540z"/>
		<path class="st0" d="M554.6,433.5c0,0.6-0.4,0.9-1,0.9s-1-0.3-1-0.9v-22.2c0-0.6,0.4-0.9,1-0.9s1,0.3,1,0.9V433.5z M552.7,403.6
			c0-0.5,0.4-0.9,1-0.9s1,0.4,1,0.9v2.2c0,0.5-0.5,0.9-1,0.9s-1-0.4-1-0.9V403.6z"/>
		<path class="st0" d="M577,429c0,1.7,0.2,3.2,1.9,3.4c0.8,0.1,0.9,0.6,0.9,1c0,0.5-0.3,1-0.9,1h-0.2c-2.4,0-3.3-2.1-3.5-3.8
			c-0.9,1.9-3.6,3.8-6.5,3.8h-0.2c-3.9,0-7.1-2.1-7.1-6.5v-0.3c0-2.6,1.3-4.1,2.8-5c1.9-1.2,4.8-1.7,8-2.3c2-0.3,2.6-1.3,2.6-2.2
			v-0.5c0-3-2.3-5.2-5.2-5.2h-0.2c-2.6,0-4.5,1.3-5.2,3.7c-0.1,0.5-0.5,0.6-0.9,0.6c-0.5,0-1-0.3-1-1c0-0.5,0.2-0.9,0.4-1.3
			c1.2-2.6,4-3.9,6.7-3.9h0.2c3.9,0,7.2,2.9,7.2,7V429H577z M575,420.9c-0.4,0.4-1.8,1-2.6,1.1c-2.9,0.6-8.9,1.1-8.9,5.5v0.3
			c0,3,1.9,4.7,5.1,4.7h0.2c3.7,0,6.2-3,6.2-6.4V420.9z"/>
	</g>
	<g>
		
			<linearGradient id="SVGID_1_" gradientUnits="userSpaceOnUse" x1="-6102.5596" y1="-4647.8096" x2="-6102.5596" y2="-5059.147" gradientTransform="matrix(0.5 -0.866 -0.866 -0.5 -884.038 -7435.1641)">
			<stop  offset="1.708984e-03" style="stop-color:#4B59A4"/>
			<stop  offset="0.9971" style="stop-color:#9870AE"/>
		</linearGradient>
		<polygon class="st3" points="445.4,380.1 89.2,174.5 90.2,172.7 446.4,378.4 		"/>
		
			<linearGradient id="SVGID_2_" gradientUnits="userSpaceOnUse" x1="-13559.8799" y1="-1597.9027" x2="-13559.8799" y2="-2009.24" gradientTransform="matrix(-0.5 -0.866 -0.866 0.5 -8074.0381 -10565.5303)">
			<stop  offset="0" style="stop-color:#6BC1B5"/>
			<stop  offset="0.9985" style="stop-color:#E61F54"/>
		</linearGradient>
		<polygon class="st4" points="90.2,379.3 89.2,377.5 445.4,171.9 446.4,173.6 		"/>
		
			<linearGradient id="SVGID_3_" gradientUnits="userSpaceOnUse" x1="267.8" y1="285.9657" x2="267.8" y2="-125.3342" gradientTransform="matrix(1 0 0 -1 0 356.7314)">
			<stop  offset="0" style="stop-color:#FFFFFF"/>
			<stop  offset="0.9962" style="stop-color:#F3E600"/>
		</linearGradient>
		<rect x="266.8" y="70.8" class="st5" width="2" height="411.3"/>
		
			<linearGradient id="SVGID_4_" gradientUnits="userSpaceOnUse" x1="-655.9155" y1="8010.0742" x2="-478.5889" y2="8010.0742" gradientTransform="matrix(0.509 0.8608 0.8608 -0.509 -6164.4907 4840.5249)">
			<stop  offset="0" style="stop-color:#E61F54"/>
			<stop  offset="0.9976" style="stop-color:#9870AE"/>
		</linearGradient>
		<path class="st6" d="M442.1,378c-19.2-26.6-30.4-64.5-30.6-104c-0.2-39.7,10.7-76.7,29.9-101.6l1.6,1.2
			c-39.5,51.1-39.1,147.9,0.7,203.1L442.1,378z"/>
		
			<linearGradient id="SVGID_5_" gradientUnits="userSpaceOnUse" x1="-2342.3225" y1="6850.5776" x2="-2164.9954" y2="6850.5776" gradientTransform="matrix(-1 4.547847e-03 4.547847e-03 1 -2104.814 -6413.8779)">
			<stop  offset="0" style="stop-color:#F3E600"/>
			<stop  offset="0.9953" style="stop-color:#6BC1B5"/>
		</linearGradient>
		<path class="st7" d="M91.1,374.8c32.7-3.1,71,6.4,105.2,26.1c34.4,19.8,60.8,47.9,72.6,77.1l-1.9,0.7
			c-24.2-59.9-107.9-108.5-175.7-102L91.1,374.8z"/>
		
			<linearGradient id="SVGID_6_" gradientUnits="userSpaceOnUse" x1="-1715.4177" y1="5741.2324" x2="-1538.1838" y2="5741.2324" gradientTransform="matrix(-0.5015 -0.8652 -0.8652 0.5015 4242.5132 -4012.4915)">
			<stop  offset="0" style="stop-color:#6BC1B5"/>
			<stop  offset="1" style="stop-color:#376CB4"/>
		</linearGradient>
		<path class="st8" d="M91.6,171.3c19,26.8,29.8,64.8,29.7,104.2c-0.1,39.7-11.3,76.6-30.8,101.3l-1.6-1.2
			c39.9-50.8,40.4-147.6,1-203.1L91.6,171.3z"/>
		
			<linearGradient id="SVGID_7_" gradientUnits="userSpaceOnUse" x1="265.9" y1="131.9157" x2="442.5" y2="131.9157" gradientTransform="matrix(1 0 0 -1 0 356.7314)">
			<stop  offset="0" style="stop-color:#FFFFFF"/>
			<stop  offset="1" style="stop-color:#9870AF"/>
		</linearGradient>
		<path class="st9" d="M441.7,377.8c-63.4-28-106.2-97.8-131-151.4c-27.8-60.3-43.8-124.5-44.8-154.4l2-0.1
			c0.9,29.7,16.9,93.6,44.6,153.7c24.6,53.3,67.2,122.7,130,150.4L441.7,377.8z"/>
		
			<linearGradient id="SVGID_8_" gradientUnits="userSpaceOnUse" x1="-722.5905" y1="8010.8203" x2="-545.9746" y2="8010.8203" gradientTransform="matrix(0.5108 0.8597 0.8597 -0.5108 -6208.9326 4963.394)">
			<stop  offset="0" style="stop-color:#E61F54"/>
			<stop  offset="0.9873" style="stop-color:#F3E600"/>
		</linearGradient>
		<path class="st10" d="M267.2,479.6c-8.3-68.8,29.8-141.3,63.2-190c37.6-54.7,84.7-101.3,109.9-117.4l1.1,1.7
			c-25.1,16-71.9,62.3-109.3,116.8c-33.3,48.4-71.2,120.4-62.9,188.6L267.2,479.6z"/>
		
			<linearGradient id="SVGID_9_" gradientUnits="userSpaceOnUse" x1="-14561.1875" y1="6159.3037" x2="-14384.5381" y2="6159.3037" gradientTransform="matrix(-1 9.045392e-03 9.045392e-03 1 -14348.0576 -5701.8853)">
			<stop  offset="0" style="stop-color:#F3E600"/>
			<stop  offset="1" style="stop-color:#4B59A4"/>
		</linearGradient>
		<path class="st11" d="M267.7,478.7c-1.2-29.7-17.7-93.5-46-153.2c-25.1-53.1-68.3-122.1-131.4-149.3l0.8-1.8
			c63.6,27.4,107.1,96.8,132.4,150.2c28.4,60,45,124.1,46.2,154L267.7,478.7z"/>
		
			<linearGradient id="SVGID_10_" gradientUnits="userSpaceOnUse" x1="-13522.6982" y1="-1971.271" x2="-13345.9795" y2="-1971.271" gradientTransform="matrix(-0.5048 -0.8632 -0.8632 0.5048 -8305.6914 -10378.6123)">
			<stop  offset="0" style="stop-color:#6BC1B5"/>
			<stop  offset="1" style="stop-color:#FFFFFF"/>
		</linearGradient>
		<path class="st12" d="M90.4,376.6l-1.1-1.7c25.2-15.8,72.3-61.8,110.1-116.1c33.6-48.2,72-119.9,64.2-188.2l2-0.2
			c7.9,68.8-30.8,141.1-64.6,189.5C163.2,314.5,115.7,360.8,90.4,376.6z"/>
		
			<linearGradient id="SVGID_11_" gradientUnits="userSpaceOnUse" x1="-6091.5537" y1="-5139.4902" x2="-5914.9624" y2="-5139.4902" gradientTransform="matrix(0.4945 -0.8692 -0.8692 -0.4945 -1232.5302 -7586.4473)">
			<stop  offset="5.371094e-03" style="stop-color:#4B59A4"/>
			<stop  offset="1" style="stop-color:#E61F54"/>
		</linearGradient>
		<path class="st13" d="M288.5,213.4c-14.9,0-29.2-0.7-42.4-1.8C180,206,116.2,188.1,89.7,174.1l0.9-1.8
			c26.3,13.9,89.7,31.7,155.6,37.2c58.5,5,139.9,2.3,195-38.6l1.2,1.6C399.3,204.6,340.3,213.4,288.5,213.4z"/>
		
			<linearGradient id="SVGID_12_" gradientUnits="userSpaceOnUse" x1="266" y1="234.6657" x2="443.3" y2="234.6657" gradientTransform="matrix(1 0 0 -1 0 356.7314)">
			<stop  offset="0" style="stop-color:#FFFFFF"/>
			<stop  offset="1" style="stop-color:#E61F54"/>
		</linearGradient>
		<path class="st14" d="M431.3,174.7c-29.8,0-63.1-9.6-93.1-27.1c-34.3-20-60.6-48.2-72.2-77.4l1.9-0.7
			c23.9,60,107.4,109,175.2,102.8l0.2,2C439.3,174.5,435.3,174.7,431.3,174.7z"/>
		
			<linearGradient id="SVGID_13_" gradientUnits="userSpaceOnUse" x1="-7994.2832" y1="10964.3115" x2="-7816.9531" y2="10964.3115" gradientTransform="matrix(-0.4945 0.8692 0.8692 0.4945 -13084.9707 1876.1764)">
			<stop  offset="0" style="stop-color:#9870AF"/>
			<stop  offset="0.9952" style="stop-color:#F3E600"/>
		</linearGradient>
		<path class="st15" d="M267.2,478.6l-1.8-0.8c13.6-29.9,40.9-58.4,75.1-78.2c34.3-19.9,71.9-28.8,103-24.5l-0.3,2
			C379.2,368.2,295.3,416.5,267.2,478.6z"/>
		
			<linearGradient id="SVGID_14_" gradientUnits="userSpaceOnUse" x1="-5626.269" y1="-5523.4146" x2="-5448.9175" y2="-5523.4146" gradientTransform="matrix(0.4947 -0.8691 -0.8691 -0.4947 -1881.108 -7421.8794)">
			<stop  offset="0" style="stop-color:#4B59A4"/>
			<stop  offset="0.1796" style="stop-color:#676FB3"/>
			<stop  offset="0.5745" style="stop-color:#AEAFD8"/>
			<stop  offset="1" style="stop-color:#FFFFFF"/>
		</linearGradient>
		<path class="st16" d="M107,175.6c-5.5,0-10.8-0.4-16-1.1l0.3-2c64,8.9,147.8-39.4,176-101.5l1.8,0.8
			c-13.6,29.9-40.9,58.4-75.1,78.2C165.4,166.7,134.5,175.6,107,175.6z"/>
		<circle class="st17" cx="442.2" cy="172.5" r="6.9"/>
		<circle class="st18" cx="442.2" cy="376.9" r="6.9"/>
		<circle class="st19" cx="267.4" cy="479.7" r="6.9"/>
		<circle class="st20" cx="91.3" cy="376.9" r="6.9"/>
		<circle class="st21" cx="91.3" cy="175.1" r="6.9"/>
		<circle class="st22" cx="267" cy="71.9" r="6.9"/>
		
			<linearGradient id="SVGID_15_" gradientUnits="userSpaceOnUse" x1="-8220.8213" y1="11057.6816" x2="-8043.624" y2="11057.6816" gradientTransform="matrix(-0.4992 0.8665 0.8665 0.4992 -13374.1494 1904.7003)">
			<stop  offset="0" style="stop-color:#9870AF"/>
			<stop  offset="1" style="stop-color:#6BC1B5"/>
		</linearGradient>
		<path class="st23" d="M442.2,380.8c-26.1-14-89.4-32.1-155.2-38c-58.4-5.3-139.6-3-194.9,37.5l-1.8-2.4c56-41.1,138-43.3,196.9-38
			c66.2,6,130,24.2,156.4,38.4L442.2,380.8z"/>
	</g>
</g>
</svg>
